<?xml version="1.0" encoding="utf-8"?>
<!-- Generator: Adobe Illustrator 24.0.1, SVG Export Plug-In . SVG Version: 6.00 Build 0)  -->
<svg version="1.1" id="Calque_1" xmlns="http://www.w3.org/2000/svg" xmlns:xlink="http://www.w3.org/1999/xlink" x="0px" y="0px"
	 width="25px" height="25px" viewBox="0 0 25 25" enable-background="new 0 0 25 25" xml:space="preserve">
<g>
	<circle fill="#FFFFFF" stroke="#1B4379" stroke-width="0.6061" stroke-miterlimit="10" cx="12.5" cy="12.5" r="12"/>
	<g>
		
			<linearGradient id="path3095_1_" gradientUnits="userSpaceOnUse" x1="-566.2297" y1="-337.9203" x2="-566.2249" y2="-337.9203" gradientTransform="matrix(4362.5312 0 0 -6253.8228 2470197 -2113281)">
			<stop  offset="0" style="stop-color:#190F24"/>
			<stop  offset="9.722222e-02" style="stop-color:#1F132F"/>
			<stop  offset="0.2" style="stop-color:#221534"/>
			<stop  offset="0.3" style="stop-color:#2B1B41"/>
			<stop  offset="0.4" style="stop-color:#2E1C45"/>
			<stop  offset="0.5" style="stop-color:#362154"/>
			<stop  offset="0.5978" style="stop-color:#3C2359"/>
			<stop  offset="0.7" style="stop-color:#442666"/>
			<stop  offset="0.8" style="stop-color:#472668"/>
			<stop  offset="0.9" style="stop-color:#53267C"/>
			<stop  offset="1" style="stop-color:#55267D"/>
		</linearGradient>
		<path id="path3095_68_" fill="url(#path3095_1_)" d="M15.7,15.3c-0.2,0-0.5-0.2-0.5-0.5v-3.3c0-1.1,0.8-1.8,1.7-1.8
			c0.8,0,1.3,0.6,1.6,1l2.1,3.2c0.2,0.2,0.4,0.5,0.7,0.5c0.5,0,0.7-0.4,0.7-0.7v-3.4c0-0.2,0.2-0.5,0.5-0.5s0.5,0.2,0.5,0.5v3.3
			c0,1.5-1.1,1.8-1.7,1.8c-0.7,0-1.1-0.4-1.6-1l-2.1-3.2c-0.2-0.4-0.4-0.6-0.7-0.6c-0.1,0-0.7,0.1-0.7,0.8v3.3
			C16.1,15,16,15.3,15.7,15.3L15.7,15.3z"/>
		
			<linearGradient id="path3103_1_" gradientUnits="userSpaceOnUse" x1="-566.2301" y1="-337.921" x2="-566.2254" y2="-337.921" gradientTransform="matrix(4362.5312 0 0 -6253.8228 2470197 -2113281)">
			<stop  offset="0" style="stop-color:#190F24"/>
			<stop  offset="9.722222e-02" style="stop-color:#1F132F"/>
			<stop  offset="0.2" style="stop-color:#221534"/>
			<stop  offset="0.3" style="stop-color:#2B1B41"/>
			<stop  offset="0.4" style="stop-color:#2E1C45"/>
			<stop  offset="0.5" style="stop-color:#362154"/>
			<stop  offset="0.5978" style="stop-color:#3C2359"/>
			<stop  offset="0.7" style="stop-color:#442666"/>
			<stop  offset="0.8" style="stop-color:#472668"/>
			<stop  offset="0.9" style="stop-color:#53267C"/>
			<stop  offset="1" style="stop-color:#55267D"/>
		</linearGradient>
		<path id="path3103_136_" fill="url(#path3103_1_)" d="M10.7,17.5C10.7,17.5,10.7,17.3,10.7,17.5c0-0.2,0.1-0.2,0.1-0.2
			c0.1,0,0.1,0.1,0.1,0.1s0,0,0,0.1c0,0.2,0.2,0.5,0.6,0.5s0.6-0.2,0.6-0.5c0-0.4-0.4-0.4-0.6-0.4c-0.6,0-0.8-0.4-0.8-0.6
			c0-0.4,0.2-0.8,1-0.8c0.5,0,0.8,0.4,0.8,0.8l0,0c0,0.1-0.1,0.1-0.1,0.1c-0.1,0-0.1-0.1-0.1-0.1l0,0c0-0.2-0.2-0.5-0.6-0.5
			c-0.4,0-0.6,0.2-0.6,0.5s0.2,0.4,0.6,0.4c0.5,0,1,0.2,1,0.7c0,0.4-0.2,0.8-1,0.8C10.9,18.2,10.7,17.8,10.7,17.5L10.7,17.5z"/>
		
			<linearGradient id="path3105_1_" gradientUnits="userSpaceOnUse" x1="-566.2301" y1="-337.921" x2="-566.2254" y2="-337.921" gradientTransform="matrix(4362.5312 0 0 -6253.8228 2470197 -2113281)">
			<stop  offset="0" style="stop-color:#190F24"/>
			<stop  offset="9.722222e-02" style="stop-color:#1F132F"/>
			<stop  offset="0.2" style="stop-color:#221534"/>
			<stop  offset="0.3" style="stop-color:#2B1B41"/>
			<stop  offset="0.4" style="stop-color:#2E1C45"/>
			<stop  offset="0.5" style="stop-color:#362154"/>
			<stop  offset="0.5978" style="stop-color:#3C2359"/>
			<stop  offset="0.7" style="stop-color:#442666"/>
			<stop  offset="0.8" style="stop-color:#472668"/>
			<stop  offset="0.9" style="stop-color:#53267C"/>
			<stop  offset="1" style="stop-color:#55267D"/>
		</linearGradient>
		<path id="path3105_68_" fill="url(#path3105_1_)" d="M13.6,15.5c-0.6,0-1,0.4-1,0.8v1.7c0,0.1,0.1,0.1,0.1,0.1
			c0.1,0,0.1,0,0.1-0.1v-0.7h0.6c0.5,0,1-0.4,1-0.8C14.6,16,14.2,15.5,13.6,15.5L13.6,15.5z M13.6,15.9c0.4,0,0.6,0.4,0.6,0.6
			c0,0.4-0.4,0.6-0.6,0.6H13v-0.7C13,16.1,13.2,15.9,13.6,15.9L13.6,15.9z"/>
		
			<linearGradient id="path3110_1_" gradientUnits="userSpaceOnUse" x1="-566.2301" y1="-337.921" x2="-566.2254" y2="-337.921" gradientTransform="matrix(4362.5312 0 0 -6253.8228 2470197 -2113281)">
			<stop  offset="0" style="stop-color:#190F24"/>
			<stop  offset="9.722222e-02" style="stop-color:#1F132F"/>
			<stop  offset="0.2" style="stop-color:#221534"/>
			<stop  offset="0.3" style="stop-color:#2B1B41"/>
			<stop  offset="0.4" style="stop-color:#2E1C45"/>
			<stop  offset="0.5" style="stop-color:#362154"/>
			<stop  offset="0.5978" style="stop-color:#3C2359"/>
			<stop  offset="0.7" style="stop-color:#442666"/>
			<stop  offset="0.8" style="stop-color:#472668"/>
			<stop  offset="0.9" style="stop-color:#53267C"/>
			<stop  offset="1" style="stop-color:#55267D"/>
		</linearGradient>
		<path id="path3110_68_" fill="url(#path3110_1_)" d="M18.3,15.5c-0.6,0-1,0.4-1,0.8v1.7c0,0.1,0.1,0.1,0.1,0.1
			c0.1,0,0.1,0,0.1-0.1v-0.7h0.6l0.5,0.7l0.1,0.1c0.1,0,0.1-0.1,0.1-0.1s0,0,0-0.1l-0.2-0.6c0.4-0.1,0.6-0.5,0.6-0.8
			C19.3,16,18.9,15.5,18.3,15.5L18.3,15.5z M18.3,15.9c0.4,0,0.6,0.4,0.6,0.6c0,0.4-0.4,0.6-0.6,0.6h-0.6v-0.7
			C17.7,16.1,18,15.9,18.3,15.9L18.3,15.9z"/>
		
			<linearGradient id="path3112_1_" gradientUnits="userSpaceOnUse" x1="-566.2301" y1="-337.921" x2="-566.2254" y2="-337.921" gradientTransform="matrix(4362.5312 0 0 -6253.8228 2470197 -2113281)">
			<stop  offset="0" style="stop-color:#190F24"/>
			<stop  offset="9.722222e-02" style="stop-color:#1F132F"/>
			<stop  offset="0.2" style="stop-color:#221534"/>
			<stop  offset="0.3" style="stop-color:#2B1B41"/>
			<stop  offset="0.4" style="stop-color:#2E1C45"/>
			<stop  offset="0.5" style="stop-color:#362154"/>
			<stop  offset="0.5978" style="stop-color:#3C2359"/>
			<stop  offset="0.7" style="stop-color:#442666"/>
			<stop  offset="0.8" style="stop-color:#472668"/>
			<stop  offset="0.9" style="stop-color:#53267C"/>
			<stop  offset="1" style="stop-color:#55267D"/>
		</linearGradient>
		<path id="path3112_68_" fill="url(#path3112_1_)" d="M15.9,15.5c-0.8,0-1.3,0.7-1.3,1.3c0,0.8,0.6,1.3,1.3,1.3
			c0.7,0,1.3-0.6,1.3-1.3C17.2,16.1,16.6,15.5,15.9,15.5L15.9,15.5z M15.9,15.9c0.5,0,1.1,0.4,1.1,1.1c0,0.5-0.5,1-1.1,1
			c-0.6,0-1.1-0.5-1.1-1.1C14.9,16.4,15.3,15.9,15.9,15.9L15.9,15.9z"/>
		
			<linearGradient id="path3117_1_" gradientUnits="userSpaceOnUse" x1="-566.2301" y1="-337.921" x2="-566.2254" y2="-337.921" gradientTransform="matrix(4362.5312 0 0 -6253.8228 2470197 -2113281)">
			<stop  offset="0" style="stop-color:#190F24"/>
			<stop  offset="9.722222e-02" style="stop-color:#1F132F"/>
			<stop  offset="0.2" style="stop-color:#221534"/>
			<stop  offset="0.3" style="stop-color:#2B1B41"/>
			<stop  offset="0.4" style="stop-color:#2E1C45"/>
			<stop  offset="0.5" style="stop-color:#362154"/>
			<stop  offset="0.5978" style="stop-color:#3C2359"/>
			<stop  offset="0.7" style="stop-color:#442666"/>
			<stop  offset="0.8" style="stop-color:#472668"/>
			<stop  offset="0.9" style="stop-color:#53267C"/>
			<stop  offset="1" style="stop-color:#55267D"/>
		</linearGradient>
		<path id="path3117_68_" fill="url(#path3117_1_)" d="M20.1,18.2c-0.1,0-0.1-0.1-0.1-0.1v-2.2h-0.6c-0.1,0-0.1-0.1-0.1-0.1
			c0-0.1,0.1-0.1,0.1-0.1h1.5c0.1,0,0.1,0.1,0.1,0.1c0,0.1-0.1,0.1-0.1,0.1h-0.6v2.2C20.3,18.2,20.1,18.2,20.1,18.2L20.1,18.2z"/>
		<g id="path3103_135_">
			<path fill="#55267D" d="M21.1,17.5C21.1,17.5,21.1,17.3,21.1,17.5c0-0.2,0.1-0.2,0.1-0.2c0.1,0,0.1,0.1,0.1,0.1s0,0,0,0.1
				c0,0.2,0.2,0.5,0.6,0.5c0.4,0,0.6-0.2,0.6-0.5c0-0.4-0.4-0.4-0.6-0.4c-0.6,0-0.8-0.4-0.8-0.6c0-0.4,0.2-0.8,1-0.8
				c0.5,0,0.8,0.4,0.8,0.8l0,0c0,0.1-0.1,0.1-0.1,0.1c-0.1,0-0.1-0.1-0.1-0.1l0,0c0-0.2-0.2-0.5-0.6-0.5c-0.4,0-0.6,0.2-0.6,0.5
				s0.2,0.4,0.6,0.4c0.5,0,1,0.2,1,0.7c0,0.4-0.2,0.8-1,0.8C21.5,18.2,21.1,17.8,21.1,17.5L21.1,17.5z"/>
		</g>
		
			<linearGradient id="path3036_1_" gradientUnits="userSpaceOnUse" x1="-566.2297" y1="-337.9201" x2="-566.2249" y2="-337.9201" gradientTransform="matrix(4362.5312 0 0 -6253.8228 2470197 -2113281)">
			<stop  offset="0" style="stop-color:#190F24"/>
			<stop  offset="9.722222e-02" style="stop-color:#1F132F"/>
			<stop  offset="0.2" style="stop-color:#221534"/>
			<stop  offset="0.3" style="stop-color:#2B1B41"/>
			<stop  offset="0.4" style="stop-color:#2E1C45"/>
			<stop  offset="0.5" style="stop-color:#362154"/>
			<stop  offset="0.5978" style="stop-color:#3C2359"/>
			<stop  offset="0.7" style="stop-color:#442666"/>
			<stop  offset="0.8" style="stop-color:#472668"/>
			<stop  offset="0.9" style="stop-color:#53267C"/>
			<stop  offset="1" style="stop-color:#55267D"/>
		</linearGradient>
		<path id="path3036_68_" fill="url(#path3036_1_)" d="M2.3,7.9C2.2,7.9,2.1,8,2.1,8.1v4.2c0,1.8,1.3,2.9,2.8,2.9
			c1.3,0,2.8-1.1,2.8-2.8S6.2,9.7,4.9,9.7C3.3,9.7,2.4,11,2.4,11V8.1C2.6,8,2.4,7.9,2.3,7.9L2.3,7.9z M5,10.1c1.2,0,2.3,1.1,2.3,2.4
			S6.2,14.8,5,14.8c-1.3,0-2.3-1.1-2.3-2.4C2.6,11.3,3.5,10.1,5,10.1L5,10.1z"/>
		
			<linearGradient id="path3085_1_" gradientUnits="userSpaceOnUse" x1="-566.2297" y1="-337.9203" x2="-566.2249" y2="-337.9203" gradientTransform="matrix(4362.5312 0 0 -6253.8228 2470197 -2113281)">
			<stop  offset="0" style="stop-color:#190F24"/>
			<stop  offset="9.722222e-02" style="stop-color:#1F132F"/>
			<stop  offset="0.2" style="stop-color:#221534"/>
			<stop  offset="0.3" style="stop-color:#2B1B41"/>
			<stop  offset="0.4" style="stop-color:#2E1C45"/>
			<stop  offset="0.5" style="stop-color:#362154"/>
			<stop  offset="0.5978" style="stop-color:#3C2359"/>
			<stop  offset="0.7" style="stop-color:#442666"/>
			<stop  offset="0.8" style="stop-color:#472668"/>
			<stop  offset="0.9" style="stop-color:#53267C"/>
			<stop  offset="1" style="stop-color:#55267D"/>
		</linearGradient>
		<path id="path3085_68_" fill="url(#path3085_1_)" d="M7.9,12.4c0-1.3,1.1-2.8,2.8-2.8c1.6,0,2.8,1.2,2.8,2.8
			c0,0.1-0.1,0.2-0.2,0.2h-2.9c-0.1,0-0.2-0.1-0.2-0.2s0.1-0.2,0.2-0.2h2.8c-0.1-1-1-2.1-2.4-2.1c-1.3,0-2.3,1.2-2.3,2.3
			c0,1.5,1.1,2.4,2.3,2.4c1.1,0,1.7-0.6,2.1-1.1c0-0.1,0.1-0.1,0.2-0.1c0.1,0,0.2,0.1,0.2,0.2V14c-0.5,0.7-1.2,1.2-2.3,1.2
			C9.2,15.3,7.9,14.1,7.9,12.4L7.9,12.4z"/>
		
			<linearGradient id="path3087_1_" gradientUnits="userSpaceOnUse" x1="-566.2297" y1="-337.9203" x2="-566.2249" y2="-337.9203" gradientTransform="matrix(4362.5312 0 0 -6253.8228 2470197 -2113281)">
			<stop  offset="0" style="stop-color:#190F24"/>
			<stop  offset="9.722222e-02" style="stop-color:#1F132F"/>
			<stop  offset="0.2" style="stop-color:#221534"/>
			<stop  offset="0.3" style="stop-color:#2B1B41"/>
			<stop  offset="0.4" style="stop-color:#2E1C45"/>
			<stop  offset="0.5" style="stop-color:#362154"/>
			<stop  offset="0.5978" style="stop-color:#3C2359"/>
			<stop  offset="0.7" style="stop-color:#442666"/>
			<stop  offset="0.8" style="stop-color:#472668"/>
			<stop  offset="0.9" style="stop-color:#53267C"/>
			<stop  offset="1" style="stop-color:#55267D"/>
		</linearGradient>
		<path id="path3087_68_" fill="url(#path3087_1_)" d="M14.3,15.3c-0.2,0-0.5-0.2-0.5-0.5v-4.6c0-0.2,0.2-0.5,0.5-0.5
			s0.5,0.2,0.5,0.5v4.6C14.8,15,14.6,15.3,14.3,15.3L14.3,15.3z"/>
	</g>
</g>
</svg>
