<?xml version="1.0" encoding="utf-8"?>
<!-- Generator: Adobe Illustrator 24.0.1, SVG Export Plug-In . SVG Version: 6.00 Build 0)  -->
<svg version="1.1" id="Calque_1" xmlns="http://www.w3.org/2000/svg" xmlns:xlink="http://www.w3.org/1999/xlink" x="0px" y="0px"
	 width="25.6px" height="25.6px" viewBox="0 0 25.6 25.6" enable-background="new 0 0 25.6 25.6" xml:space="preserve">
<title>BeinTf1</title>
<circle fill="#FFFFFF" stroke="#1B4379" stroke-width="0.6313" stroke-miterlimit="10" cx="12.8" cy="12.8" r="12.5"/>
<g id="Nouveau_symbole_32">
	
		<linearGradient id="path3095_2_" gradientUnits="userSpaceOnUse" x1="15328.5801" y1="-15831.6143" x2="15328.6006" y2="-15831.6143" gradientTransform="matrix(1439.6349 0 0 -2063.7607 -22067568 -32672654)">
		<stop  offset="0" style="stop-color:#190F24"/>
		<stop  offset="0.1" style="stop-color:#1F132F"/>
		<stop  offset="0.2" style="stop-color:#221534"/>
		<stop  offset="0.3" style="stop-color:#2B1B41"/>
		<stop  offset="0.4" style="stop-color:#2E1C45"/>
		<stop  offset="0.5" style="stop-color:#362154"/>
		<stop  offset="0.6" style="stop-color:#3C2359"/>
		<stop  offset="0.7" style="stop-color:#442666"/>
		<stop  offset="0.8" style="stop-color:#472668"/>
		<stop  offset="0.9" style="stop-color:#53267C"/>
		<stop  offset="1" style="stop-color:#55267D"/>
	</linearGradient>
	<path id="path3095_1_" fill="url(#path3095_2_)" d="M15.8,11.4V8.6c0-0.4,0.2-0.7,0.6-0.7c0.3,0,0.5,0.2,0.7,0.5l1.7,2.7
		c0.4,0.5,0.7,0.8,1.3,0.8c0,0,0,0,0.1,0c0.8,0,1.4-0.7,1.4-1.5V7.4c0,0,0,0,0,0c0-0.2-0.2-0.4-0.4-0.4c-0.2,0-0.4,0.2-0.4,0.4v2.9
		c0,0,0,0,0,0.1c0,0.3-0.3,0.6-0.6,0.6c-0.3,0-0.4-0.1-0.6-0.4l-1.7-2.7C17.5,7.3,17,7,16.5,7c0,0,0,0-0.1,0C15.6,7,15,7.7,15,8.5
		v2.8c0,0,0,0,0,0c0,0.2,0.2,0.4,0.4,0.4C15.7,11.8,15.8,11.6,15.8,11.4z"/>
	
		<linearGradient id="path3103_2_" gradientUnits="userSpaceOnUse" x1="15328.5801" y1="-15831.6162" x2="15328.5908" y2="-15831.6162" gradientTransform="matrix(1439.6349 0 0 -2063.7607 -22067568 -32672654)">
		<stop  offset="0" style="stop-color:#190F24"/>
		<stop  offset="0.1" style="stop-color:#1F132F"/>
		<stop  offset="0.2" style="stop-color:#221534"/>
		<stop  offset="0.3" style="stop-color:#2B1B41"/>
		<stop  offset="0.4" style="stop-color:#2E1C45"/>
		<stop  offset="0.5" style="stop-color:#362154"/>
		<stop  offset="0.6" style="stop-color:#3C2359"/>
		<stop  offset="0.7" style="stop-color:#442666"/>
		<stop  offset="0.8" style="stop-color:#472668"/>
		<stop  offset="0.9" style="stop-color:#53267C"/>
		<stop  offset="1" style="stop-color:#55267D"/>
	</linearGradient>
	<path id="path3103_1_" fill="url(#path3103_2_)" d="M11.1,13.7c0.1,0.4,0.4,0.6,0.8,0.6c0,0,0,0,0,0c0.4,0,0.7-0.3,0.7-0.7
		c0-0.4-0.4-0.6-0.8-0.6c-0.3,0-0.5-0.1-0.5-0.3s0.2-0.4,0.5-0.4c0,0,0,0,0,0c0.3,0,0.5,0.2,0.5,0.4v0c0,0.1,0.1,0.1,0.1,0.1
		c0.1,0,0.1-0.1,0.1-0.1v0c0,0,0,0,0,0c0-0.4-0.4-0.7-0.8-0.7c0,0-0.1,0-0.1,0c-0.4,0-0.7,0.3-0.7,0.7c0,0.3,0.2,0.5,0.8,0.6
		c0.3,0,0.6,0.1,0.6,0.4c0,0,0,0,0,0c0,0.3-0.3,0.4-0.5,0.4c-0.4,0-0.5-0.2-0.5-0.4v-0.1c0-0.1-0.1-0.1-0.1-0.1c0,0,0,0,0,0
		c-0.1,0-0.1,0.1-0.1,0.1L11.1,13.7C11.1,13.7,11.1,13.7,11.1,13.7z"/>
	
		<linearGradient id="path3105_2_" gradientUnits="userSpaceOnUse" x1="15328.5801" y1="-15831.6162" x2="15328.5908" y2="-15831.6162" gradientTransform="matrix(1439.6349 0 0 -2063.7607 -22067568 -32672654)">
		<stop  offset="0" style="stop-color:#190F24"/>
		<stop  offset="0.1" style="stop-color:#1F132F"/>
		<stop  offset="0.2" style="stop-color:#221534"/>
		<stop  offset="0.3" style="stop-color:#2B1B41"/>
		<stop  offset="0.4" style="stop-color:#2E1C45"/>
		<stop  offset="0.5" style="stop-color:#362154"/>
		<stop  offset="0.6" style="stop-color:#3C2359"/>
		<stop  offset="0.7" style="stop-color:#442666"/>
		<stop  offset="0.8" style="stop-color:#472668"/>
		<stop  offset="0.9" style="stop-color:#53267C"/>
		<stop  offset="1" style="stop-color:#55267D"/>
	</linearGradient>
	<path id="path3105_1_" fill="url(#path3105_2_)" d="M13.6,12.1c0.4,0,0.8,0.4,0.8,0.8c0,0.4-0.4,0.8-0.8,0.8h-0.5v0.6c0,0,0,0,0,0
		c0,0.1-0.1,0.1-0.1,0.1c-0.1,0-0.1-0.1-0.1-0.1v-1.5c0,0,0,0,0,0C12.9,12.3,13.2,12,13.6,12.1L13.6,12.1z M13.6,12.3
		c-0.3,0-0.5,0.2-0.5,0.5v0.6h0.5c0.3,0,0.5-0.2,0.5-0.5c0,0,0,0,0,0C14.2,12.5,13.9,12.3,13.6,12.3C13.6,12.3,13.6,12.3,13.6,12.3z
		"/>
	
		<linearGradient id="path3110_2_" gradientUnits="userSpaceOnUse" x1="15328.5801" y1="-15831.6162" x2="15328.5908" y2="-15831.6162" gradientTransform="matrix(1439.6349 0 0 -2063.7607 -22067568 -32672654)">
		<stop  offset="0" style="stop-color:#190F24"/>
		<stop  offset="0.1" style="stop-color:#1F132F"/>
		<stop  offset="0.2" style="stop-color:#221534"/>
		<stop  offset="0.3" style="stop-color:#2B1B41"/>
		<stop  offset="0.4" style="stop-color:#2E1C45"/>
		<stop  offset="0.5" style="stop-color:#362154"/>
		<stop  offset="0.6" style="stop-color:#3C2359"/>
		<stop  offset="0.7" style="stop-color:#442666"/>
		<stop  offset="0.8" style="stop-color:#472668"/>
		<stop  offset="0.9" style="stop-color:#53267C"/>
		<stop  offset="1" style="stop-color:#55267D"/>
	</linearGradient>
	<path id="path3110_1_" fill="url(#path3110_2_)" d="M17.8,12.1c0.4,0.1,0.7,0.4,0.6,0.8c0,0.3-0.2,0.6-0.5,0.7l0.4,0.6
		c0,0,0,0,0,0.1c0,0.1-0.1,0.1-0.1,0.1c0,0-0.1,0-0.1-0.1l-0.4-0.7h-0.5v0.6c0,0,0,0,0,0c0,0.1-0.1,0.1-0.1,0.1
		c-0.1,0-0.1-0.1-0.1-0.1v-1.5c0,0,0,0,0,0c0-0.4,0.4-0.7,0.8-0.7C17.7,12.1,17.7,12.1,17.8,12.1z M17.2,12.7v0.6h0.5
		c0.3,0,0.5-0.2,0.5-0.5c0,0,0,0,0,0c0-0.3-0.2-0.5-0.5-0.5C17.3,12.3,17.1,12.5,17.2,12.7z"/>
	
		<linearGradient id="path3112_2_" gradientUnits="userSpaceOnUse" x1="15328.5801" y1="-15831.6162" x2="15328.5908" y2="-15831.6162" gradientTransform="matrix(1439.6349 0 0 -2063.7607 -22067568 -32672654)">
		<stop  offset="0" style="stop-color:#190F24"/>
		<stop  offset="0.1" style="stop-color:#1F132F"/>
		<stop  offset="0.2" style="stop-color:#221534"/>
		<stop  offset="0.3" style="stop-color:#2B1B41"/>
		<stop  offset="0.4" style="stop-color:#2E1C45"/>
		<stop  offset="0.5" style="stop-color:#362154"/>
		<stop  offset="0.6" style="stop-color:#3C2359"/>
		<stop  offset="0.7" style="stop-color:#442666"/>
		<stop  offset="0.8" style="stop-color:#472668"/>
		<stop  offset="0.9" style="stop-color:#53267C"/>
		<stop  offset="1" style="stop-color:#55267D"/>
	</linearGradient>
	<path id="path3112_1_" fill="url(#path3112_2_)" d="M16.7,13.2c0,0.6-0.5,1.1-1.2,1.1c-0.6,0-1.1-0.5-1.1-1.2
		c0-0.6,0.5-1.1,1.2-1.1C16.2,12,16.7,12.5,16.7,13.2z M14.7,13.2c0,0.5,0.4,0.9,0.9,0.9c0.5,0,0.9-0.4,0.9-0.9c0,0,0,0,0,0
		c0-0.5-0.4-0.9-0.9-0.9C15.1,12.3,14.7,12.7,14.7,13.2z"/>
	
		<linearGradient id="path3117_2_" gradientUnits="userSpaceOnUse" x1="15328.5801" y1="-15831.6162" x2="15328.5908" y2="-15831.6162" gradientTransform="matrix(1439.6349 0 0 -2063.7607 -22067568 -32672654)">
		<stop  offset="0" style="stop-color:#190F24"/>
		<stop  offset="0.1" style="stop-color:#1F132F"/>
		<stop  offset="0.2" style="stop-color:#221534"/>
		<stop  offset="0.3" style="stop-color:#2B1B41"/>
		<stop  offset="0.4" style="stop-color:#2E1C45"/>
		<stop  offset="0.5" style="stop-color:#362154"/>
		<stop  offset="0.6" style="stop-color:#3C2359"/>
		<stop  offset="0.7" style="stop-color:#442666"/>
		<stop  offset="0.8" style="stop-color:#472668"/>
		<stop  offset="0.9" style="stop-color:#53267C"/>
		<stop  offset="1" style="stop-color:#55267D"/>
	</linearGradient>
	<path id="path3117_1_" fill="url(#path3117_2_)" d="M19.3,14.2v-1.8h0.5c0.1,0,0.1-0.1,0.1-0.1c0-0.1-0.1-0.1-0.1-0.1h-1.3
		c0,0,0,0,0,0c-0.1,0-0.1,0.1-0.1,0.1c0,0.1,0.1,0.1,0.1,0.1H19v1.8c0,0.1,0.1,0.1,0.1,0.1C19.2,14.3,19.3,14.3,19.3,14.2z"/>
	<g id="path3103-2_1_">
		<path fill="#55267D" d="M20,13.7c0.1,0.4,0.4,0.6,0.8,0.6c0,0,0,0,0,0c0.4,0,0.7-0.3,0.7-0.7c0-0.4-0.4-0.6-0.8-0.6
			c-0.3,0-0.5-0.1-0.5-0.3c0-0.2,0.2-0.4,0.5-0.4c0,0,0,0,0,0c0.3,0,0.5,0.2,0.5,0.4v0c0,0.1,0.1,0.1,0.2,0.1c0.1,0,0.1-0.1,0.1-0.1
			v0c0,0,0,0,0,0c0-0.4-0.4-0.7-0.8-0.7c0,0-0.1,0-0.1,0c-0.4,0-0.7,0.3-0.7,0.7c0,0.3,0.2,0.5,0.8,0.6c0.3,0,0.6,0.1,0.6,0.4
			c0,0,0,0,0,0c0,0.3-0.3,0.4-0.5,0.4c-0.4,0-0.5-0.2-0.5-0.4v-0.1c0-0.1-0.1-0.1-0.1-0.1c0,0,0,0,0,0c-0.1,0-0.1,0.1-0.1,0.1
			L20,13.7C20,13.7,20,13.7,20,13.7z"/>
	</g>
	
		<linearGradient id="path3036_2_" gradientUnits="userSpaceOnUse" x1="15328.5801" y1="-15831.6143" x2="15328.6006" y2="-15831.6143" gradientTransform="matrix(1439.6349 0 0 -2063.7607 -22067568 -32672654)">
		<stop  offset="0" style="stop-color:#190F24"/>
		<stop  offset="0.1" style="stop-color:#1F132F"/>
		<stop  offset="0.2" style="stop-color:#221534"/>
		<stop  offset="0.3" style="stop-color:#2B1B41"/>
		<stop  offset="0.4" style="stop-color:#2E1C45"/>
		<stop  offset="0.5" style="stop-color:#362154"/>
		<stop  offset="0.6" style="stop-color:#3C2359"/>
		<stop  offset="0.7" style="stop-color:#442666"/>
		<stop  offset="0.8" style="stop-color:#472668"/>
		<stop  offset="0.9" style="stop-color:#53267C"/>
		<stop  offset="1" style="stop-color:#55267D"/>
	</linearGradient>
	<path id="path3036_1_" fill="url(#path3036_2_)" d="M4.1,5.5c0.1,0,0.1,0.1,0.1,0.2v2.4c0.4-0.7,1.2-1.1,2-1.1
		c1.3,0,2.3,1.1,2.2,2.4c0,1.3-1.1,2.3-2.4,2.2c-1.3,0-2.3-1.1-2.2-2.4V5.7C3.9,5.6,3.9,5.5,4.1,5.5C4,5.5,4.1,5.5,4.1,5.5z
		 M4.2,9.4c0,0,0,0.1,0,0.1c0,1.1,0.9,2,2,1.9c0,0,0,0,0,0c1.1,0,2-0.9,2-2s-0.9-2-2-2C5.1,7.4,4.2,8.3,4.2,9.4z"/>
	
		<linearGradient id="path3085_2_" gradientUnits="userSpaceOnUse" x1="15328.5801" y1="-15831.6143" x2="15328.6006" y2="-15831.6143" gradientTransform="matrix(1439.6349 0 0 -2063.7607 -22067568 -32672654)">
		<stop  offset="0" style="stop-color:#190F24"/>
		<stop  offset="0.1" style="stop-color:#1F132F"/>
		<stop  offset="0.2" style="stop-color:#221534"/>
		<stop  offset="0.3" style="stop-color:#2B1B41"/>
		<stop  offset="0.4" style="stop-color:#2E1C45"/>
		<stop  offset="0.5" style="stop-color:#362154"/>
		<stop  offset="0.6" style="stop-color:#3C2359"/>
		<stop  offset="0.7" style="stop-color:#442666"/>
		<stop  offset="0.8" style="stop-color:#472668"/>
		<stop  offset="0.9" style="stop-color:#53267C"/>
		<stop  offset="1" style="stop-color:#55267D"/>
	</linearGradient>
	<path id="path3085_1_" fill="url(#path3085_2_)" d="M11.2,11.8c0.8,0,1.5-0.4,2-1.1c0.1-0.1,0.1-0.1,0.1-0.1c0-0.1-0.1-0.2-0.2-0.2
		c-0.1,0-0.1,0-0.2,0.1c-0.4,0.6-1,0.9-1.7,0.9c-1,0-1.9-0.8-2-1.9C9.1,8.5,9.9,7.5,11,7.4s2.1,0.7,2.2,1.8h-2.3
		c-0.1,0-0.2,0.1-0.2,0.2c0,0.1,0.1,0.2,0.2,0.2h2.5c0,0,0,0,0,0c0.1,0,0.2-0.1,0.2-0.2c0-1.3-1.1-2.3-2.3-2.3c-1.3,0-2.4,1-2.4,2.3
		C8.8,10.7,9.8,11.8,11.2,11.8z"/>
	
		<linearGradient id="path3087_2_" gradientUnits="userSpaceOnUse" x1="15328.5801" y1="-15831.6143" x2="15328.6006" y2="-15831.6143" gradientTransform="matrix(1439.6349 0 0 -2063.7607 -22067568 -32672654)">
		<stop  offset="0" style="stop-color:#190F24"/>
		<stop  offset="0.1" style="stop-color:#1F132F"/>
		<stop  offset="0.2" style="stop-color:#221534"/>
		<stop  offset="0.3" style="stop-color:#2B1B41"/>
		<stop  offset="0.4" style="stop-color:#2E1C45"/>
		<stop  offset="0.5" style="stop-color:#362154"/>
		<stop  offset="0.6" style="stop-color:#3C2359"/>
		<stop  offset="0.7" style="stop-color:#442666"/>
		<stop  offset="0.8" style="stop-color:#472668"/>
		<stop  offset="0.9" style="stop-color:#53267C"/>
		<stop  offset="1" style="stop-color:#55267D"/>
	</linearGradient>
	<path id="path3087_1_" fill="url(#path3087_2_)" d="M14.7,11.4v-4c0-0.2-0.2-0.4-0.4-0.4c-0.2,0-0.4,0.2-0.4,0.4v3.9
		c0,0.2,0.2,0.4,0.4,0.4C14.4,11.8,14.6,11.6,14.7,11.4z"/>
	<rect x="6.5" y="15.7" fill="#003299" width="6.2" height="4.6"/>
	<polygon fill="#FFFFFF" points="7.4,16.4 10.3,16.4 10.3,17.5 9.6,17.5 9.6,19.6 8.2,19.6 8.2,17.5 7.4,17.5 	"/>
	<rect x="12.7" y="15.7" fill="#FF0000" width="6.2" height="4.6"/>
	<polygon fill="#FFFFFF" points="13.4,17.2 13.4,17.8 14.3,17.8 14.3,18.6 13.4,18.6 13.4,19.6 12.7,19.6 12,19.6 12,16.4 
		12.7,16.4 14.6,16.4 14.6,17.2 	"/>
	<polygon fill="#FFFFFF" points="16.4,16.8 17.8,16.4 17.8,19.6 16.4,19.6 	"/>
</g>
</svg>
