<?xml version="1.0" encoding="utf-8"?>
<!-- Generator: Adobe Illustrator 24.0.1, SVG Export Plug-In . SVG Version: 6.00 Build 0)  -->
<svg version="1.1" id="Calque_1" xmlns="http://www.w3.org/2000/svg" xmlns:xlink="http://www.w3.org/1999/xlink" x="0px" y="0px"
	 width="25px" height="25px" viewBox="0 0 25 25" enable-background="new 0 0 25 25" xml:space="preserve">
<g>
	<circle fill="#FFFFFF" stroke="#1B4379" stroke-width="0.6313" stroke-miterlimit="10" cx="12.4" cy="12.5" r="12.5"/>
	<g>
		
			<linearGradient id="path3095_1_" gradientUnits="userSpaceOnUse" x1="-566.2295" y1="-337.9197" x2="-566.2252" y2="-337.9197" gradientTransform="matrix(4362.5312 0 0 -6253.8228 2470197 -2113281)">
			<stop  offset="0" style="stop-color:#190F24"/>
			<stop  offset="9.722222e-02" style="stop-color:#1F132F"/>
			<stop  offset="0.2" style="stop-color:#221534"/>
			<stop  offset="0.3" style="stop-color:#2B1B41"/>
			<stop  offset="0.4" style="stop-color:#2E1C45"/>
			<stop  offset="0.5" style="stop-color:#362154"/>
			<stop  offset="0.5978" style="stop-color:#3C2359"/>
			<stop  offset="0.7" style="stop-color:#442666"/>
			<stop  offset="0.8" style="stop-color:#472668"/>
			<stop  offset="0.9" style="stop-color:#53267C"/>
			<stop  offset="1" style="stop-color:#55267D"/>
		</linearGradient>
		<path id="path3095_38_" fill="url(#path3095_1_)" d="M15.3,11.5c-0.3,0-0.5-0.3-0.5-0.5V8.1c0-1,0.8-1.6,1.5-1.6s1.1,0.5,1.4,0.9
			l1.9,2.9c0.1,0.3,0.3,0.4,0.6,0.4s0.6-0.4,0.6-0.6v-3c0-0.3,0.3-0.4,0.4-0.4c0.3,0,0.5,0.3,0.5,0.5V10c0,1.3-1,1.6-1.5,1.6
			c-0.6,0-1-0.3-1.4-0.9L17.1,8c-0.3-0.4-0.4-0.5-0.8-0.5c-0.1,0-0.6,0.1-0.6,0.8v3C15.7,11.4,15.6,11.5,15.3,11.5L15.3,11.5z"/>
		
			<linearGradient id="path3103_1_" gradientUnits="userSpaceOnUse" x1="-566.2299" y1="-337.9203" x2="-566.2256" y2="-337.9203" gradientTransform="matrix(4362.5312 0 0 -6253.8228 2470197 -2113281)">
			<stop  offset="0" style="stop-color:#190F24"/>
			<stop  offset="9.722222e-02" style="stop-color:#1F132F"/>
			<stop  offset="0.2" style="stop-color:#221534"/>
			<stop  offset="0.3" style="stop-color:#2B1B41"/>
			<stop  offset="0.4" style="stop-color:#2E1C45"/>
			<stop  offset="0.5" style="stop-color:#362154"/>
			<stop  offset="0.5978" style="stop-color:#3C2359"/>
			<stop  offset="0.7" style="stop-color:#442666"/>
			<stop  offset="0.8" style="stop-color:#472668"/>
			<stop  offset="0.9" style="stop-color:#53267C"/>
			<stop  offset="1" style="stop-color:#55267D"/>
		</linearGradient>
		<path id="path3103_76_" fill="url(#path3103_1_)" d="M10.8,13.5C10.8,13.4,10.8,13.4,10.8,13.5c0-0.1,0.1-0.3,0.1-0.3
			c0.1,0,0.1,0.1,0.1,0.1s0,0,0,0.1c0,0.1,0.1,0.4,0.6,0.4c0.4,0,0.5-0.3,0.5-0.5S11.9,13,11.5,13c-0.5,0-0.8-0.3-0.8-0.6
			s0.3-0.8,0.9-0.8c0.5,0,0.8,0.4,0.8,0.8l0,0c0,0.1-0.1,0.1-0.1,0.1c-0.1,0-0.1-0.1-0.1-0.1l0,0c0-0.3-0.3-0.5-0.5-0.5
			c-0.4,0-0.5,0.3-0.5,0.5s0.3,0.3,0.5,0.4c0.5,0,0.9,0.3,0.9,0.6s-0.3,0.8-0.9,0.8C11,14.1,10.8,13.8,10.8,13.5L10.8,13.5z"/>
		
			<linearGradient id="path3105_1_" gradientUnits="userSpaceOnUse" x1="-566.2299" y1="-337.9203" x2="-566.2256" y2="-337.9203" gradientTransform="matrix(4362.5312 0 0 -6253.8228 2470197 -2113281)">
			<stop  offset="0" style="stop-color:#190F24"/>
			<stop  offset="9.722222e-02" style="stop-color:#1F132F"/>
			<stop  offset="0.2" style="stop-color:#221534"/>
			<stop  offset="0.3" style="stop-color:#2B1B41"/>
			<stop  offset="0.4" style="stop-color:#2E1C45"/>
			<stop  offset="0.5" style="stop-color:#362154"/>
			<stop  offset="0.5978" style="stop-color:#3C2359"/>
			<stop  offset="0.7" style="stop-color:#442666"/>
			<stop  offset="0.8" style="stop-color:#472668"/>
			<stop  offset="0.9" style="stop-color:#53267C"/>
			<stop  offset="1" style="stop-color:#55267D"/>
		</linearGradient>
		<path id="path3105_38_" fill="url(#path3105_1_)" d="M13.4,11.7c-0.5,0-0.9,0.4-0.9,0.8V14c0,0.1,0,0.1,0.1,0.1
			c0.1,0,0.1,0,0.1-0.1v-0.6h0.5c0.5,0,0.9-0.4,0.9-0.8C14.3,12.1,13.9,11.7,13.4,11.7L13.4,11.7z M13.4,12c0.4,0,0.6,0.3,0.6,0.6
			c0,0.4-0.3,0.5-0.5,0.5h-0.6v-0.6C12.8,12.2,13,12,13.4,12L13.4,12z"/>
		
			<linearGradient id="path3110_1_" gradientUnits="userSpaceOnUse" x1="-566.2299" y1="-337.9203" x2="-566.2256" y2="-337.9203" gradientTransform="matrix(4362.5312 0 0 -6253.8228 2470197 -2113281)">
			<stop  offset="0" style="stop-color:#190F24"/>
			<stop  offset="9.722222e-02" style="stop-color:#1F132F"/>
			<stop  offset="0.2" style="stop-color:#221534"/>
			<stop  offset="0.3" style="stop-color:#2B1B41"/>
			<stop  offset="0.4" style="stop-color:#2E1C45"/>
			<stop  offset="0.5" style="stop-color:#362154"/>
			<stop  offset="0.5978" style="stop-color:#3C2359"/>
			<stop  offset="0.7" style="stop-color:#442666"/>
			<stop  offset="0.8" style="stop-color:#472668"/>
			<stop  offset="0.9" style="stop-color:#53267C"/>
			<stop  offset="1" style="stop-color:#55267D"/>
		</linearGradient>
		<path id="path3110_38_" fill="url(#path3110_1_)" d="M17.7,11.7c-0.5,0-0.9,0.4-0.9,0.8V14c0,0.1,0,0.1,0.1,0.1s0.1,0,0.1-0.1
			v-0.6h0.5l0.4,0.8h0.1c0.1,0,0.1,0,0.1-0.1c0,0,0,0,0-0.1l-0.4-0.6c0.4-0.1,0.5-0.4,0.5-0.8C18.5,12.1,18.2,11.7,17.7,11.7
			L17.7,11.7z M17.7,12c0.4,0,0.6,0.3,0.6,0.6c0,0.4-0.3,0.5-0.5,0.5h-0.6v-0.6C17.1,12.2,17.3,12,17.7,12L17.7,12z"/>
		
			<linearGradient id="path3112_1_" gradientUnits="userSpaceOnUse" x1="-566.2291" y1="-337.9203" x2="-566.2257" y2="-337.9203" gradientTransform="matrix(4362.5312 0 0 -6253.8228 2470197 -2113281)">
			<stop  offset="0" style="stop-color:#190F24"/>
			<stop  offset="9.722222e-02" style="stop-color:#1F132F"/>
			<stop  offset="0.2" style="stop-color:#221534"/>
			<stop  offset="0.3" style="stop-color:#2B1B41"/>
			<stop  offset="0.4" style="stop-color:#2E1C45"/>
			<stop  offset="0.5" style="stop-color:#362154"/>
			<stop  offset="0.5978" style="stop-color:#3C2359"/>
			<stop  offset="0.7" style="stop-color:#442666"/>
			<stop  offset="0.8" style="stop-color:#472668"/>
			<stop  offset="0.9" style="stop-color:#53267C"/>
			<stop  offset="1" style="stop-color:#55267D"/>
		</linearGradient>
		<path id="path3112_38_" fill="url(#path3112_1_)" d="M15.4,12c0.5,0,0.9,0.4,0.9,1c0,0.5-0.4,0.9-0.9,0.9s-1-0.4-1-1
			C14.5,12.5,14.9,12,15.4,12L15.4,12z"/>
		
			<linearGradient id="path3117_1_" gradientUnits="userSpaceOnUse" x1="-566.2299" y1="-337.9203" x2="-566.2256" y2="-337.9203" gradientTransform="matrix(4362.5312 0 0 -6253.8228 2470197 -2113281)">
			<stop  offset="0" style="stop-color:#190F24"/>
			<stop  offset="9.722222e-02" style="stop-color:#1F132F"/>
			<stop  offset="0.2" style="stop-color:#221534"/>
			<stop  offset="0.3" style="stop-color:#2B1B41"/>
			<stop  offset="0.4" style="stop-color:#2E1C45"/>
			<stop  offset="0.5" style="stop-color:#362154"/>
			<stop  offset="0.5978" style="stop-color:#3C2359"/>
			<stop  offset="0.7" style="stop-color:#442666"/>
			<stop  offset="0.8" style="stop-color:#472668"/>
			<stop  offset="0.9" style="stop-color:#53267C"/>
			<stop  offset="1" style="stop-color:#55267D"/>
		</linearGradient>
		<path id="path3117_38_" fill="url(#path3117_1_)" d="M19.2,14.1c-0.1,0-0.1-0.1-0.1-0.1v-1.9h-0.5c-0.1,0-0.1-0.1-0.1-0.1
			c0-0.1,0-0.1,0.1-0.1H20c0.1,0,0.1,0.1,0.1,0.1c0,0.1,0,0.1-0.1,0.1h-0.5V14C19.3,14.1,19.3,14.1,19.2,14.1L19.2,14.1z"/>
		<g id="path3103_75_">
			<path fill="#55267D" d="M20.1,13.5C20.1,13.4,20.1,13.4,20.1,13.5c0-0.1,0.1-0.3,0.1-0.3c0.1,0,0.1,0.1,0.1,0.1s0,0,0,0.1
				c0,0.1,0.1,0.4,0.6,0.4c0.4,0,0.5-0.3,0.5-0.5S21.2,13,20.9,13c-0.5,0-0.8-0.3-0.8-0.6s0.3-0.8,0.9-0.8c0.5,0,0.8,0.4,0.8,0.8
				l0,0c0,0.1-0.1,0.1-0.1,0.1c-0.1,0-0.1-0.1-0.1-0.1l0,0c0-0.3-0.3-0.5-0.5-0.5c-0.4,0-0.5,0.3-0.5,0.5s0.3,0.3,0.5,0.4
				c0.5,0,0.9,0.3,0.9,0.6s-0.3,0.8-0.9,0.8C20.5,14.1,20.1,13.8,20.1,13.5L20.1,13.5z"/>
		</g>
		
			<linearGradient id="path3036_1_" gradientUnits="userSpaceOnUse" x1="-566.2295" y1="-337.9196" x2="-566.2252" y2="-337.9196" gradientTransform="matrix(4362.5312 0 0 -6253.8228 2470197 -2113281)">
			<stop  offset="0" style="stop-color:#190F24"/>
			<stop  offset="9.722222e-02" style="stop-color:#1F132F"/>
			<stop  offset="0.2" style="stop-color:#221534"/>
			<stop  offset="0.3" style="stop-color:#2B1B41"/>
			<stop  offset="0.4" style="stop-color:#2E1C45"/>
			<stop  offset="0.5" style="stop-color:#362154"/>
			<stop  offset="0.5978" style="stop-color:#3C2359"/>
			<stop  offset="0.7" style="stop-color:#442666"/>
			<stop  offset="0.8" style="stop-color:#472668"/>
			<stop  offset="0.9" style="stop-color:#53267C"/>
			<stop  offset="1" style="stop-color:#55267D"/>
		</linearGradient>
		<path id="path3036_38_" fill="url(#path3036_1_)" d="M3.3,4.9c-0.1,0-0.3,0-0.3,0.1v3.8c0,1.6,1.3,2.7,2.5,2.7
			c1.1,0,2.5-1,2.5-2.5S6.8,6.4,5.6,6.4c-1.5,0-2.1,1.1-2.1,1.1V5.1C3.4,4.9,3.3,4.9,3.3,4.9L3.3,4.9z M5.6,6.8
			c1.1,0,2.1,0.9,2.1,2.1c0,1.1-1,2.1-2.1,2.1c-1.3,0-2.1-1-2.1-2.1C3.4,8,4.3,6.8,5.6,6.8L5.6,6.8z"/>
		
			<linearGradient id="path3085_1_" gradientUnits="userSpaceOnUse" x1="-566.2295" y1="-337.9197" x2="-566.2252" y2="-337.9197" gradientTransform="matrix(4362.5312 0 0 -6253.8228 2470197 -2113281)">
			<stop  offset="0" style="stop-color:#190F24"/>
			<stop  offset="9.722222e-02" style="stop-color:#1F132F"/>
			<stop  offset="0.2" style="stop-color:#221534"/>
			<stop  offset="0.3" style="stop-color:#2B1B41"/>
			<stop  offset="0.4" style="stop-color:#2E1C45"/>
			<stop  offset="0.5" style="stop-color:#362154"/>
			<stop  offset="0.5978" style="stop-color:#3C2359"/>
			<stop  offset="0.7" style="stop-color:#442666"/>
			<stop  offset="0.8" style="stop-color:#472668"/>
			<stop  offset="0.9" style="stop-color:#53267C"/>
			<stop  offset="1" style="stop-color:#55267D"/>
		</linearGradient>
		<path id="path3085_38_" fill="url(#path3085_1_)" d="M8.2,9c0-1.1,1-2.5,2.5-2.5c1.4,0,2.5,1.1,2.5,2.5c0,0.1-0.1,0.3-0.3,0.3
			h-2.7c-0.1,0-0.1-0.1-0.1-0.1C10.3,9,10.4,9,10.5,9H13c-0.1-0.9-0.9-1.9-2.1-1.9s-2.1,1-2.1,2c0,1.3,1,2.1,2.1,2.1
			c1,0,1.5-0.6,1.8-1c0-0.1,0.1-0.1,0.1-0.1c0.1,0,0.1,0.1,0.1,0.1v0.1c-0.4,0.6-1.1,1.1-2.1,1.1C9.5,11.5,8.2,10.4,8.2,9L8.2,9z"/>
		
			<linearGradient id="path3087_1_" gradientUnits="userSpaceOnUse" x1="-566.2295" y1="-337.9197" x2="-566.2252" y2="-337.9197" gradientTransform="matrix(4362.5312 0 0 -6253.8228 2470197 -2113281)">
			<stop  offset="0" style="stop-color:#190F24"/>
			<stop  offset="9.722222e-02" style="stop-color:#1F132F"/>
			<stop  offset="0.2" style="stop-color:#221534"/>
			<stop  offset="0.3" style="stop-color:#2B1B41"/>
			<stop  offset="0.4" style="stop-color:#2E1C45"/>
			<stop  offset="0.5" style="stop-color:#362154"/>
			<stop  offset="0.5978" style="stop-color:#3C2359"/>
			<stop  offset="0.7" style="stop-color:#442666"/>
			<stop  offset="0.8" style="stop-color:#472668"/>
			<stop  offset="0.9" style="stop-color:#53267C"/>
			<stop  offset="1" style="stop-color:#55267D"/>
		</linearGradient>
		<path id="path3087_38_" fill="url(#path3087_1_)" d="M14,11.5c-0.3,0-0.4-0.1-0.4-0.4V6.9c0-0.3,0.1-0.4,0.4-0.4
			c0.3,0,0.4,0.1,0.4,0.5v4.2C14.4,11.4,14.3,11.5,14,11.5L14,11.5z"/>
	</g>
	<g>
		<polygon fill="#D1D1D1" points="8.1,23.6 9.2,16.4 12.9,20.1 16.6,16.4 17.7,23.6 15.3,23.6 14.9,21.6 12.9,23.6 10.9,21.6 
			10.5,23.6 		"/>
		<path id="_6_6_" fill="#E42528" d="M13,17.9c0.4-0.6,0.6-1.1,0.9-1.4h-1.5c-0.6,0.9-1.4,2.1-1.6,3c0,0.1-0.1,0.4-0.1,0.5
			c0,1.3,1,2.1,2.1,2.1s2.3-1,2.3-2.1S14.2,17.9,13,17.9z M13.9,20.1c0,0.5-0.4,1-1,1c-0.5,0-1-0.4-1-1c0-0.6,0.4-1,1-1l0,0
			C13.4,19.1,13.9,19.6,13.9,20.1z"/>
	</g>
</g>
</svg>
