<svg viewBox="0 0 26 38" xmlns="http://www.w3.org/2000/svg"><defs><linearGradient x1="50%" y1="0%" x2="50%" y2="100%" id="a"><stop stop-color="#F8DC1A" offset="0%"/><stop stop-color="#F5C707" offset="100%"/></linearGradient></defs><path d="M24.546 15.151c-.334.944-1.425 1.96-2.203 2.531-.779.57-.563.768-.462 1.016h-.861c-.013-.054-.04-.142-.102-.19 0 0-.054.217-.547.398-.313.115-.647.305-.887.576l-.05.016c.253-1.1.394-2.312.394-3.585 0-.911-.073-1.79-.207-2.62.157-.263.376-.339.522-.339.2 0 .381.124.53.36.068.116.076.524.536.867.72.532 1.52.398 1.663-.371.106-.56-.458-.684-.768-.653-.006-.517.997-1.228 1.971-.44 1.046.848.699 1.798.471 2.434M6.377 19.482c-.24-.271-.574-.461-.887-.576-.493-.181-.547-.399-.547-.399a.342.342 0 0 0-.101.191H3.98c.1-.248.317-.447-.462-1.016-.777-.57-1.869-1.587-2.203-2.53-.227-.637-.575-1.587.47-2.435.975-.788 1.978-.077 1.972.44-.31-.031-.873.092-.768.653.143.77.943.903 1.663.37.46-.342.468-.75.536-.867.149-.235.33-.359.53-.359.146 0 .365.076.522.338-.134.83-.207 1.71-.207 2.621 0 1.273.14 2.485.394 3.585l-.05-.016m18.817-7.24c-.682-1.118-1.698-1.01-2.038-1.416a.569.569 0 0 1-.028-.74c.333 0 .3 0 .3-.204 0-.203.033-.339.033-.339l.171-.136-.34-.61c.097-.174.125-.602-.305-.602-.443 0-.718-.058-1.117.37-.335.358-.344.685-.287.97.035.177.238.419.338.538-.107.204-1.06 1.228-1.06 1.742 0 .118-.006.392 0 .485h-.807l-.02-1.91h-.46c.207-.221.325-.629.325-.907 0-.497-.266-1.13-1-1.13h-.369a.27.27 0 0 1-.262.207c-.146 0-.267-.13-.267-.308-.204 0-.37-.04-.51-.11a5.252 5.252 0 0 0-.365-.376c-.11-.218-.163-.504-.163-.86H16.6s.103-.234-.033-.437c-.137-.203-.342-.19-.342-.19v-.52s-.176-.339-1.222-.339c-.852 0-1.064-.237-1.219-.413.084-.097.267-.403.267-1.208 0-1.045-.716-2.201-.716-2.201v-.335c0-.333.477-.468.477-.468C13.776.23 13.309 0 12.946 0h-.026c-.368 0-.835.231-.871.795 0 0 .477.135.477.468v.335s-.716 1.156-.716 2.2c0 .806.183 1.112.267 1.21-.155.175-.367.412-1.22.412-1.045 0-1.22.339-1.22.339v.52s-.206-.013-.342.19c-.137.203-.034.437-.034.437h-.363c0 .356-.053.642-.163.86a5.337 5.337 0 0 0-.364.376c-.14.07-.307.11-.51.11 0 .179-.122.308-.268.308a.27.27 0 0 1-.262-.208h-.369c-.734 0-1 .634-1 1.131 0 .278.118.686.325.907h-.46l-.02 1.91H5c.006-.093 0-.367 0-.485 0-.514-.953-1.538-1.06-1.742.1-.12.303-.361.338-.539.057-.284.048-.611-.287-.969-.4-.428-.674-.37-1.117-.37-.43 0-.402.428-.304.603l-.34.609.17.136s.033.136.033.34c0 .202-.033.202.3.202a.57.57 0 0 1-.028.741c-.34.406-1.356.298-2.038 1.416-.682 1.12-1.255 2.808.478 4.43 1.732 1.62 2.168 1.416 2.338 1.89.12.33.09.546.038.645a.202.202 0 0 0-.201.2.201.201 0 1 0 .378.096l.4-.099s.07-.007.183-.013a.268.268 0 0 0 .154.488.27.27 0 0 0 .27-.268.266.266 0 0 0-.132-.23c.35-.007.803.01 1.053.124.443.204.478.408.58.714.076.231-.023.583-.075.737a.491.491 0 0 0-.35-.142c-.276 0-.5.222-.5.496a.58.58 0 0 0 .488.568c.333.039.656.005.947-.48.025-.042.072-.152.113-.301l.01-.059c.002-.036.007-.065.01-.093.692 1.936 1.768 3.352 3.027 3.865.118.242.255.664.255 1.097 0 .7-.53 1.277-1.207 1.376a1.37 1.37 0 0 0-1.27 1.361c0 .22.054.429.147.613a.726.726 0 0 0-.658.896.686.686 0 0 0-.573.676v4.904a.35.35 0 0 0-.301.533.877.877 0 0 0-.72.86c0 .483.393.874.88.874h13.003c.486 0 .88-.39.88-.874a.877.877 0 0 0-.721-.86.35.35 0 0 0-.301-.533V30.83a.686.686 0 0 0-.573-.676.726.726 0 0 0-.657-.895 1.369 1.369 0 0 0-1.124-1.974 1.403 1.403 0 0 1-1.207-1.377c0-.433.137-.855.255-1.097 1.259-.513 2.335-1.929 3.026-3.865.004.028.01.057.012.093l.01.059c.04.15.088.26.112.301.291.485.614.519.947.48a.58.58 0 0 0 .487-.568.497.497 0 0 0-.5-.496.492.492 0 0 0-.349.142c-.052-.154-.151-.506-.075-.737.102-.306.137-.51.58-.714.25-.114.704-.131 1.053-.125a.265.265 0 0 0-.132.231c0 .147.12.268.27.268a.269.269 0 0 0 .154-.488c.114.006.183.013.183.013l.4.1a.202.202 0 0 0 .177.103.2.2 0 0 0 .201-.2.2.2 0 0 0-.201-.2c-.052-.1-.082-.314.038-.644.17-.475.606-.27 2.338-1.891 1.733-1.622 1.16-3.31.478-4.43" fill="url(#a)" fill-rule="evenodd"/></svg>