<?xml version="1.0" encoding="utf-8"?>
<!-- Generator: Adobe Illustrator 24.0.1, SVG Export Plug-In . SVG Version: 6.00 Build 0)  -->
<svg version="1.1" xmlns="http://www.w3.org/2000/svg" xmlns:xlink="http://www.w3.org/1999/xlink" x="0px" y="0px" width="275px"
	 height="297.6px" viewBox="0 0 275 297.6" enable-background="new 0 0 275 297.6" xml:space="preserve">
<g id="Calque_2">
	<polygon fill-rule="evenodd" clip-rule="evenodd" fill="#FFFFFF" points="557.2,314 118.9,314 -30.2,314 -30.2,21.4 557.2,21.4 	
		"/>
	
		<linearGradient id="SVGID_1_" gradientUnits="userSpaceOnUse" x1="21632.8711" y1="-6824.0132" x2="-24536.5176" y2="7291.3857" gradientTransform="matrix(-1 0 0 -1 173.8954 -69.621)">
		<stop  offset="0" style="stop-color:#FBEA26"/>
		<stop  offset="1" style="stop-color:#4EAE36"/>
	</linearGradient>
	<path fill-rule="evenodd" clip-rule="evenodd" fill="url(#SVGID_1_)" d="M207.3,60.1v-3.6c74.3-61.3,126.8-23,181.2,16.7
		c10.1,7.4,20.3,14.8,30.7,21.7c39.7,26.2,71.5,30.8,97.7,24.3c14.9-3.7,28.1-10.9,40-19.8v3.5c-11.8,8.7-24.9,15.8-39.7,19.5
		c-26.6,6.6-58.7,1.9-98.8-24.5C408,91,397.8,83.5,387.7,76.1C333.6,36.5,281.4-1.5,207.3,60.1z"/>
	
		<linearGradient id="SVGID_2_" gradientUnits="userSpaceOnUse" x1="-92.7725" y1="-284.2941" x2="189.3043" y2="185.1606" gradientTransform="matrix(-1 0 0 -1 173.8954 -69.621)">
		<stop  offset="0" style="stop-color:#F08607"/>
		<stop  offset="1" style="stop-color:#E30519"/>
	</linearGradient>
	<path fill-rule="evenodd" clip-rule="evenodd" fill="url(#SVGID_2_)" d="M207.3,303.8V28.4c5.3-1.6-10.4-2.5,16.3-2.5
		c26.7,0,164.2,121.9,82.5,165.1c-81.7,43.2-55.8,115.2-82.5,115.2C196.9,306.3,212.6,305.5,207.3,303.8z"/>
	
		<linearGradient id="SVGID_3_" gradientUnits="userSpaceOnUse" x1="-185.6278" y1="-414.1299" x2="-11.5135" y2="-321.5517" gradientTransform="matrix(-1 0 0 -1 173.8954 -69.621)">
		<stop  offset="0" style="stop-color:#EE7507"/>
		<stop  offset="1" style="stop-color:#FAC500"/>
	</linearGradient>
	<path fill-rule="evenodd" clip-rule="evenodd" fill="url(#SVGID_3_)" d="M302.5,302.9c-33.6-0.8-76-27-95.2-68.1v44.8
		c0,0,14,36.4,66.1,34.3l0.3-0.1c-0.8,0-1.7,0-2.5,0.1l0,0l0,0l0,0l0,0l0,0l0,0l-0.2,0l0,0l0,0h0h0l0,0h0h0h0
		C280.8,312.6,291.3,308.5,302.5,302.9z"/>
	<path fill-rule="evenodd" clip-rule="evenodd" fill="#EE7507" d="M275.4,297.4c-42.1-20.9-63.5-56-68.1-81.4v18.8
		C221.6,265.4,248.6,287.7,275.4,297.4z"/>
	
		<linearGradient id="SVGID_4_" gradientUnits="userSpaceOnUse" x1="-389.0214" y1="-86.9958" x2="-160.538" y2="-123.184" gradientTransform="matrix(-1 0 0 -1 173.8954 -69.621)">
		<stop  offset="0" style="stop-color:#E30519"/>
		<stop  offset="1.442057e-02" style="stop-color:#E41819"/>
		<stop  offset="0.1778" style="stop-color:#E9621E"/>
		<stop  offset="0.3388" style="stop-color:#EF9221"/>
		<stop  offset="0.4932" style="stop-color:#F4B524"/>
		<stop  offset="0.64" style="stop-color:#F7CD25"/>
		<stop  offset="0.7772" style="stop-color:#FADE26"/>
		<stop  offset="0.901" style="stop-color:#FBE726"/>
		<stop  offset="1" style="stop-color:#FBEA26"/>
	</linearGradient>
	<path fill-rule="evenodd" clip-rule="evenodd" fill="url(#SVGID_4_)" d="M556.9,55.7c-8.7-28.8-37.3-39.3-101.3-9.3
		c-64.1,30-108.8,40.3-153.8-25.1h7.8c0,0,12.1,13.5,29.3,22.4c48.9,25.2,65.2-22.4,99.4-22.4h118.6V55.7z"/>
	<path fill-rule="evenodd" clip-rule="evenodd" fill="#B54822" d="M556.9,62.9c0,0-15.6-55-103-15.7c0.5-0.3,1.1-0.5,1.6-0.8
		c64.1-30,92.6-19.4,101.3,9.3V62.9L556.9,62.9z M449.3,49.4l-0.1,0.1l0,0L449.3,49.4z"/>
	<path fill-rule="evenodd" clip-rule="evenodd" fill="#E30519" d="M309.6,21.3h3.4c0,0,36.5,42.7,74.3,24.4
		c-12.9,6.3-27.7,8.7-48.4-2C321.8,34.9,309.6,21.3,309.6,21.3z"/>
	
		<linearGradient id="SVGID_5_" gradientUnits="userSpaceOnUse" x1="583.8525" y1="-432.5643" x2="-427.1566" y2="-24.0901" gradientTransform="matrix(-1 0 0 -1 173.8954 -69.621)">
		<stop  offset="0" style="stop-color:#40B2E7"/>
		<stop  offset="1" style="stop-color:#0E5CA8"/>
	</linearGradient>
	<path opacity="0.76" fill-rule="evenodd" clip-rule="evenodd" fill="url(#SVGID_5_)" d="M207.3,162.8
		C252.9,48.1,322.6,26.5,358.2,21.3h-30.3c0,0-60,5.8-120.5,59.5v27.9V162.8z"/>
	<path fill-rule="evenodd" clip-rule="evenodd" fill="#2B3279" d="M207.3,162.8v11.8c0,0,22.2-78.3,87.4-129.3
		C264.8,64.8,232.4,99.8,207.3,162.8z"/>
	<g>
		<polygon fill-rule="evenodd" clip-rule="evenodd" fill="#0E5CA8" points="359.9,93.2 355.2,80 347.1,94.8 		"/>
		
			<linearGradient id="SVGID_6_" gradientUnits="userSpaceOnUse" x1="-186.0939" y1="-154.8955" x2="-169.1604" y2="-168.6079" gradientTransform="matrix(-1 0 0 -1 173.8954 -69.621)">
			<stop  offset="0" style="stop-color:#009844"/>
			<stop  offset="1" style="stop-color:#B4CD22"/>
		</linearGradient>
		<polygon opacity="0.93" fill-rule="evenodd" clip-rule="evenodd" fill="url(#SVGID_6_)" points="359.9,93.2 356.8,80 347.1,94.8 
					"/>
	</g>
	<g>
		<polygon fill-rule="evenodd" clip-rule="evenodd" fill="#2B3279" points="472.1,126.9 465.4,113.5 459.3,128.5 		"/>
		
			<linearGradient id="SVGID_7_" gradientUnits="userSpaceOnUse" x1="-296.3052" y1="-189.3954" x2="-278.7" y2="-203.6518" gradientTransform="matrix(-1 0 0 -1 173.8954 -69.621)">
			<stop  offset="0" style="stop-color:#6BB532"/>
			<stop  offset="1" style="stop-color:#FBEA26"/>
		</linearGradient>
		<polygon opacity="0.93" fill-rule="evenodd" clip-rule="evenodd" fill="url(#SVGID_7_)" points="472.1,126.9 464.7,115.6 
			459.3,128.5 		"/>
	</g>
	<g>
		<polygon fill-rule="evenodd" clip-rule="evenodd" fill="#0E5CA8" points="230.5,197.1 225.8,184 217.7,198.8 		"/>
		
			<linearGradient id="SVGID_8_" gradientUnits="userSpaceOnUse" x1="-56.6574" y1="-258.8846" x2="-39.7239" y2="-272.597" gradientTransform="matrix(-1 0 0 -1 173.8954 -69.621)">
			<stop  offset="0" style="stop-color:#E9620B"/>
			<stop  offset="1" style="stop-color:#FBEA26"/>
		</linearGradient>
		<polygon opacity="0.93" fill-rule="evenodd" clip-rule="evenodd" fill="url(#SVGID_8_)" points="230.5,197.1 227.3,184 
			217.7,198.8 		"/>
	</g>
	<g>
		<polygon fill-rule="evenodd" clip-rule="evenodd" fill="#2B3279" points="232.6,48.4 226,35.1 219.8,50.1 		"/>
		
			<linearGradient id="SVGID_9_" gradientUnits="userSpaceOnUse" x1="-55.5161" y1="-112.0839" x2="-43.9356" y2="-120.4976" gradientTransform="matrix(-1 0 0 -1 173.8954 -69.621)">
			<stop  offset="0" style="stop-color:#E30519"/>
			<stop  offset="1" style="stop-color:#FBEA26"/>
		</linearGradient>
		<polygon opacity="0.93" fill-rule="evenodd" clip-rule="evenodd" fill="url(#SVGID_9_)" points="232.6,48.4 225.2,37.2 
			219.8,50.1 		"/>
	</g>
	<g>
		<polygon fill-rule="evenodd" clip-rule="evenodd" fill="#2B3279" points="260,107.4 251.9,111.5 257,123.2 		"/>
		
			<linearGradient id="SVGID_10_" gradientUnits="userSpaceOnUse" x1="-90.5177" y1="-184.9512" x2="-76.9184" y2="-184.9512" gradientTransform="matrix(-1 0 0 -1 173.8954 -69.621)">
			<stop  offset="0" style="stop-color:#E30519"/>
			<stop  offset="1" style="stop-color:#F3E722"/>
		</linearGradient>
		<polygon opacity="0.93" fill-rule="evenodd" clip-rule="evenodd" fill="url(#SVGID_10_)" points="260,107.4 252.6,113.1 
			257,123.2 		"/>
	</g>
	<g>
		<polygon fill-rule="evenodd" clip-rule="evenodd" fill="#2B3279" points="307.1,243.6 299.1,247.7 304.2,259.4 		"/>
		
			<linearGradient id="SVGID_11_" gradientUnits="userSpaceOnUse" x1="-137.6798" y1="-321.0902" x2="-124.0805" y2="-321.0902" gradientTransform="matrix(-1 0 0 -1 173.8954 -69.621)">
			<stop  offset="0" style="stop-color:#E30519"/>
			<stop  offset="1" style="stop-color:#F3E722"/>
		</linearGradient>
		<polygon opacity="0.93" fill-rule="evenodd" clip-rule="evenodd" fill="url(#SVGID_11_)" points="307.1,243.6 299.8,249.2 
			304.2,259.4 		"/>
	</g>
	<g>
		<polygon fill-rule="evenodd" clip-rule="evenodd" fill="#2B3279" points="286.2,180.1 278.1,184.2 283.2,196 		"/>
		
			<linearGradient id="SVGID_12_" gradientUnits="userSpaceOnUse" x1="-116.7548" y1="-257.6713" x2="-103.1555" y2="-257.6713" gradientTransform="matrix(-1 0 0 -1 173.8954 -69.621)">
			<stop  offset="0" style="stop-color:#E30519"/>
			<stop  offset="1" style="stop-color:#F3E722"/>
		</linearGradient>
		<polygon opacity="0.93" fill-rule="evenodd" clip-rule="evenodd" fill="url(#SVGID_12_)" points="286.2,180.1 278.9,185.8 
			283.2,196 		"/>
	</g>
	<g>
		<polygon fill-rule="evenodd" clip-rule="evenodd" fill="#0E5CA8" points="341.4,265.6 336.7,252.5 328.6,267.3 		"/>
		
			<linearGradient id="SVGID_13_" gradientUnits="userSpaceOnUse" x1="-167.5602" y1="-327.377" x2="-150.6268" y2="-341.0895" gradientTransform="matrix(-1 0 0 -1 173.8954 -69.621)">
			<stop  offset="0" style="stop-color:#E9620B"/>
			<stop  offset="1" style="stop-color:#FBEA26"/>
		</linearGradient>
		<polygon opacity="0.93" fill-rule="evenodd" clip-rule="evenodd" fill="url(#SVGID_13_)" points="341.4,265.6 338.3,252.5 
			328.6,267.3 		"/>
	</g>
	<g>
		<polygon fill-rule="evenodd" clip-rule="evenodd" fill="#2B3279" points="261.2,246.6 254.6,233.3 248.4,248.3 		"/>
		
			<linearGradient id="SVGID_14_" gradientUnits="userSpaceOnUse" x1="-84.092" y1="-310.2675" x2="-72.5115" y2="-318.6812" gradientTransform="matrix(-1 0 0 -1 173.8954 -69.621)">
			<stop  offset="0" style="stop-color:#E30519"/>
			<stop  offset="1" style="stop-color:#FBEA26"/>
		</linearGradient>
		<polygon opacity="0.93" fill-rule="evenodd" clip-rule="evenodd" fill="url(#SVGID_14_)" points="261.2,246.6 253.8,235.4 
			248.4,248.3 		"/>
	</g>
	<g>
		<polygon fill-rule="evenodd" clip-rule="evenodd" fill="#0E5CA8" points="535.4,62.3 530.7,49.2 522.6,64 		"/>
		
			<linearGradient id="SVGID_15_" gradientUnits="userSpaceOnUse" x1="-361.6029" y1="-124.0316" x2="-344.6694" y2="-137.7441" gradientTransform="matrix(-1 0 0 -1 173.8954 -69.621)">
			<stop  offset="0" style="stop-color:#009844"/>
			<stop  offset="1" style="stop-color:#B4CD22"/>
		</linearGradient>
		<polygon opacity="0.93" fill-rule="evenodd" clip-rule="evenodd" fill="url(#SVGID_15_)" points="535.4,62.3 532.3,49.2 522.6,64 
					"/>
	</g>
	<g>
		<polygon fill-rule="evenodd" clip-rule="evenodd" fill="#2B3279" points="518.1,106.5 507.7,103.5 509.1,121.4 		"/>
		
			<linearGradient id="SVGID_16_" gradientUnits="userSpaceOnUse" x1="-340.0795" y1="-170.335" x2="-332.3044" y2="-214.4294" gradientTransform="matrix(-1 0 0 -1 173.8954 -69.621)">
			<stop  offset="0" style="stop-color:#6BB532"/>
			<stop  offset="1" style="stop-color:#FBEA26"/>
		</linearGradient>
		<polygon opacity="0.93" fill-rule="evenodd" clip-rule="evenodd" fill="url(#SVGID_16_)" points="518.1,106.5 507.9,105.9 
			509.1,121.4 		"/>
	</g>
	<g>
		<polygon fill-rule="evenodd" clip-rule="evenodd" fill="#2B3279" points="417.4,82.9 418.8,96.3 426.7,89.9 		"/>
		
			<linearGradient id="SVGID_17_" gradientUnits="userSpaceOnUse" x1="-248.898" y1="-151.4495" x2="-245.1932" y2="-174.8407" gradientTransform="matrix(-1 0 0 -1 173.8954 -69.621)">
			<stop  offset="0" style="stop-color:#6BB532"/>
			<stop  offset="1" style="stop-color:#F3E722"/>
		</linearGradient>
		<polygon opacity="0.93" fill-rule="evenodd" clip-rule="evenodd" fill="url(#SVGID_17_)" points="417.4,82.9 419.9,95.4 
			426.7,89.9 		"/>
	</g>
	<g>
		<polygon fill-rule="evenodd" clip-rule="evenodd" fill="#2B3279" points="332.5,89.6 324.5,93.7 329.6,105.4 		"/>
		
			<linearGradient id="SVGID_18_" gradientUnits="userSpaceOnUse" x1="-163.1063" y1="-167.1155" x2="-149.5057" y2="-167.1155" gradientTransform="matrix(-1 0 0 -1 173.8954 -69.621)">
			<stop  offset="0" style="stop-color:#6BB532"/>
			<stop  offset="1" style="stop-color:#F3E722"/>
		</linearGradient>
		<polygon opacity="0.93" fill-rule="evenodd" clip-rule="evenodd" fill="url(#SVGID_18_)" points="332.5,89.6 325.2,95.2 
			329.6,105.4 		"/>
	</g>
	<g>
		<polygon fill-rule="evenodd" clip-rule="evenodd" fill="#0E5CA8" points="508.5,49.9 505.9,42.8 501.6,50.8 		"/>
		
			<linearGradient id="SVGID_19_" gradientUnits="userSpaceOnUse" x1="-334.6319" y1="-115.2882" x2="-325.4738" y2="-122.7043" gradientTransform="matrix(-1 0 0 -1 173.8954 -69.621)">
			<stop  offset="0" style="stop-color:#009844"/>
			<stop  offset="1" style="stop-color:#B4CD22"/>
		</linearGradient>
		<polygon opacity="0.93" fill-rule="evenodd" clip-rule="evenodd" fill="url(#SVGID_19_)" points="508.5,49.9 506.8,42.8 
			501.6,50.8 		"/>
	</g>
	<g>
		<polygon fill-rule="evenodd" clip-rule="evenodd" fill="#0E5CA8" points="438.9,116.9 436.8,111.1 433.3,117.6 		"/>
		
			<linearGradient id="SVGID_20_" gradientUnits="userSpaceOnUse" x1="-265.0407" y1="-183.0595" x2="-257.6066" y2="-189.0795" gradientTransform="matrix(-1 0 0 -1 173.8954 -69.621)">
			<stop  offset="0" style="stop-color:#009844"/>
			<stop  offset="1" style="stop-color:#B4CD22"/>
		</linearGradient>
		<polygon opacity="0.93" fill-rule="evenodd" clip-rule="evenodd" fill="url(#SVGID_20_)" points="438.9,116.9 437.5,111.1 
			433.3,117.6 		"/>
	</g>
	<g>
		<polygon fill-rule="evenodd" clip-rule="evenodd" fill="#0E5CA8" points="364.2,35.8 361.6,28.7 357.2,36.7 		"/>
		
			<linearGradient id="SVGID_21_" gradientUnits="userSpaceOnUse" x1="-190.3105" y1="-101.1241" x2="-181.1525" y2="-108.5401" gradientTransform="matrix(-1 0 0 -1 173.8954 -69.621)">
			<stop  offset="0" style="stop-color:#009844"/>
			<stop  offset="1" style="stop-color:#B4CD22"/>
		</linearGradient>
		<polygon opacity="0.93" fill-rule="evenodd" clip-rule="evenodd" fill="url(#SVGID_21_)" points="364.2,35.8 362.5,28.7 
			357.2,36.7 		"/>
	</g>
	<g>
		<polygon fill-rule="evenodd" clip-rule="evenodd" fill="#0E5CA8" points="319.4,75 316.8,67.9 312.4,75.9 		"/>
		
			<linearGradient id="SVGID_22_" gradientUnits="userSpaceOnUse" x1="-145.5021" y1="-140.3883" x2="-136.344" y2="-147.8044" gradientTransform="matrix(-1 0 0 -1 173.8954 -69.621)">
			<stop  offset="0" style="stop-color:#009844"/>
			<stop  offset="1" style="stop-color:#B4CD22"/>
		</linearGradient>
		<polygon opacity="0.93" fill-rule="evenodd" clip-rule="evenodd" fill="url(#SVGID_22_)" points="319.4,75 317.7,67.9 312.4,75.9 
					"/>
	</g>
	<g>
		<polygon fill-rule="evenodd" clip-rule="evenodd" fill="#2B3279" points="314.5,46.7 306.5,50.8 311.6,62.5 		"/>
		
			<linearGradient id="SVGID_23_" gradientUnits="userSpaceOnUse" x1="-145.0879" y1="-124.2296" x2="-131.4874" y2="-124.2296" gradientTransform="matrix(-1 0 0 -1 173.8954 -69.621)">
			<stop  offset="0" style="stop-color:#6BB532"/>
			<stop  offset="1" style="stop-color:#F3E722"/>
		</linearGradient>
		<polygon opacity="0.93" fill-rule="evenodd" clip-rule="evenodd" fill="url(#SVGID_23_)" points="314.5,46.7 307.2,52.4 
			311.6,62.5 		"/>
	</g>
	<g>
		<polygon fill-rule="evenodd" clip-rule="evenodd" fill="#2B3279" points="302.3,72 298.4,64.2 294.8,72.9 		"/>
		
			<linearGradient id="SVGID_24_" gradientUnits="userSpaceOnUse" x1="-127.2545" y1="-137.4571" x2="-117.0149" y2="-145.749" gradientTransform="matrix(-1 0 0 -1 173.8954 -69.621)">
			<stop  offset="0" style="stop-color:#40B2E7"/>
			<stop  offset="1" style="stop-color:#FFFFFF"/>
		</linearGradient>
		<polygon opacity="0.93" fill-rule="evenodd" clip-rule="evenodd" fill="url(#SVGID_24_)" points="302.3,72 297.9,65.4 294.8,72.9 
					"/>
	</g>
	<g>
		<polygon fill-rule="evenodd" clip-rule="evenodd" fill="#2B3279" points="271.3,33 267.4,25.2 263.8,34 		"/>
		
			<linearGradient id="SVGID_25_" gradientUnits="userSpaceOnUse" x1="-96.2574" y1="-98.4891" x2="-86.0177" y2="-106.781" gradientTransform="matrix(-1 0 0 -1 173.8954 -69.621)">
			<stop  offset="0" style="stop-color:#40B2E7"/>
			<stop  offset="1" style="stop-color:#FFFFFF"/>
		</linearGradient>
		<polygon opacity="0.93" fill-rule="evenodd" clip-rule="evenodd" fill="url(#SVGID_25_)" points="271.3,33 266.9,26.5 263.8,34 		
			"/>
	</g>
	<g>
		<polygon fill-rule="evenodd" clip-rule="evenodd" fill="#2B3279" points="323.3,207.8 315.2,211.9 320.3,223.7 		"/>
		
			<linearGradient id="SVGID_26_" gradientUnits="userSpaceOnUse" x1="-153.8268" y1="-285.3759" x2="-140.2274" y2="-285.3759" gradientTransform="matrix(-1 0 0 -1 173.8954 -69.621)">
			<stop  offset="0" style="stop-color:#E30519"/>
			<stop  offset="1" style="stop-color:#F3E722"/>
		</linearGradient>
		<polygon opacity="0.93" fill-rule="evenodd" clip-rule="evenodd" fill="url(#SVGID_26_)" points="323.3,207.8 316,213.5 
			320.3,223.7 		"/>
	</g>
	<g>
		<polygon fill-rule="evenodd" clip-rule="evenodd" fill="#2B3279" points="296.2,296.9 289.5,283.6 283.4,298.6 		"/>
		
			<linearGradient id="SVGID_27_" gradientUnits="userSpaceOnUse" x1="-119.0816" y1="-360.6063" x2="-107.5012" y2="-369.02" gradientTransform="matrix(-1 0 0 -1 173.8954 -69.621)">
			<stop  offset="0" style="stop-color:#E30519"/>
			<stop  offset="1" style="stop-color:#FBEA26"/>
		</linearGradient>
		<polygon opacity="0.93" fill-rule="evenodd" clip-rule="evenodd" fill="url(#SVGID_27_)" points="296.2,296.9 288.8,285.7 
			283.4,298.6 		"/>
	</g>
	<g>
		<polygon fill-rule="evenodd" clip-rule="evenodd" fill="#2B3279" points="485.3,60.6 477.3,64.7 482.4,76.4 		"/>
		
			<linearGradient id="SVGID_28_" gradientUnits="userSpaceOnUse" x1="-315.877" y1="-138.1532" x2="-302.2772" y2="-138.1532" gradientTransform="matrix(-1 0 0 -1 173.8954 -69.621)">
			<stop  offset="0" style="stop-color:#6BB532"/>
			<stop  offset="1" style="stop-color:#F3E722"/>
		</linearGradient>
		<polygon opacity="0.93" fill-rule="evenodd" clip-rule="evenodd" fill="url(#SVGID_28_)" points="485.3,60.6 478,66.3 482.4,76.4 
					"/>
	</g>
	<defs>
		<filter id="Adobe_OpacityMaskFilter" filterUnits="userSpaceOnUse" x="208.2" y="134.3" width="111.1" height="179.7">
			<feFlood  style="flood-color:white;flood-opacity:1" result="back"/>
			<feBlend  in="SourceGraphic" in2="back" mode="normal"/>
		</filter>
	</defs>
	<mask maskUnits="userSpaceOnUse" x="208.2" y="134.3" width="111.1" height="179.7" id="SVGID_29_">
		<g filter="url(#Adobe_OpacityMaskFilter)">
			<defs>
				<filter id="Adobe_OpacityMaskFilter_1_" filterUnits="userSpaceOnUse" x="208.2" y="134.3" width="111.1" height="179.7">
					<feFlood  style="flood-color:white;flood-opacity:1" result="back"/>
					<feBlend  in="SourceGraphic" in2="back" mode="normal"/>
				</filter>
			</defs>
			<mask maskUnits="userSpaceOnUse" x="208.2" y="134.3" width="111.1" height="179.7" id="SVGID_29_">
				<g filter="url(#Adobe_OpacityMaskFilter_1_)">
				</g>
			</mask>
			
				<radialGradient id="SVGID_30_" cx="-63.9036" cy="-28.5692" r="32.4034" gradientTransform="matrix(-1.7151 0 0 -2.7722 154.2058 144.9346)" gradientUnits="userSpaceOnUse">
				<stop  offset="0" style="stop-color:#CCCCCC"/>
				<stop  offset="1" style="stop-color:#000000"/>
			</radialGradient>
			
				<ellipse mask="url(#SVGID_29_)" fill-rule="evenodd" clip-rule="evenodd" fill="url(#SVGID_30_)" cx="263.8" cy="224.1" rx="55.6" ry="89.8"/>
		</g>
	</mask>
	
		<radialGradient id="SVGID_31_" cx="-63.9036" cy="-28.5692" r="32.4034" gradientTransform="matrix(-1.7151 0 0 -2.7722 154.2058 144.9346)" gradientUnits="userSpaceOnUse">
		<stop  offset="0" style="stop-color:#F4E600"/>
		<stop  offset="1" style="stop-color:#F9E92D"/>
	</radialGradient>
	<ellipse fill-rule="evenodd" clip-rule="evenodd" fill="url(#SVGID_31_)" cx="263.8" cy="224.1" rx="55.6" ry="89.8"/>
	
		<linearGradient id="SVGID_32_" gradientUnits="userSpaceOnUse" x1="-1229.7521" y1="1100.0469" x2="-79.6705" y2="-371.9904" gradientTransform="matrix(-1 0 0 -1 173.8954 -69.621)">
		<stop  offset="0" style="stop-color:#6BB532"/>
		<stop  offset="1" style="stop-color:#B4CD22"/>
	</linearGradient>
	<path fill-rule="evenodd" clip-rule="evenodd" fill="url(#SVGID_32_)" d="M339.2,21.3h15.4c75.5,68.9,151.9,65.8,202.3,51.3v12.9
		C502.6,100.8,419.7,102.7,339.2,21.3z"/>
	<path fill-rule="evenodd" clip-rule="evenodd" fill="#FFFFFF" d="M225,313.4c0,0,102.9-42,166.7-133.3
		c50.5-72.3,39.1-158.8,39.1-158.8l-261.3,0v292.7L225,313.4z"/>
	<linearGradient id="SVGID_33_" gradientUnits="userSpaceOnUse" x1="-30.1741" y1="267.615" x2="267.5341" y2="267.615">
		<stop  offset="0" style="stop-color:#40B2E7"/>
		<stop  offset="1" style="stop-color:#1989CB"/>
	</linearGradient>
	<path opacity="0.7" fill-rule="evenodd" clip-rule="evenodd" fill="url(#SVGID_33_)" d="M267.5,292.8c-24-15.6-95.9-56.9-185-63.9
		c-89.1-7-112.7,4.4-112.7,4.4v35c0,0,45.4-14.3,124.2-6.4c78.8,7.9,144.8,46.7,144.8,46.7L267.5,292.8z"/>
	<linearGradient id="SVGID_34_" gradientUnits="userSpaceOnUse" x1="-151.9142" y1="298.6432" x2="396.3795" y2="325.794">
		<stop  offset="0" style="stop-color:#FBEA26"/>
		<stop  offset="0.1552" style="stop-color:#F8D526"/>
		<stop  offset="0.4992" style="stop-color:#F09821"/>
		<stop  offset="1" style="stop-color:#E30519"/>
	</linearGradient>
	<path fill-rule="evenodd" clip-rule="evenodd" fill="url(#SVGID_34_)" d="M225,313.4c-58.7,0-255.2,0.6-255.2,0.6s54.9-11,90.6-8.9
		s178.4,3.6,178.4,3.6L225,313.4z"/>
	<g>
		<linearGradient id="SVGID_35_" gradientUnits="userSpaceOnUse" x1="139.7537" y1="113.1075" x2="5.2681" y2="110.7601">
			<stop  offset="0" style="stop-color:#4EB15F"/>
			<stop  offset="0.45" style="stop-color:#F3E722"/>
			<stop  offset="1" style="stop-color:#E30519"/>
		</linearGradient>
		<path fill-rule="evenodd" clip-rule="evenodd" fill="url(#SVGID_35_)" d="M-15.8,111.4c1.1,5.2,19.4,11.5,43.9,11
			c14-0.3,36.7-4.1,51.4-10.2c14.4-6,37.2-1.1,37.2-1.1s-6-3.5-20.7-5.6c-14.7-2.1-38.2-2.8-56.5-4.7
			C2.9,97.1-17.2,104.8-15.8,111.4z"/>
		<linearGradient id="SVGID_36_" gradientUnits="userSpaceOnUse" x1="179.9012" y1="186.6759" x2="-118.3239" y2="53.8975">
			<stop  offset="0" style="stop-color:#2B3279"/>
			<stop  offset="1" style="stop-color:#39BDEF"/>
		</linearGradient>
		<path fill-rule="evenodd" clip-rule="evenodd" fill="url(#SVGID_36_)" d="M-15.6,115.9c21.4,15.5,76.3,9.9,94.7,0.4
			c10.4-5.9,23.2-4.8,23.2-4.8s-20.6,3.3-23.4,14.8c0,0.2-0.1,0.4-0.1,0.6l0,0l0,0c-1.9,8.4-6.8,19.4-19.7,25.1
			C36.6,162-12.7,157.6-15.6,115.9z"/>
		<linearGradient id="SVGID_37_" gradientUnits="userSpaceOnUse" x1="32.3402" y1="83.0704" x2="173.2589" y2="28.9768">
			<stop  offset="0" style="stop-color:#1989CB"/>
			<stop  offset="1" style="stop-color:#39BDEF"/>
		</linearGradient>
		<path fill-rule="evenodd" clip-rule="evenodd" fill="url(#SVGID_37_)" d="M-8.4,107.6c-3.3-2.6-5.2-6.5-6-9.3
			c-1.2-4.2-0.2-8.1,0.7-10c0.1-0.2,0.2-0.4,0.3-0.6c2.1-4.9,11.4-27,50.2-19.6c10.3,2,18.5,3.9,25.5,5.5
			c51.7,12,74.2-9.7,92.5-36.8c0,0.1-16.5,31.1-42.8,39.8c-18,5.7-29.7,4.1-50.2-0.7c-7-1.6-15.2-3.5-25.4-5.5
			c-37-7-45.7,13.7-47.6,18.2c-0.1,0.3-0.2,0.5-0.3,0.6c-0.7,1.6-1.6,4.9-0.6,8.4c0.7,2.4,1.9,4.6,4.8,6.9L-8.4,107.6z"/>
		<linearGradient id="SVGID_38_" gradientUnits="userSpaceOnUse" x1="138.0585" y1="269.9226" x2="32.0429" y2="196.1726">
			<stop  offset="0" style="stop-color:#203C77"/>
			<stop  offset="1" style="stop-color:#6EC6DA"/>
		</linearGradient>
		<path fill-rule="evenodd" clip-rule="evenodd" fill="url(#SVGID_38_)" d="M15.9,156.7c0,0,21.1,5,39.6-0.8
			c-1.6,34.1,1.8,80.1,18.1,109.9c10,18.2,22.4,23.3,21.8,26.4c-0.4,2.3-15.7-4.3-32.1-18.9C33.4,246.7,16.6,199.3,15.9,156.7z"/>
		<linearGradient id="SVGID_39_" gradientUnits="userSpaceOnUse" x1="39.4995" y1="161.2921" x2="12.6568" y2="267.5787">
			<stop  offset="0" style="stop-color:#F3E722"/>
			<stop  offset="1" style="stop-color:#E9620B"/>
		</linearGradient>
		<path fill-rule="evenodd" clip-rule="evenodd" fill="url(#SVGID_39_)" d="M15.9,156.7c0,0,21.1,5,39.6-0.8
			c-0.6,11.8-0.5,25,0.5,38.5c-5.6,19.8-10.3,34-17.1,48C24.3,217,16.4,185.7,15.9,156.7z"/>
		<linearGradient id="SVGID_40_" gradientUnits="userSpaceOnUse" x1="67.7768" y1="201.3741" x2="26.8347" y2="158.8052">
			<stop  offset="0" style="stop-color:#4EB15F"/>
			<stop  offset="1" style="stop-color:#007441"/>
		</linearGradient>
		<path fill-rule="evenodd" clip-rule="evenodd" fill="url(#SVGID_40_)" d="M15.9,156.7c0,0,21.1,5,39.6-0.8
			c-1,20.9-0.1,46.3,4.5,69.7C43.6,210.7,20.4,180.2,15.9,156.7z"/>
		<path fill-rule="evenodd" clip-rule="evenodd" fill="#020203" d="M74.7,110.9c-2.4,1.8-38.5,11.8-63.1,9.6
			c-24.6-2.2-27.2-12.2-8.3-15C22.1,102.8,58.9,105.6,74.7,110.9z"/>
		<linearGradient id="SVGID_41_" gradientUnits="userSpaceOnUse" x1="33.9847" y1="96.5383" x2="33.9847" y2="123.4376">
			<stop  offset="0" style="stop-color:#F3E722"/>
			<stop  offset="1" style="stop-color:#E30519"/>
		</linearGradient>
		<path fill-rule="evenodd" clip-rule="evenodd" fill="url(#SVGID_41_)" d="M74.7,111.2c-2.3,1.7-37.4,11.4-61.3,9.3
			c-23.9-2.1-26.4-11.9-8.1-14.6C23.6,103.2,59.3,106,74.7,111.2z"/>
		<path fill-rule="evenodd" clip-rule="evenodd" fill="#E30519" d="M10.5,120.2c1.3-10.9-22.4-11.3-23.6-35.5s24.4-49.5,52-47.6
			c27.6,2,43.2,4.4,60.3-8.8c0,0-14.6,18.1-40.5,16.8C32.8,43.9,32,55.7,32,55.7s8.3,2.2,14.9-0.5c6.6-2.7,12-3.2,19.5-1.2
			c0,0-12.7-1-20,7.8c-7.3,8.8-12.7,7.8-12.7,7.8s9.8-0.7,16.1-4.4c6.3-3.7,11.7-9,26.6-7.3c14.9,1.7,26.4-6.1,26.4-6.1
			S94.7,61.5,79.4,62C64,62.5,53.5,70.5,51.8,79.8c-1.7,9.3,16.3,27.4,8.4,35.5c0,0-21.7,4.7-31,5.1
			C19.8,120.8,10.5,120.2,10.5,120.2z"/>
		<linearGradient id="SVGID_42_" gradientUnits="userSpaceOnUse" x1="6.4077" y1="21.3036" x2="31.9397" y2="141.4222">
			<stop  offset="0" style="stop-color:#F3E722"/>
			<stop  offset="1" style="stop-color:#E30519"/>
		</linearGradient>
		<path fill-rule="evenodd" clip-rule="evenodd" fill="url(#SVGID_42_)" d="M31.4,120.1c9.4-1.1,20-7.1,13.3-18.8
			c-6.6-11.8-3.2-20.3-1-24c0,0-8.7,6.6-8.7,12.7c0,0-7.4-0.3-4.3-11.2C33.9,67.8,37.6,61,37.6,61s-4.5,4.8-12,11.6
			c-7.4,6.8-9.9,9.9-10,17.3s-4.9,1.6-7.3-8.8C3.9,62.4,17.5,50.3,27.9,43c0,0-11.6,4.5-23.1,17S-9.9,82-0.6,95.2
			c9.3,13.2,27.1,13.1,26.2,20.1c-0.9,7-11.4,5.1-12.3,5.2C12.5,120.6,26.7,121.5,31.4,120.1z"/>
		<defs>
			<filter id="Adobe_OpacityMaskFilter_2_" filterUnits="userSpaceOnUse" x="-9.2" y="39" width="59.6" height="80.7">
				<feFlood  style="flood-color:white;flood-opacity:1" result="back"/>
				<feBlend  in="SourceGraphic" in2="back" mode="normal"/>
			</filter>
		</defs>
		<mask maskUnits="userSpaceOnUse" x="-9.2" y="39" width="59.6" height="80.7" id="SVGID_43_">
			<g filter="url(#Adobe_OpacityMaskFilter_2_)">
				<defs>
					<filter id="Adobe_OpacityMaskFilter_3_" filterUnits="userSpaceOnUse" x="-9.2" y="39" width="59.6" height="80.7">
						<feFlood  style="flood-color:white;flood-opacity:1" result="back"/>
						<feBlend  in="SourceGraphic" in2="back" mode="normal"/>
					</filter>
				</defs>
				<mask maskUnits="userSpaceOnUse" x="-9.2" y="39" width="59.6" height="80.7" id="SVGID_43_">
					<g filter="url(#Adobe_OpacityMaskFilter_3_)">
					</g>
				</mask>
				<linearGradient id="SVGID_44_" gradientUnits="userSpaceOnUse" x1="-46.1514" y1="6.548" x2="53.8744" y2="97.8518">
					<stop  offset="0" style="stop-color:#FFFFFF"/>
					<stop  offset="9.259625e-02" style="stop-color:#F9F9F9"/>
					<stop  offset="0.2178" style="stop-color:#E8E8E8"/>
					<stop  offset="0.3617" style="stop-color:#CBCBCB"/>
					<stop  offset="0.5197" style="stop-color:#A4A4A4"/>
					<stop  offset="0.6891" style="stop-color:#717171"/>
					<stop  offset="0.8651" style="stop-color:#343434"/>
					<stop  offset="1" style="stop-color:#000000"/>
				</linearGradient>
				<path mask="url(#SVGID_43_)" fill-rule="evenodd" clip-rule="evenodd" fill="url(#SVGID_44_)" d="M50.4,39.3
					C26.3,37.3,9.8,45.3-1.9,61.2c-11.7,16-8.7,35.4,4.8,45.3c13.5,9.8,17.5,9.8,17.5,9.8s16.6,14.5,12.4-16.5
					c-4.3-31-8.5-26.7-4.8-42.9C31.7,40.8,50.4,39.3,50.4,39.3z"/>
			</g>
		</mask>
		<linearGradient id="SVGID_45_" gradientUnits="userSpaceOnUse" x1="-46.1514" y1="6.548" x2="53.8744" y2="97.8518">
			<stop  offset="0" style="stop-color:#FFFFFF"/>
			<stop  offset="9.259625e-02" style="stop-color:#FFFBF9"/>
			<stop  offset="0.2178" style="stop-color:#FDEEE8"/>
			<stop  offset="0.3617" style="stop-color:#FAD8CD"/>
			<stop  offset="0.5197" style="stop-color:#F4B8A6"/>
			<stop  offset="0.6891" style="stop-color:#ED8B75"/>
			<stop  offset="0.8651" style="stop-color:#E45042"/>
			<stop  offset="1" style="stop-color:#DC0C22"/>
		</linearGradient>
		<path fill-rule="evenodd" clip-rule="evenodd" fill="url(#SVGID_45_)" d="M50.4,39.3C26.3,37.3,9.8,45.3-1.9,61.2
			c-11.7,16-8.7,35.4,4.8,45.3c13.5,9.8,17.5,9.8,17.5,9.8s16.6,14.5,12.4-16.5c-4.3-31-8.5-26.7-4.8-42.9
			C31.7,40.8,50.4,39.3,50.4,39.3z"/>
		<defs>
			<filter id="Adobe_OpacityMaskFilter_4_" filterUnits="userSpaceOnUse" x="0.1" y="39.3" width="52.8" height="77.9">
				<feFlood  style="flood-color:white;flood-opacity:1" result="back"/>
				<feBlend  in="SourceGraphic" in2="back" mode="normal"/>
			</filter>
		</defs>
		<mask maskUnits="userSpaceOnUse" x="0.1" y="39.3" width="52.8" height="77.9" id="SVGID_46_">
			<g filter="url(#Adobe_OpacityMaskFilter_4_)">
				<defs>
					<filter id="Adobe_OpacityMaskFilter_5_" filterUnits="userSpaceOnUse" x="0.1" y="39.3" width="52.8" height="77.9">
						<feFlood  style="flood-color:white;flood-opacity:1" result="back"/>
						<feBlend  in="SourceGraphic" in2="back" mode="normal"/>
					</filter>
				</defs>
				<mask maskUnits="userSpaceOnUse" x="0.1" y="39.3" width="52.8" height="77.9" id="SVGID_46_">
					<g filter="url(#Adobe_OpacityMaskFilter_5_)">
					</g>
				</mask>
				<linearGradient id="SVGID_47_" gradientUnits="userSpaceOnUse" x1="12.4479" y1="17.6603" x2="37.9799" y2="137.779">
					<stop  offset="0" style="stop-color:#666666"/>
					<stop  offset="1" style="stop-color:#000000"/>
				</linearGradient>
				<path mask="url(#SVGID_46_)" fill-rule="evenodd" clip-rule="evenodd" fill="url(#SVGID_47_)" d="M37.4,116.4
					c9.4-1.1,20-7.1,13.3-18.8c-6.6-11.8-3.2-20.3-1-24c0,0-8.7,6.6-8.7,12.7c0,0-7.4-0.3-4.3-11.2c3.1-10.9,6.8-17.7,6.8-17.7
					s-4.5,4.8-12,11.6c-7.4,6.8-9.9,9.9-10,17.3c-0.1,7.4-4.9,1.6-7.3-8.8C10,58.7,23.5,46.6,33.9,39.3c0,0-11.6,4.5-23.1,17
					C-0.6,68.7-3.8,78.4,5.5,91.5s27.1,13.1,26.2,20.1c-0.9,7-11.4,5.1-12.3,5.2C18.6,116.9,32.7,117.9,37.4,116.4z"/>
			</g>
		</mask>
		<linearGradient id="SVGID_48_" gradientUnits="userSpaceOnUse" x1="12.4479" y1="17.6603" x2="37.9799" y2="137.779">
			<stop  offset="0" style="stop-color:#E30519"/>
			<stop  offset="1" style="stop-color:#F3E722"/>
		</linearGradient>
		<path fill-rule="evenodd" clip-rule="evenodd" fill="url(#SVGID_48_)" d="M37.4,116.4c9.4-1.1,20-7.1,13.3-18.8
			c-6.6-11.8-3.2-20.3-1-24c0,0-8.7,6.6-8.7,12.7c0,0-7.4-0.3-4.3-11.2c3.1-10.9,6.8-17.7,6.8-17.7s-4.5,4.8-12,11.6
			c-7.4,6.8-9.9,9.9-10,17.3c-0.1,7.4-4.9,1.6-7.3-8.8C10,58.7,23.5,46.6,33.9,39.3c0,0-11.6,4.5-23.1,17
			C-0.6,68.7-3.8,78.4,5.5,91.5s27.1,13.1,26.2,20.1c-0.9,7-11.4,5.1-12.3,5.2C18.6,116.9,32.7,117.9,37.4,116.4z"/>
		<linearGradient id="SVGID_49_" gradientUnits="userSpaceOnUse" x1="2964.8271" y1="-2862.959" x2="-3996.3413" y2="4098.2095">
			<stop  offset="0" style="stop-color:#F3E722"/>
			<stop  offset="1" style="stop-color:#6BB532"/>
		</linearGradient>
		<path fill-rule="evenodd" clip-rule="evenodd" fill="url(#SVGID_49_)" d="M10.5,120.2c-7.5-1-15.7-6-6.1-18.2
			c9.6-12.2,31.5-15.9,39.2-37.3c7.8-21.4-1-34.3-1-34.3s9,20.7-6.1,35.1C24.7,76.8-40,113.2,10.5,120.2z"/>
		<linearGradient id="SVGID_50_" gradientUnits="userSpaceOnUse" x1="85.6383" y1="99.7056" x2="84.5537" y2="56.5944">
			<stop  offset="0" style="stop-color:#037040"/>
			<stop  offset="1" style="stop-color:#6BB532"/>
		</linearGradient>
		<path fill-rule="evenodd" clip-rule="evenodd" fill="url(#SVGID_50_)" d="M36.5,119.8c-3.3-4.2-6.5-8.7-10.3-12.4
			c-5.5-5.4-10.9-10.5-14.1-16.5c-1.2-2.1-2-4.5-2.5-6.8c-1.4-6-0.8-12.5,1.6-18.3c2.4-5.8,6.6-10.9,12.4-14c2.1-1.1,4.4-2,6.9-2.6
			c12.2-2.8,26.8,2.5,42.1,8.1c13.5,4.9,27.5,10,40.8,9.8c27.1-0.2,38.2-9.8,47.2-19.8c0,0.1-11.8,21.8-47.2,22.1
			c-13.7,0.1-27.9-5-41.6-10c-15-5.4-29.2-10.6-40.8-8c-2.3,0.5-4.4,1.3-6.4,2.4c-5.3,2.9-9.1,7.5-11.3,12.8
			C11.1,72,10.6,78,11.8,83.5c0.5,2.2,1.3,4.3,2.3,6.3c3,5.6,8.3,10.7,13.7,15.9c3.9,3.8,9.5,9.3,12.9,13.6L36.5,119.8z"/>
		<linearGradient id="SVGID_51_" gradientUnits="userSpaceOnUse" x1="-0.7905" y1="84.0953" x2="161.5992" y2="43.607">
			<stop  offset="0" style="stop-color:#E9620B"/>
			<stop  offset="1" style="stop-color:#F3E722"/>
		</linearGradient>
		<path fill-rule="evenodd" clip-rule="evenodd" fill="url(#SVGID_51_)" d="M-6.2,102.2c0,0-11.1-0.3-14.8-8.1
			c-1.1-2.2-1.3-5.7-0.5-9.4c0.6-2.7,1.8-5.4,3.7-8c1.9-2.5,4.5-4.8,7.9-6.5c5.6-2.7,13.3-3.6,23.9-1.3c1.9,0.4,3,0.7,4,0.9
			c27.4,6.3,47.3,10.8,72.5-4.1c0.9,0.2,1.7,0.5,2.6,0.7c-26.6,16.5-47.1,11.8-75.5,5.3c-1.6-0.4-3.2-0.7-4-0.9
			C3.4,68.5-3.9,69.4-9.1,71.9c-3.1,1.5-5.5,3.6-7.2,5.9c-1.7,2.3-2.8,4.8-3.3,7.3c-0.8,3.3-0.5,6.3,0.4,8.2
			c3.3,6.8,11.5,7.1,11.5,7.1L-6.2,102.2L-6.2,102.2z M93.1,64c0.8-0.5,1.6-1,2.4-1.6c12.1-8.2,21.3-12.8,28.4-15.2
			c10.4-3.6,16.1-2.4,18.7-0.6c-13.5-4.5-32.8,8.6-45.9,17.5c-0.3,0.2-0.6,0.4-0.9,0.6C94.8,64.5,94,64.3,93.1,64z"/>
		<linearGradient id="SVGID_52_" gradientUnits="userSpaceOnUse" x1="-56.2491" y1="91.6735" x2="157.3092" y2="148.8963">
			<stop  offset="0" style="stop-color:#1989CB"/>
			<stop  offset="1" style="stop-color:#203C77"/>
		</linearGradient>
		<path fill-rule="evenodd" clip-rule="evenodd" fill="url(#SVGID_52_)" d="M46.5,118.3c0,0-5.8-5.9-21.5-6
			c-6.9-0.1-10.7,0.4-13.6,0.8c-3.7,0.5-6.3,0.8-11.3-0.5c-0.1-1,0-2,0.3-3.2c4.8,1.3,7.2,1.2,10.7,0.8c2.9-0.4,6.8-0.8,13.9-0.8
			c17,0.2,26.6,8,26.6,8L46.5,118.3z"/>
		<linearGradient id="SVGID_53_" gradientUnits="userSpaceOnUse" x1="67.7" y1="374.0549" x2="26.2826" y2="112.5556">
			<stop  offset="0" style="stop-color:#1989CB"/>
			<stop  offset="1" style="stop-color:#39BDEF"/>
		</linearGradient>
		<path fill-rule="evenodd" clip-rule="evenodd" fill="url(#SVGID_53_)" d="M55.1,170.3c4.6,2.2,3.8,7.4,2.8,11.6
			c-1.2,5.1-3.7,11.5-6.9,18.3c-5,10.6-11.7,22.2-17.3,31c-3.7,5.8-5.7,11.6-5.9,17c-0.1,3.5,0.6,6.8,2.2,9.8c1.6,3,4.1,5.7,7.5,7.9
			c5.8,3.7,12.6,5.4,24.1,5.7c0.6,0.5,1.2,1.1,1.7,1.6c0.6,0.6,1.3,1.1,1.9,1.6c-11.6-0.5-22.8-3.6-28.7-7.3
			c-3.8-2.4-6.5-5.3-8.2-8.6c-1.8-3.3-2.5-7-2.4-10.8c0.2-5.7,2.3-11.9,6.2-18c5.6-8.7,12.2-20.2,17.2-30.8
			c3.2-6.7,5.6-12.9,6.8-17.9c1-4.6,1-7.8-0.9-9C55,172.5,55,170.5,55.1,170.3z"/>
		<linearGradient id="SVGID_54_" gradientUnits="userSpaceOnUse" x1="129.9469" y1="304.3541" x2="-41.3461" y2="114.1139">
			<stop  offset="0" style="stop-color:#F3E722"/>
			<stop  offset="1" style="stop-color:#E9620B"/>
		</linearGradient>
		<path fill-rule="evenodd" clip-rule="evenodd" fill="url(#SVGID_54_)" d="M63.6,240.8c2.5-7.4,1-16.8-5.8-26.6
			c-6.2-8.9-16.7-18-32.5-26.2c-17.6-9.1-25.8-18-29.1-25.7c-3.2-7.5-1.5-14.7,0.6-19.1c0.5,0.5,1,0.9,1.5,1.4
			c-1.7,4.1-3.1,10.5-0.3,17c3.1,7.3,11.1,15.8,28.2,24.7c16.2,8.4,26.9,17.7,33.3,26.9c7.1,10.3,10.8,23.3,5.8,32.9
			C64.7,244.4,64.2,242.6,63.6,240.8z"/>
		<linearGradient id="SVGID_55_" gradientUnits="userSpaceOnUse" x1="52.2601" y1="339.7751" x2="36.8837" y2="164.0225">
			<stop  offset="0" style="stop-color:#026337"/>
			<stop  offset="1" style="stop-color:#6BB532"/>
		</linearGradient>
		<path fill-rule="evenodd" clip-rule="evenodd" fill="url(#SVGID_55_)" d="M12.4,152.6c-3.2,9.3-4.3,20.8-2.4,32.4
			c2.1,12.3,7.6,24.5,17.8,33.9c0.6,1.6,1.2,3.1,1.8,4.6c-12.8-10.1-19.6-24.1-22-38.1c-2-11.9-0.8-23.9,2.5-33.6
			C10.9,152.1,11.7,152.4,12.4,152.6L12.4,152.6z M61.6,232.9c5.8,4.5,10.3,11,12.9,18.6c2.1,6,2.9,12.7,2.4,19.7
			c-0.8-1.2-1.6-2.5-2.4-3.8c0-5.4-0.8-10.5-2.4-15.1c-2-5.9-5.3-11.1-9.4-15.1C62.3,235.8,61.9,234.3,61.6,232.9z"/>
		<linearGradient id="SVGID_56_" gradientUnits="userSpaceOnUse" x1="-35.3812" y1="219.7468" x2="676.7049" y2="-336.5958">
			<stop  offset="0" style="stop-color:#39BDEF"/>
			<stop  offset="1" style="stop-color:#2B3279"/>
		</linearGradient>
		<path fill-rule="evenodd" clip-rule="evenodd" fill="url(#SVGID_56_)" d="M16.3,165.5c-0.9,0.5-1.5,1.2-1.9,1.8
			c-0.4,0.6-0.5,1.3-0.4,2c0.1,0.7,0.5,1.4,1.1,2.1c1.2,1.2,3.1,2.2,5.8,2.7c2.3,0.4,4.7,0.5,7.1,0.4c8.2-0.5,17.1-4,24.5-9.5
			c6-4.5,10.9-10.4,13.3-17.1c1.2-0.9,2.3-1.9,3.3-2.9c-2,8.7-7.8,16.3-15.2,21.9c-7.7,5.8-17.1,9.4-25.7,10c-2.7,0.2-5.3,0-7.7-0.4
			c-3.2-0.6-5.6-1.9-7.1-3.4c-1-1-1.6-2.1-1.8-3.3c-0.2-1.2,0-2.4,0.7-3.6c0.7-1.2,2-2.4,3.7-3.2C16.2,163.7,16.2,164.6,16.3,165.5z
			"/>
		<defs>
			<filter id="Adobe_OpacityMaskFilter_6_" filterUnits="userSpaceOnUse" x="-12.5" y="119.8" width="69.1" height="33.6">
				<feFlood  style="flood-color:white;flood-opacity:1" result="back"/>
				<feBlend  in="SourceGraphic" in2="back" mode="normal"/>
			</filter>
		</defs>
		<mask maskUnits="userSpaceOnUse" x="-12.5" y="119.8" width="69.1" height="33.6" id="SVGID_57_">
			<g filter="url(#Adobe_OpacityMaskFilter_6_)">
				<defs>
					<filter id="Adobe_OpacityMaskFilter_7_" filterUnits="userSpaceOnUse" x="-12.5" y="119.8" width="69.1" height="33.6">
						<feFlood  style="flood-color:white;flood-opacity:1" result="back"/>
						<feBlend  in="SourceGraphic" in2="back" mode="normal"/>
					</filter>
				</defs>
				<mask maskUnits="userSpaceOnUse" x="-12.5" y="119.8" width="69.1" height="33.6" id="SVGID_57_">
					<g filter="url(#Adobe_OpacityMaskFilter_7_)">
					</g>
				</mask>
				<linearGradient id="SVGID_58_" gradientUnits="userSpaceOnUse" x1="-35.3498" y1="108.7549" x2="38.6638" y2="141.7078">
					<stop  offset="0" style="stop-color:#FFFFFF"/>
					<stop  offset="0.1097" style="stop-color:#DBDBDB"/>
					<stop  offset="0.3592" style="stop-color:#8E8E8E"/>
					<stop  offset="0.5819" style="stop-color:#515151"/>
					<stop  offset="0.7695" style="stop-color:#252525"/>
					<stop  offset="0.9147" style="stop-color:#0A0A0A"/>
					<stop  offset="1" style="stop-color:#000000"/>
				</linearGradient>
				<path mask="url(#SVGID_57_)" fill-rule="evenodd" clip-rule="evenodd" fill="url(#SVGID_58_)" d="M47.8,127.1
					c0,0-13,3.7-31.4,0.8c-18.5-2.9-28.9-8.2-28.9-8.2s0.5,13.6,14.9,23.9c14.4,10.4,33.9,10.4,42.5,8.8
					C53.5,151,64.8,130.5,47.8,127.1z"/>
			</g>
		</mask>
		<linearGradient id="SVGID_59_" gradientUnits="userSpaceOnUse" x1="-35.3498" y1="108.7549" x2="38.6638" y2="141.7078">
			<stop  offset="0" style="stop-color:#FFFFFF"/>
			<stop  offset="0.2395" style="stop-color:#CAD9F1"/>
			<stop  offset="0.5017" style="stop-color:#91B6E1"/>
			<stop  offset="0.7253" style="stop-color:#5D9DD5"/>
			<stop  offset="0.8984" style="stop-color:#338ECE"/>
			<stop  offset="1" style="stop-color:#1989CB"/>
		</linearGradient>
		<path fill-rule="evenodd" clip-rule="evenodd" fill="url(#SVGID_59_)" d="M47.8,127.1c0,0-13,3.7-31.4,0.8
			c-18.5-2.9-28.9-8.2-28.9-8.2s0.5,13.6,14.9,23.9c14.4,10.4,33.9,10.4,42.5,8.8C53.5,151,64.8,130.5,47.8,127.1z"/>
	</g>
	<linearGradient id="SVGID_60_" gradientUnits="userSpaceOnUse" x1="-30.1741" y1="281.4101" x2="328.5739" y2="281.4101">
		<stop  offset="0" style="stop-color:#FBEA26"/>
		<stop  offset="1" style="stop-color:#4EAE36"/>
	</linearGradient>
	<path fill-rule="evenodd" clip-rule="evenodd" fill="url(#SVGID_60_)" d="M314.8,259.9C163.6,251.5,51,314,51,314l-81.2,0.1
		c0,0,157.2-79.8,358.7-62.9L314.8,259.9z"/>
</g>
<g id="Calque_3">
	
		<linearGradient id="SVGID_61_" gradientUnits="userSpaceOnUse" x1="-462.2528" y1="-207.7999" x2="-228.408" y2="-209.2539" gradientTransform="matrix(-1 0 0 1 173.8954 26.1925)">
		<stop  offset="0" style="stop-color:#14813D"/>
		<stop  offset="0.9947" style="stop-color:#BFD119"/>
	</linearGradient>
	<path fill-rule="evenodd" clip-rule="evenodd" fill="url(#SVGID_61_)" d="M630.9-213.6c0,0-60,73.4-128,62
		c-68-11.5-111.1-56.7-149.7-62c49.8,0.6,90.1,30.1,140.4,28.8c32.3-0.8,66.2-10.2,88.9-28.8h33.5H630.9z"/>
	<path fill-rule="evenodd" clip-rule="evenodd" fill="#026337" d="M630.9-204.8c0,0-55.9,56.1-110.1,54.3l-0.2,0
		c60.4-2,110.3-63.1,110.3-63.1V-204.8z"/>
	
		<linearGradient id="SVGID_62_" gradientUnits="userSpaceOnUse" x1="11463.5684" y1="-5968.249" x2="-4354.2217" y2="1746.6024" gradientTransform="matrix(-1 0 0 1 173.8954 26.1925)">
		<stop  offset="0" style="stop-color:#40B2E7"/>
		<stop  offset="1" style="stop-color:#1989CB"/>
	</linearGradient>
	<path opacity="0.7" fill-rule="evenodd" clip-rule="evenodd" fill="url(#SVGID_62_)" d="M449.3-213.6
		c55.8,0,138.8,41.8,181.7,121.8v-47.6c0,0-50.8-61.4-109.6-74.2h-37.5H449.3z"/>
	<path fill-rule="evenodd" clip-rule="evenodd" fill="#3173B9" d="M630.9-91.8v12.7c0,0-42-84.3-115.9-119.2
		C558.3-179.6,603.1-143.8,630.9-91.8z"/>
	<g>
		<polygon fill-rule="evenodd" clip-rule="evenodd" fill="#0E5CA8" points="580.6,-89.8 576,-77.1 568.1,-91.5 		"/>
		
			<linearGradient id="SVGID_63_" gradientUnits="userSpaceOnUse" x1="-406.7385" y1="-108.3721" x2="-390.3148" y2="-121.6717" gradientTransform="matrix(-1 0 0 1 173.8954 26.1925)">
			<stop  offset="0" style="stop-color:#40B2E7"/>
			<stop  offset="1" style="stop-color:#FFFFFF"/>
		</linearGradient>
		<polygon opacity="0.93" fill-rule="evenodd" clip-rule="evenodd" fill="url(#SVGID_63_)" points="580.6,-89.8 577.5,-77.1 
			568.1,-91.5 		"/>
	</g>
	<g>
		<polygon fill-rule="evenodd" clip-rule="evenodd" fill="#2B3279" points="517.8,-79.5 512.6,-69.1 507.8,-80.9 		"/>
		
			<linearGradient id="SVGID_64_" gradientUnits="userSpaceOnUse" x1="-342.4468" y1="-100.1701" x2="-328.5858" y2="-111.3945" gradientTransform="matrix(-1 0 0 1 173.8954 26.1925)">
			<stop  offset="0" style="stop-color:#40B2E7"/>
			<stop  offset="1" style="stop-color:#FFFFFF"/>
		</linearGradient>
		<polygon opacity="0.93" fill-rule="evenodd" clip-rule="evenodd" fill="url(#SVGID_64_)" points="517.8,-79.5 512,-70.7 
			507.8,-80.9 		"/>
	</g>
	<g>
		<polygon fill-rule="evenodd" clip-rule="evenodd" fill="#2B3279" points="576.9,-131 569.1,-135 574,-146.4 		"/>
		
			<linearGradient id="SVGID_65_" gradientUnits="userSpaceOnUse" x1="-407.3289" y1="-164.9172" x2="-394.1385" y2="-164.9172" gradientTransform="matrix(-1 0 0 1 173.8954 26.1925)">
			<stop  offset="0" style="stop-color:#40B2E7"/>
			<stop  offset="1" style="stop-color:#82CDE3"/>
		</linearGradient>
		<polygon opacity="0.93" fill-rule="evenodd" clip-rule="evenodd" fill="url(#SVGID_65_)" points="576.9,-131 569.8,-136.5 
			574,-146.4 		"/>
	</g>
	<g>
		<polygon fill-rule="evenodd" clip-rule="evenodd" fill="#2B3279" points="527.4,-103.9 519.6,-107.9 524.6,-119.3 		"/>
		
			<linearGradient id="SVGID_66_" gradientUnits="userSpaceOnUse" x1="-357.8611" y1="-137.8045" x2="-344.6707" y2="-137.8045" gradientTransform="matrix(-1 0 0 1 173.8954 26.1925)">
			<stop  offset="0" style="stop-color:#6BB532"/>
			<stop  offset="1" style="stop-color:#F3E722"/>
		</linearGradient>
		<polygon opacity="0.93" fill-rule="evenodd" clip-rule="evenodd" fill="url(#SVGID_66_)" points="527.4,-103.9 520.3,-109.4 
			524.6,-119.3 		"/>
	</g>
	<g>
		<polygon fill-rule="evenodd" clip-rule="evenodd" fill="#2B3279" points="478.7,-121.5 472.2,-108.6 466.2,-123.1 		"/>
		
			<linearGradient id="SVGID_67_" gradientUnits="userSpaceOnUse" x1="-302.9071" y1="-140.8254" x2="-285.8321" y2="-154.6525" gradientTransform="matrix(-1 0 0 1 173.8954 26.1925)">
			<stop  offset="0" style="stop-color:#6BB532"/>
			<stop  offset="1" style="stop-color:#FBEA26"/>
		</linearGradient>
		<polygon opacity="0.93" fill-rule="evenodd" clip-rule="evenodd" fill="url(#SVGID_67_)" points="478.7,-121.5 471.4,-110.6 
			466.2,-123.1 		"/>
	</g>
	<g>
		<polygon fill-rule="evenodd" clip-rule="evenodd" fill="#2B3279" points="459,-41.1 451.2,-45.1 456.2,-56.5 		"/>
		
			<linearGradient id="SVGID_68_" gradientUnits="userSpaceOnUse" x1="-289.4526" y1="-75.0054" x2="-276.2614" y2="-75.0054" gradientTransform="matrix(-1 0 0 1 173.8954 26.1925)">
			<stop  offset="0" style="stop-color:#6BB532"/>
			<stop  offset="1" style="stop-color:#F3E722"/>
		</linearGradient>
		<polygon opacity="0.93" fill-rule="evenodd" clip-rule="evenodd" fill="url(#SVGID_68_)" points="459,-41.1 451.9,-46.6 
			456.2,-56.5 		"/>
	</g>
	<g>
		<polygon fill-rule="evenodd" clip-rule="evenodd" fill="#2B3279" points="501.1,-58.2 493.3,-62.2 498.2,-73.6 		"/>
		
			<linearGradient id="SVGID_69_" gradientUnits="userSpaceOnUse" x1="-331.5303" y1="-92.1116" x2="-318.3399" y2="-92.1116" gradientTransform="matrix(-1 0 0 1 173.8954 26.1925)">
			<stop  offset="0" style="stop-color:#6BB532"/>
			<stop  offset="1" style="stop-color:#F3E722"/>
		</linearGradient>
		<polygon opacity="0.93" fill-rule="evenodd" clip-rule="evenodd" fill="url(#SVGID_69_)" points="501.1,-58.2 494,-63.7 
			498.2,-73.6 		"/>
	</g>
	<g>
		<polygon fill-rule="evenodd" clip-rule="evenodd" fill="#2B3279" points="433.8,-99.4 427.3,-86.5 421.3,-101 		"/>
		
			<linearGradient id="SVGID_70_" gradientUnits="userSpaceOnUse" x1="-258.0315" y1="-118.6995" x2="-240.9565" y2="-132.5266" gradientTransform="matrix(-1 0 0 1 173.8954 26.1925)">
			<stop  offset="0" style="stop-color:#6BB532"/>
			<stop  offset="1" style="stop-color:#FBEA26"/>
		</linearGradient>
		<polygon opacity="0.93" fill-rule="evenodd" clip-rule="evenodd" fill="url(#SVGID_70_)" points="433.8,-99.4 426.5,-88.5 
			421.3,-101 		"/>
	</g>
	<g>
		<polygon fill-rule="evenodd" clip-rule="evenodd" fill="#2B3279" points="520.7,-160.9 514.4,-164.1 518.4,-173.4 		"/>
		
			<linearGradient id="SVGID_71_" gradientUnits="userSpaceOnUse" x1="-350.3167" y1="-193.3296" x2="-339.6093" y2="-193.3296" gradientTransform="matrix(-1 0 0 1 173.8954 26.1925)">
			<stop  offset="0" style="stop-color:#40B2E7"/>
			<stop  offset="1" style="stop-color:#82CDE3"/>
		</linearGradient>
		<polygon opacity="0.93" fill-rule="evenodd" clip-rule="evenodd" fill="url(#SVGID_71_)" points="520.7,-160.9 515,-165.4 
			518.4,-173.4 		"/>
	</g>
	<g>
		<polygon fill-rule="evenodd" clip-rule="evenodd" fill="#2B3279" points="554.5,-137.3 548,-124.4 542.1,-139 		"/>
		
			<linearGradient id="SVGID_72_" gradientUnits="userSpaceOnUse" x1="-378.7634" y1="-156.6525" x2="-361.6884" y2="-170.4796" gradientTransform="matrix(-1 0 0 1 173.8954 26.1925)">
			<stop  offset="0" style="stop-color:#40B2E7"/>
			<stop  offset="1" style="stop-color:#FFFFFF"/>
		</linearGradient>
		<polygon opacity="0.93" fill-rule="evenodd" clip-rule="evenodd" fill="url(#SVGID_72_)" points="554.5,-137.3 547.3,-126.5 
			542.1,-139 		"/>
	</g>
	<g>
		<polygon fill-rule="evenodd" clip-rule="evenodd" fill="#2B3279" points="494.9,-189.6 487.1,-193.6 492,-205 		"/>
		
			<linearGradient id="SVGID_73_" gradientUnits="userSpaceOnUse" x1="-325.2889" y1="-223.4872" x2="-312.0985" y2="-223.4872" gradientTransform="matrix(-1 0 0 1 173.8954 26.1925)">
			<stop  offset="0" style="stop-color:#40B2E7"/>
			<stop  offset="1" style="stop-color:#82CDE3"/>
		</linearGradient>
		<polygon opacity="0.93" fill-rule="evenodd" clip-rule="evenodd" fill="url(#SVGID_73_)" points="494.9,-189.6 487.8,-195.1 
			492,-205 		"/>
	</g>
	<g>
		<polygon fill-rule="evenodd" clip-rule="evenodd" fill="#0E5CA8" points="602.5,-108.4 596.6,-104.9 596.3,-118.2 		"/>
		
			<linearGradient id="SVGID_74_" gradientUnits="userSpaceOnUse" x1="-426.5419" y1="-130.1564" x2="-420.2619" y2="-159.7016" gradientTransform="matrix(-1 0 0 1 173.8954 26.1925)">
			<stop  offset="0" style="stop-color:#40B2E7"/>
			<stop  offset="1" style="stop-color:#FFFFFF"/>
		</linearGradient>
		<polygon opacity="0.93" fill-rule="evenodd" clip-rule="evenodd" fill="url(#SVGID_74_)" points="602.5,-108.4 597.4,-103.8 
			596.3,-118.2 		"/>
	</g>
	<g>
		<polygon fill-rule="evenodd" clip-rule="evenodd" fill="#2B3279" points="473.8,-193.1 466,-197 470.9,-208.4 		"/>
		
			<linearGradient id="SVGID_75_" gradientUnits="userSpaceOnUse" x1="-304.1881" y1="-226.9339" x2="-290.9989" y2="-226.9339" gradientTransform="matrix(-1 0 0 1 173.8954 26.1925)">
			<stop  offset="0" style="stop-color:#E30519"/>
			<stop  offset="1" style="stop-color:#F3E722"/>
		</linearGradient>
		<polygon opacity="0.93" fill-rule="evenodd" clip-rule="evenodd" fill="url(#SVGID_75_)" points="473.8,-193.1 466.7,-198.6 
			470.9,-208.4 		"/>
	</g>
	<g>
		<polygon fill-rule="evenodd" clip-rule="evenodd" fill="#2B3279" points="446.9,-202.5 439.7,-196.3 438.1,-210 		"/>
		
			<linearGradient id="SVGID_76_" gradientUnits="userSpaceOnUse" x1="-270.7662" y1="-234.5709" x2="-261.4503" y2="-225.255" gradientTransform="matrix(-1 0 0 1 173.8954 26.1925)">
			<stop  offset="0" style="stop-color:#E30519"/>
			<stop  offset="1" style="stop-color:#F3E722"/>
		</linearGradient>
		<polygon opacity="0.93" fill-rule="evenodd" clip-rule="evenodd" fill="url(#SVGID_76_)" points="446.9,-202.5 439.5,-198.2 
			438.1,-210 		"/>
	</g>
	
		<linearGradient id="SVGID_77_" gradientUnits="userSpaceOnUse" x1="-347.1046" y1="89.3393" x2="-151.7927" y2="89.3393" gradientTransform="matrix(4.489653e-11 -1 -1 -4.489653e-11 373.753 -152.8472)">
		<stop  offset="0" style="stop-color:#224E9E"/>
		<stop  offset="0.1587" style="stop-color:#14A9E2"/>
		<stop  offset="0.3175" style="stop-color:#25A73B"/>
		<stop  offset="0.4762" style="stop-color:#E6E134"/>
		<stop  offset="0.6243" style="stop-color:#E89500"/>
		<stop  offset="0.7884" style="stop-color:#E30519"/>
		<stop  offset="0.8995" style="stop-color:#E20A7F"/>
		<stop  offset="1" style="stop-color:#812082"/>
	</linearGradient>
	<path fill="url(#SVGID_77_)" d="M299.2,194.3c0,0,23.2-26.4-2.5-42.3c-25.7-15.9-19.4-29.6-1.9-38.2c17.5-8.5,18.1-23.3-10.3-38.5
		c-28.4-15.2-19.7-52.6,2.8-64.9C309.7-1.9,320.9-1,320.9-1l-52.9,0c0,0-24.4,6.8-19.4,35.4c5,28.5,25.6,32.5,42,52.2
		c16.4,19.7-30.9,28.3-27.4,48.1c3.6,19.8,26.4,15.3,24,35.1c-2.4,19.7-30,24.5-30,24.5H299.2z"/>
	
		<linearGradient id="SVGID_78_" gradientUnits="userSpaceOnUse" x1="-302.5999" y1="94.8742" x2="-211.6853" y2="94.8742" gradientTransform="matrix(4.489653e-11 -1 -1 -4.489653e-11 373.753 -152.8472)">
		<stop  offset="0" style="stop-color:#FAC500"/>
		<stop  offset="1" style="stop-color:#E30519"/>
	</linearGradient>
	<path fill-rule="evenodd" clip-rule="evenodd" fill="url(#SVGID_78_)" d="M274.4,149.8c-13-11.9-11.2-23.8,8.1-38
		c19.3-14.2,19.1-22.5,4.8-33.2C273,68,269,58.8,269,58.8s3,10.9,17.5,21.8c14.4,10.9,7.9,22.8-8.8,33
		c-16.7,10.2-19.7,18.9-16.2,26.1S274.4,149.8,274.4,149.8z"/>
	
		<linearGradient id="SVGID_79_" gradientUnits="userSpaceOnUse" x1="-260.0984" y1="155.1548" x2="-229.9601" y2="26.739" gradientTransform="matrix(4.489653e-11 -1 -1 -4.489653e-11 373.753 -152.8472)">
		<stop  offset="0" style="stop-color:#224E9E"/>
		<stop  offset="0.1587" style="stop-color:#14A9E2"/>
		<stop  offset="0.3175" style="stop-color:#25A73B"/>
		<stop  offset="0.4762" style="stop-color:#E6E134"/>
		<stop  offset="0.6243" style="stop-color:#E89500"/>
		<stop  offset="0.7884" style="stop-color:#E30519"/>
		<stop  offset="0.8995" style="stop-color:#E20A7F"/>
		<stop  offset="1" style="stop-color:#812082"/>
	</linearGradient>
	<path opacity="0.51" fill-rule="evenodd" clip-rule="evenodd" fill="url(#SVGID_79_)" d="M277.5,194.3c0,0,27.7-15.1,13.2-37
		c-14.5-21.9-23.5-22.6,2.4-48c25.9-25.4-8.4-38.3-16.5-56.8C268.5,34,286,20.1,308.8,9.5C331.6-1,331.6-1,331.6-1h-81.2
		c0,0-27.8,12.7-4.5,50.9c23.2,38.2,35.1,44.8,22.7,71.4c-12.3,26.6-3.1,26.9,1.5,44c4.6,17.1-30.4,29-30.4,29H277.5z"/>
	
		<linearGradient id="SVGID_80_" gradientUnits="userSpaceOnUse" x1="2029.1379" y1="-1660.5935" x2="-6959.752" y2="3956.2883" gradientTransform="matrix(-1 0 0 1 173.8954 26.1925)">
		<stop  offset="0" style="stop-color:#FBEA26"/>
		<stop  offset="1" style="stop-color:#4EAE36"/>
	</linearGradient>
	<path opacity="0.67" fill-rule="evenodd" clip-rule="evenodd" fill="url(#SVGID_80_)" d="M560.8-213.6h-50.9
		c-9.2,3.5-18.5,8.9-28,16.9c-74.5,62.8-130.5,30.7-184-16.9h-6v5.3c55.9,50.5,114.1,86.2,192.7,19.8
		c59.6-50.2,115.3,2.5,146.4,44.4v-11.9C613.3-178.8,588.9-203.5,560.8-213.6z"/>
	
		<linearGradient id="SVGID_81_" gradientUnits="userSpaceOnUse" x1="-369.1768" y1="39.8822" x2="-134.1649" y2="173.6312" gradientTransform="matrix(4.489653e-11 -1 -1 -4.489653e-11 373.753 -152.8472)">
		<stop  offset="0" style="stop-color:#0C64AE"/>
		<stop  offset="0.5185" style="stop-color:#40B2E7"/>
		<stop  offset="1" style="stop-color:#0E5CA8"/>
	</linearGradient>
	<path fill-rule="evenodd" clip-rule="evenodd" fill="url(#SVGID_81_)" d="M345.1,194.3c-33.6-10.5-88.4-42-83.6-108.5
		C266.3,19.3,223.3-1,223.3-1h-21.7v25.3c0,0,42.5-2.4,55.7,71c13.2,73.4,44.5,99,44.5,99H345.1z"/>
	
		<linearGradient id="SVGID_82_" gradientUnits="userSpaceOnUse" x1="-291.243" y1="-223.2296" x2="-116.2674" y2="-123.6482" gradientTransform="matrix(-1 0 0 1 173.8954 26.1925)">
		<stop  offset="0" style="stop-color:#E30519"/>
		<stop  offset="1.442057e-02" style="stop-color:#E41819"/>
		<stop  offset="0.1778" style="stop-color:#E9621E"/>
		<stop  offset="0.3388" style="stop-color:#EF9221"/>
		<stop  offset="0.4932" style="stop-color:#F4B524"/>
		<stop  offset="0.64" style="stop-color:#F7CD25"/>
		<stop  offset="0.7772" style="stop-color:#FADE26"/>
		<stop  offset="0.901" style="stop-color:#FBE726"/>
		<stop  offset="1" style="stop-color:#FBEA26"/>
	</linearGradient>
	<path fill-rule="evenodd" clip-rule="evenodd" fill="url(#SVGID_82_)" d="M291.9-118.7c46.1,32.8,139.6-20.2,152.1-95h-10.2
		c0,0-35.5,169.6-141.9,89.3V-118.7z"/>
	<rect x="0.1" y="3.4" fill="#FFFFFF" width="47.2" height="64.4"/>
</g>
<g id="Calque_1">
	<rect x="0.1" y="3.4" fill="#FFFFFF" width="47.2" height="64.4"/>
	<rect x="240.4" y="269.7" fill="#B9D6C9" width="24" height="14"/>
	<rect x="239.6" y="269.7" fill="#FFFFFF" width="0.8" height="14"/>
	<rect x="215.6" y="269.7" fill="#B9D6C9" width="24" height="14"/>
	<rect x="191.6" y="269.7" fill="#B9D6C9" width="24" height="14"/>
	<rect x="167.6" y="269.7" fill="#B9D6C9" width="24" height="14"/>
	<rect x="97.6" y="269.7" fill="#B9D6C9" width="70" height="14"/>
	<rect x="96.8" y="269.7" fill="#FFFFFF" width="0.8" height="14"/>
	<rect x="79.2" y="269.7" fill="#B9D6C9" width="17.6" height="14"/>
	<rect x="77.6" y="269.7" fill="#B9D6C9" width="1.6" height="14"/>
	<rect x="76.8" y="269.7" fill="#FFFFFF" width="0.8" height="14"/>
	<rect x="239.6" y="255.7" fill="#FFFFFF" width="0.8" height="14"/>
	<rect x="96.8" y="255.7" fill="#FFFFFF" width="0.8" height="14"/>
	<rect x="76.8" y="255.7" fill="#FFFFFF" width="0.8" height="14"/>
	<rect x="240.4" y="241.7" fill="#B9D6C9" width="24" height="14"/>
	<rect x="239.6" y="241.7" fill="#FFFFFF" width="0.8" height="14"/>
	<rect x="215.6" y="241.7" fill="#B9D6C9" width="24" height="14"/>
	<rect x="191.6" y="241.7" fill="#B9D6C9" width="24" height="14"/>
	<rect x="167.6" y="241.7" fill="#B9D6C9" width="24" height="14"/>
	<rect x="97.6" y="241.7" fill="#B9D6C9" width="70" height="14"/>
	<rect x="96.8" y="241.7" fill="#FFFFFF" width="0.8" height="14"/>
	<rect x="79.2" y="241.7" fill="#B9D6C9" width="17.6" height="14"/>
	<rect x="77.6" y="241.7" fill="#B9D6C9" width="1.6" height="14"/>
	<rect x="76.8" y="241.7" fill="#FFFFFF" width="0.8" height="14"/>
	<rect x="239.6" y="227.7" fill="#FFFFFF" width="0.8" height="14"/>
	<rect x="96.8" y="227.7" fill="#FFFFFF" width="0.8" height="14"/>
	<rect x="76.8" y="227.7" fill="#FFFFFF" width="0.8" height="14"/>
	<rect x="240.4" y="213.7" fill="#B9D6C9" width="24" height="14"/>
	<rect x="239.6" y="213.7" fill="#FFFFFF" width="0.8" height="14"/>
	<rect x="215.6" y="213.7" fill="#B9D6C9" width="24" height="14"/>
	<rect x="191.6" y="213.7" fill="#B9D6C9" width="24" height="14"/>
	<rect x="167.6" y="213.7" fill="#B9D6C9" width="24" height="14"/>
	<rect x="97.6" y="213.7" fill="#B9D6C9" width="70" height="14"/>
	<rect x="96.8" y="213.7" fill="#FFFFFF" width="0.8" height="14"/>
	<rect x="79.2" y="213.7" fill="#B9D6C9" width="17.6" height="14"/>
	<rect x="77.6" y="213.7" fill="#B9D6C9" width="1.6" height="14"/>
	<rect x="76.8" y="213.7" fill="#FFFFFF" width="0.8" height="14"/>
	<rect x="239.6" y="199.7" fill="#FFFFFF" width="0.8" height="14"/>
	<rect x="96.8" y="199.7" fill="#FFFFFF" width="0.8" height="14"/>
	<rect x="76.8" y="199.7" fill="#FFFFFF" width="0.8" height="14"/>
	<rect x="240.4" y="185.7" fill="#B9D6C9" width="24" height="14"/>
	<rect x="239.6" y="185.7" fill="#FFFFFF" width="0.8" height="14"/>
	<rect x="215.6" y="185.7" fill="#B9D6C9" width="24" height="14"/>
	<rect x="191.6" y="185.7" fill="#B9D6C9" width="24" height="14"/>
	<rect x="167.6" y="185.7" fill="#B9D6C9" width="24" height="14"/>
	<rect x="97.6" y="185.7" fill="#B9D6C9" width="70" height="14"/>
	<rect x="96.8" y="185.7" fill="#FFFFFF" width="0.8" height="14"/>
	<rect x="79.2" y="185.7" fill="#B9D6C9" width="17.6" height="14"/>
	<rect x="77.6" y="185.7" fill="#B9D6C9" width="1.6" height="14"/>
	<rect x="76.8" y="185.7" fill="#FFFFFF" width="0.8" height="14"/>
	<rect x="239.6" y="171.7" fill="#FFFFFF" width="0.8" height="14"/>
	<rect x="96.8" y="171.7" fill="#FFFFFF" width="0.8" height="14"/>
	<rect x="76.8" y="171.7" fill="#FFFFFF" width="0.8" height="14"/>
	<rect x="240.4" y="157.7" fill="#B9D6C9" width="24" height="14"/>
	<rect x="239.6" y="157.7" fill="#FFFFFF" width="0.8" height="14"/>
	<rect x="215.6" y="157.7" fill="#B9D6C9" width="24" height="14"/>
	<rect x="191.6" y="157.7" fill="#B9D6C9" width="24" height="14"/>
	<rect x="167.6" y="157.7" fill="#B9D6C9" width="24" height="14"/>
	<rect x="97.6" y="157.7" fill="#B9D6C9" width="70" height="14"/>
	<rect x="96.8" y="157.7" fill="#FFFFFF" width="0.8" height="14"/>
	<rect x="79.2" y="157.7" fill="#B9D6C9" width="17.6" height="14"/>
	<rect x="77.6" y="157.7" fill="#B9D6C9" width="1.6" height="14"/>
	<rect x="76.8" y="157.7" fill="#FFFFFF" width="0.8" height="14"/>
	<rect x="239.6" y="143.7" fill="#FFFFFF" width="0.8" height="14"/>
	<rect x="96.8" y="143.7" fill="#FFFFFF" width="0.8" height="14"/>
	<rect x="76.8" y="143.7" fill="#FFFFFF" width="0.8" height="14"/>
	<rect x="240.4" y="129.7" fill="#B9D6C9" width="24" height="14"/>
	<rect x="239.6" y="129.7" fill="#FFFFFF" width="0.8" height="14"/>
	<rect x="215.6" y="129.7" fill="#B9D6C9" width="24" height="14"/>
	<rect x="191.6" y="129.7" fill="#B9D6C9" width="24" height="14"/>
	<rect x="167.6" y="129.7" fill="#B9D6C9" width="24" height="14"/>
	<rect x="97.6" y="129.7" fill="#B9D6C9" width="70" height="14"/>
	<rect x="96.8" y="129.7" fill="#FFFFFF" width="0.8" height="14"/>
	<rect x="79.2" y="129.7" fill="#B9D6C9" width="17.6" height="14"/>
	<rect x="77.6" y="129.7" fill="#B9D6C9" width="1.6" height="14"/>
	<rect x="76.8" y="129.7" fill="#FFFFFF" width="0.8" height="14"/>
	<rect x="239.6" y="115.7" fill="#FFFFFF" width="0.8" height="14"/>
	<rect x="96.8" y="115.7" fill="#FFFFFF" width="0.8" height="14"/>
	<rect x="76.8" y="115.7" fill="#FFFFFF" width="0.8" height="14"/>
	<rect x="240.4" y="101.7" fill="#F6A316" width="24" height="14"/>
	<rect x="239.6" y="101.7" fill="#FFFFFF" width="0.8" height="14"/>
	<rect x="215.6" y="101.7" fill="#F6A316" width="24" height="14"/>
	<rect x="191.6" y="101.7" fill="#F6A316" width="24" height="14"/>
	<rect x="167.6" y="101.7" fill="#F6A316" width="24" height="14"/>
	<rect x="97.6" y="101.7" fill="#F6A316" width="70" height="14"/>
	<rect x="96.8" y="101.7" fill="#FFFFFF" width="0.8" height="14"/>
	<rect x="79.2" y="101.7" fill="#F6A316" width="17.6" height="14"/>
	<rect x="77.6" y="101.7" fill="#F6A316" width="1.6" height="14"/>
	<rect x="76.8" y="101.7" fill="#FFFFFF" width="0.8" height="14"/>
	<rect x="240.4" y="87.7" fill="#FCC00E" width="24" height="14"/>
	<rect x="239.6" y="87.7" fill="#FFFFFF" width="0.8" height="14"/>
	<rect x="215.6" y="87.7" fill="#FCC00E" width="24" height="14"/>
	<rect x="191.6" y="87.7" fill="#FCC00E" width="24" height="14"/>
	<rect x="167.6" y="87.7" fill="#FCC00E" width="24" height="14"/>
	<rect x="97.6" y="87.7" fill="#FCC00E" width="70" height="14"/>
	<rect x="96.8" y="87.7" fill="#FFFFFF" width="0.8" height="14"/>
	<rect x="79.2" y="87.7" fill="#FCC00E" width="17.6" height="14"/>
	<rect x="77.6" y="87.7" fill="#FCC00E" width="1.6" height="14"/>
	<rect x="76.8" y="87.7" fill="#FFFFFF" width="0.8" height="14"/>
	<rect x="240.4" y="73.7" fill="#F6A316" width="24" height="14"/>
	<rect x="239.6" y="73.7" fill="#FFFFFF" width="0.8" height="14"/>
	<rect x="215.6" y="73.7" fill="#F6A316" width="24" height="14"/>
	<rect x="191.6" y="73.7" fill="#F6A316" width="24" height="14"/>
	<rect x="167.6" y="73.7" fill="#F6A316" width="24" height="14"/>
	<rect x="97.6" y="73.7" fill="#F6A316" width="70" height="14"/>
	<rect x="96.8" y="73.7" fill="#FFFFFF" width="0.8" height="14"/>
	<rect x="79.2" y="73.7" fill="#F6A316" width="17.6" height="14"/>
	<rect x="77.6" y="73.7" fill="#F6A316" width="1.6" height="14"/>
	<rect x="76.8" y="73.7" fill="#FFFFFF" width="0.8" height="14"/>
	<polygon fill="#FFFFFF" points="56.8,73.7 56.8,87.7 56.8,101.7 56.8,115.7 56.8,129.7 56.8,143.7 56.8,157.7 56.8,171.7 
		56.8,185.7 56.8,199.7 56.8,213.7 56.8,227.7 56.8,241.7 56.8,255.7 56.8,269.7 56.8,275.5 56.8,283.7 76.8,283.7 76.8,275.5 
		76.8,269.7 76.8,255.7 76.8,241.7 76.8,227.7 76.8,213.7 76.8,199.7 76.8,185.7 76.8,171.7 76.8,157.7 76.8,143.7 76.8,129.7 
		76.8,115.7 76.8,101.7 76.8,87.7 76.8,73.7 	"/>
	<g>
		<rect x="33.3" y="17" transform="matrix(0.4921 -0.8706 0.8706 0.4921 1.4711 40.077)" fill="#24325F" width="3.5" height="3.5"/>
		<rect x="35.1" y="10.5" fill="#24325F" width="3.5" height="3.5"/>
		<polygon fill="#24325F" points="30.9,39.1 35.1,36.7 34.4,35.6 30.3,38 		"/>
		<rect x="41" y="19.5" fill="#24325F" width="1.3" height="4.8"/>
		<polygon fill="#24325F" points="37.5,32.6 38.6,33.3 41,29.1 39.9,28.5 		"/>
		<rect x="27.9" y="32.6" fill="#24325F" width="1.3" height="4.8"/>
		
			<rect x="32.9" y="32" transform="matrix(0.7071 -0.7071 0.7071 0.7071 -13.2291 34.5159)" fill="#24325F" width="4.3" height="2.5"/>
		
			<rect x="32.9" y="22.4" transform="matrix(0.7071 -0.7071 0.7071 0.7071 -6.4181 31.6946)" fill="#24325F" width="4.3" height="2.5"/>
		<polygon fill="#24325F" points="32.7,29 30.3,28.4 29.3,32.5 31.7,33.1 		"/>
		<polygon fill="#24325F" points="39.9,28.4 41,24.3 38.6,23.6 37.5,27.7 		"/>
		<polygon fill="#24325F" points="38.6,14 37.5,18.1 39.9,18.8 41,14.6 		"/>
		<polygon fill="#24325F" points="30.9,12.9 30.3,15.3 34.4,16.4 35.1,14 		"/>
		<rect x="13.7" y="11.8" fill="#24325F" width="3.5" height="3.5"/>
		
			<rect x="7.1" y="13.6" transform="matrix(0.8706 -0.4921 0.4921 0.8706 -6.3913 6.3521)" fill="#24325F" width="3.5" height="3.5"/>
		<polygon fill="#24325F" points="35.1,7 31,4.6 30.3,5.7 34.5,8.1 		"/>
		<polygon fill="#24325F" points="16.6,4.6 12.5,7 13.1,8.1 17.3,5.7 		"/>
		<rect x="21.4" y="3.4" fill="#24325F" width="4.8" height="1.3"/>
		<polygon fill="#24325F" points="34.4,9.5 30.3,11.9 30.9,12.9 35,10.5 		"/>
		<polygon fill="#24325F" points="30.3,5.7 26.2,4.6 25.5,7 29.6,8.1 		"/>
		<polygon fill="#24325F" points="22,10.5 17.9,9.4 17.2,11.8 21.4,12.9 		"/>
		<polygon fill="#24325F" points="25.5,10.5 26.2,12.9 30.3,11.8 29.6,9.4 		"/>
		<polygon fill="#24325F" points="21.3,4.6 17.2,5.7 17.8,8.1 22,7 		"/>
		<polygon fill="#24325F" points="13,9.5 8.9,10.5 9.6,12.9 13.7,11.9 		"/>
		<polygon fill="#24325F" points="12.4,20.1 14.8,19.5 13.7,15.3 11.3,16 		"/>
		
			<rect x="18.9" y="31.5" transform="matrix(0.8706 -0.4921 0.4921 0.8706 -13.6952 14.4785)" fill="#24325F" width="3.5" height="3.5"/>
		
			<rect x="23.7" y="36.2" transform="matrix(0.4921 -0.8706 0.8706 0.4921 -20.0855 41.4819)" fill="#24325F" width="3.5" height="3.5"/>
		<rect x="5.1" y="19.5" fill="#24325F" width="1.3" height="4.8"/>
		<polygon fill="#24325F" points="12.4,36.7 16.5,39.1 17.2,38 13.1,35.6 		"/>
		<polygon fill="#24325F" points="6.4,29 8.8,33.2 9.9,32.5 7.5,28.4 		"/>
		<polygon fill="#24325F" points="12.4,20.1 8.3,17.7 7.6,18.8 11.7,21.2 		"/>
		<polygon fill="#24325F" points="10,27.8 8.9,23.7 6.5,24.3 7.6,28.5 		"/>
		<polygon fill="#24325F" points="14.8,29 15.9,33.1 18.3,32.5 17.2,28.4 		"/>
		
			<rect x="11.2" y="21.4" transform="matrix(0.7071 -0.7071 0.7071 0.7071 -13.0027 15.6745)" fill="#24325F" width="2.5" height="4.3"/>
		
			<rect x="11.2" y="31.1" transform="matrix(0.7071 -0.7071 0.7071 0.7071 -19.893 18.5154)" fill="#24325F" width="2.5" height="4.3"/>
		
			<rect x="19.4" y="35.8" transform="matrix(0.7071 -0.7071 0.7071 0.7071 -20.7821 25.7336)" fill="#24325F" width="2.5" height="4.3"/>
		
			<rect x="23.3" y="32" transform="matrix(0.7071 -0.7071 0.7071 0.7071 -16.0547 27.7819)" fill="#24325F" width="4.3" height="2.5"/>
		
			<rect x="33.3" y="26.6" transform="matrix(0.4921 -0.8706 0.8706 0.4921 -6.9154 44.9356)" fill="#24325F" width="3.5" height="3.5"/>
		<polygon fill="#24325F" points="31.5,33.2 29.1,37.4 30.2,38 32.6,33.9 		"/>
		<polygon fill="#24325F" points="37.5,23 38.6,23.6 41,19.5 39.9,18.8 		"/>
		<rect x="22.1" y="7" fill="#24325F" width="3.5" height="3.5"/>
		<rect x="29.7" y="8" fill="#24325F" width="4.8" height="1.3"/>
		<rect x="13" y="8.2" fill="#24325F" width="4.8" height="1.3"/>
		
			<rect x="10.7" y="26.6" transform="matrix(0.8706 -0.4921 0.4921 0.8706 -12.3426 9.7808)" fill="#24325F" width="3.5" height="3.5"/>
		<polygon fill="#24325F" points="10,23 7.6,18.8 6.5,19.5 8.9,23.6 		"/>
		<polygon fill="#24325F" points="14.8,33.8 17.2,38 18.3,37.3 15.9,33.2 		"/>
		<path fill="#0F81C5" d="M18.8,56.3c0-2.4-1.9-4.3-4.3-4.3s-4.3,1.9-4.3,4.3c0,2.4,1.9,4.3,4.3,4.3c0.1,0,0.3,0,0.4,0
			c0-0.1,0-0.3,0-0.4c0-0.1,0-0.3,0-0.4c-0.1,0-0.3,0-0.4,0c-2,0-3.6-1.6-3.6-3.6s1.6-3.6,3.6-3.6c2,0,3.6,1.6,3.6,3.6
			c0,1.6-1.1,2.9-2.4,3.3c0,0.1,0,0.4,0,0.5c0,0.1,0,0.1,0,0.3C17.4,60,18.8,58.3,18.8,56.3"/>
		<path fill="#E62B3D" d="M37.2,56.3c0,2.4-1.9,4.3-4.3,4.3c-2.3,0-4.1-1.7-4.3-3.9c0.3,0,0.5,0.1,0.8,0.1c0.3,1.7,1.7,3.1,3.5,3.1
			c2,0,3.6-1.6,3.6-3.6c0-2-1.6-3.6-3.6-3.6c-1.9,0-3.5,1.5-3.6,3.3c-0.3,0-0.5-0.1-0.7-0.1c0.1-2.3,2-3.9,4.3-3.9
			C35.4,52,37.2,54,37.2,56.3"/>
		<path fill="#00953F" d="M28.4,56.7c1.7,0,3.3,1.3,3.5,3.1c0.3,0.1,0.5,0.1,0.8,0.1c-0.1-2.1-2-3.9-4.3-3.9c-0.1,0-0.3,0-0.4,0
			c0,0.1,0,0.3,0,0.4s0,0.3,0,0.4C28.2,56.7,28.3,56.7,28.4,56.7 M31.9,60.5c-0.1,1.9-1.6,3.3-3.6,3.3c-2,0-3.6-1.6-3.6-3.6
			c0-1.6,1.1-2.9,2.4-3.3c0-0.1,0-0.4,0-0.5s0-0.1,0-0.3c-1.9,0.5-3.2,2.1-3.2,4.1c0,2.4,1.9,4.3,4.3,4.3c2.3,0,4.1-1.7,4.3-3.9
			C32.4,60.6,32.2,60.6,31.9,60.5"/>
		<path fill="#F7A611" d="M18.7,56.7c0-0.1,0-0.3,0-0.4c0-0.1,0-0.3,0-0.4c0.1,0,0.3,0,0.4,0c2.3,0,4.1,1.7,4.3,3.9
			c-0.3,0-0.5-0.1-0.8-0.1c-0.3-1.7-1.7-3.1-3.5-3.1C19,56.7,18.8,56.7,18.7,56.7 M23.4,60.7c-0.1,2.3-2,3.9-4.3,3.9
			c-2.4,0-4.3-1.9-4.3-4.3c0-2,1.3-3.6,3.2-4.1c0,0.1,0,0.1,0,0.3c0,0.1,0,0.4,0,0.5c-1.5,0.5-2.4,1.9-2.4,3.3c0,2,1.6,3.6,3.6,3.6
			c1.9,0,3.5-1.5,3.6-3.3C22.8,60.5,23.1,60.5,23.4,60.7"/>
		<path fill="#201B1A" d="M23.7,52c-2.3,0-4.1,1.7-4.3,3.9c0.3,0,0.5,0,0.7,0.1c0.1-1.9,1.6-3.3,3.6-3.3c2,0,3.6,1.6,3.6,3.6
			c0,1.6-1.1,2.9-2.4,3.3c0,0.1,0,0.4,0,0.5c0,0.1,0,0.1,0,0.3c1.9-0.5,3.2-2.1,3.2-4.1C28.1,54,26.1,52,23.7,52 M23.7,59.9
			c-1.7,0-3.3-1.3-3.5-3.1c-0.3-0.1-0.5-0.1-0.8-0.1c0.1,2.1,2,3.9,4.3,3.9c0.1,0,0.3,0,0.4,0c0-0.1,0-0.3,0-0.4c0-0.1,0-0.3,0-0.4
			C23.9,59.9,23.8,59.9,23.7,59.9"/>
		<polygon fill="#24325F" points="5.8,49.2 4.9,49.2 4.9,44.5 3.5,44.5 3.5,43.7 7,43.7 7,44.5 5.7,44.5 5.7,49.2 		"/>
		<polygon fill="#24325F" points="17.1,49.2 16,49.2 14.7,46.8 14.2,47.4 14.2,49.2 13.2,49.2 13.2,43.6 14.2,43.6 14.2,46.1 
			15.9,43.6 17,43.6 15.4,46 		"/>
		<polygon fill="#24325F" points="20,49.2 19.1,49.2 19.1,46.8 17.6,43.6 18.5,43.6 19.5,45.7 20.4,43.6 21.3,43.6 19.9,46.8 		"/>
		<path fill="#24325F" d="M31.1,49.2H28v-0.8l2-2.7c0.1-0.1,0.1-0.3,0.1-0.5c0-0.4-0.4-0.7-0.7-0.7s-0.4,0-0.5,0.1
			c-0.1,0.1-0.3,0.3-0.3,0.7h-0.8c0-0.5,0.1-0.9,0.4-1.2s0.7-0.4,1.1-0.4c0.5,0,0.8,0.1,1.2,0.4c0.3,0.3,0.4,0.7,0.4,1.2
			c0,0.4-0.1,0.7-0.4,1.1l-1.6,2h2v0.8H31.1z"/>
		<path fill="#24325F" d="M39.7,49.2h-3.1v-0.8l2-2.7c0.1-0.1,0.1-0.3,0.1-0.5c0-0.4-0.4-0.7-0.7-0.7s-0.4,0-0.5,0.1
			c-0.1,0.1-0.3,0.3-0.3,0.7h-0.8c0-0.5,0.1-0.9,0.4-1.2s0.7-0.4,1.1-0.4c0.5,0,0.8,0.1,1.2,0.4c0.3,0.3,0.4,0.7,0.4,1.2
			c0,0.4-0.1,0.7-0.4,1.1l-1.6,2h2v0.8H39.7z"/>
		<path fill="#24325F" d="M23.8,49.2c-1.1,0-1.7-0.7-1.7-1.7v-2.3c0-0.9,0.7-1.7,1.7-1.7c1.1,0,1.7,0.7,1.7,1.7v2.3
			C25.6,48.5,24.9,49.2,23.8,49.2 M23.8,44.4c-0.5,0-0.9,0.4-0.9,0.9v2c0,0.5,0.4,0.9,0.9,0.9c0.5,0,0.9-0.4,0.9-0.9v-2
			C24.8,44.8,24.4,44.4,23.8,44.4"/>
		<path fill="#24325F" d="M9.8,49.2c-1.1,0-1.7-0.7-1.7-1.7v-2.3c0-0.9,0.7-1.7,1.7-1.7c1.1,0,1.7,0.7,1.7,1.7v2.3
			C11.6,48.5,10.9,49.2,9.8,49.2 M9.8,44.4c-0.5,0-0.9,0.4-0.9,0.9v2c0,0.5,0.4,0.9,0.9,0.9c0.5,0,0.9-0.4,0.9-0.9v-2
			C10.8,44.8,10.4,44.4,9.8,44.4"/>
		<path fill="#24325F" d="M33.8,49.2c-0.5,0-1.6-0.4-1.6-1.6v-2.4c0-0.9,0.7-1.6,1.6-1.6s1.6,0.7,1.6,1.6v2.4
			C35.4,48.9,34.5,49.2,33.8,49.2 M33.8,44.4c-0.5,0-0.7,0.4-0.7,0.8v2.3c0,0.5,0.3,0.8,0.7,0.8c0.5,0,0.7-0.3,0.7-0.8v-2.3
			C34.5,44.9,34.5,44.4,33.8,44.4"/>
		<path fill="#24325F" d="M42.3,49.2c-0.5,0-1.6-0.4-1.6-1.6v-2.4c0-0.9,0.7-1.6,1.6-1.6s1.6,0.7,1.6,1.6v2.4
			C43.9,48.9,42.9,49.2,42.3,49.2 M42.3,44.4c-0.5,0-0.7,0.4-0.7,0.8v2.3c0,0.5,0.3,0.8,0.7,0.8c0.4,0,0.7-0.3,0.7-0.8v-2.3
			C43,44.9,42.9,44.4,42.3,44.4"/>
		<polygon fill="#24325F" points="37.2,35.4 37.6,35.4 37.6,36.5 37.7,36.5 37.7,35.4 38.1,35.4 38.1,35.3 		"/>
		<polygon fill="#24325F" points="39.2,35.4 39,36.2 38.6,35.4 38.4,35.4 38.4,36.6 38.6,36.6 38.6,35.7 38.8,36.3 39,36.3 
			39.2,35.4 39.2,36.5 39.4,36.5 		"/>
		<rect x="112.2" y="288.8" fill="#FFFFFF" width="50.5" height="8.5"/>
		<rect x="113.5" y="290.1" fill="#E30B17" width="6.8" height="6.1"/>
		<rect x="113.5" y="290.1" fill="none" stroke="#E30B17" stroke-width="0.9999" stroke-miterlimit="10" width="6.8" height="6.1"/>
		<polyline fill-rule="evenodd" clip-rule="evenodd" fill="#FFFFFF" points="113.9,291.4 113.9,291.4 114.6,290.6 116,290.6 
			116.7,291.4 116.7,292.4 115.4,292.4 115.4,291.6 115.2,291.6 115.2,292.7 116,292.8 116.7,293.5 116.7,295.2 116,295.8 
			114.5,295.8 113.9,295.2 113.9,294.2 115.2,294.2 115.2,294.9 115.4,294.9 115.4,293.8 114.7,293.7 113.9,293 113.9,291.4 		"/>
		<polyline fill-rule="evenodd" clip-rule="evenodd" fill="#FFFFFF" points="117,291.3 117,291.3 117.8,290.6 119.1,290.6 
			119.9,291.3 119.9,295.1 119.3,295.7 117.7,295.7 117,295.1 117,291.3 		"/>
		<polyline fill="#D12C1C" points="118.3,294.8 118.3,294.8 118.6,294.8 118.6,291.6 118.3,291.6 118.3,294.8 		"/>
		<path fill="#010202" d="M122.9,291.6h0.6v3.7h-0.6V291.6z M122.9,290.4h0.6v0.8h-0.6V290.4z"/>
		<path fill="#010202" d="M124.7,291.7h0.5l0.1,0.3c0.2-0.2,0.5-0.4,1.3-0.4c1.2,0,1.3,0.6,1.3,1.5v2.2h-0.6v-2.1c0-0.6-0.1-1-0.9-1
			c-0.9,0-1.1,0.5-1.1,1.1v2h-0.6V291.7z"/>
		<path fill="#010202" d="M128.7,291.6h0.7v-0.3c0-0.7,0.2-1.2,1.2-1.2h0.4v0.6h-0.3c-0.5,0-0.6,0.3-0.6,0.6v0.3h0.9v0.6h-0.9v3.1
			h-0.6v-3.1h-0.7L128.7,291.6z"/>
		<path fill="#010202" d="M134.5,293.5c0-0.8-0.3-1.3-1.2-1.3s-1.2,0.5-1.2,1.3c0,0.8,0.3,1.3,1.2,1.3S134.5,294.3,134.5,293.5z
			 M131.5,293.4c0-1.2,0.5-1.9,1.8-1.9s1.8,0.7,1.8,1.9s-0.5,1.9-1.8,1.9S131.5,294.7,131.5,293.4z"/>
		<path fill="#010202" d="M138.4,292.8c0-0.5-0.3-0.7-0.9-0.7c-0.7,0-0.9,0.2-0.9,0.7s0.3,0.7,0.9,0.7
			C138.1,293.5,138.4,293.2,138.4,292.8z M138.7,295.4c0-0.4-0.3-0.5-1.2-0.5c-1,0-1.1,0.2-1.1,0.5c0,0.4,0.3,0.5,1.1,0.5
			C138.5,295.9,138.7,295.7,138.7,295.4z M136.9,293.9c-0.1,0.1-0.1,0.1-0.1,0.2c0,0.2,0.2,0.2,0.7,0.2c1.4,0,1.8,0.2,1.8,1
			c0,0.8-0.5,1.1-1.8,1.1c-1.2,0-1.7-0.2-1.7-0.9c0-0.4,0.2-0.8,0.7-0.9c-0.1-0.1-0.2-0.2-0.2-0.4s0.1-0.4,0.2-0.5
			c-0.3-0.2-0.4-0.5-0.4-0.9c0-0.8,0.5-1.2,1.5-1.2c0.1,0,0.2,0,0.2,0l1.4-0.2v0.5h-0.6c0.3,0.2,0.5,0.4,0.5,0.9
			c0,0.8-0.5,1.2-1.6,1.2C137.3,293.9,137.1,293.9,136.9,293.9z"/>
		<path fill="#010202" d="M140.2,291.7h0.5l0.1,0.4c0.1-0.3,0.6-0.5,1.2-0.5v0.6c-0.9,0-1.2,0.5-1.2,1.1v1.9h-0.6V291.7z"/>
		<path fill="#010202" d="M145.1,293.7v-0.2h-0.2c-1.5,0-1.8,0.2-1.8,0.7c0,0.4,0.2,0.6,0.8,0.6
			C144.7,294.8,145.1,294.4,145.1,293.7z M142.4,294.2c0-1,0.6-1.3,2.4-1.3h0.2c0-0.5-0.1-0.8-0.9-0.8c-0.5,0-0.8,0.2-1.1,0.3
			l-0.3-0.5c0.2-0.2,0.8-0.4,1.5-0.4c1.2,0,1.5,0.4,1.5,1.5v1.3c0,0.4,0,0.4,0.4,0.4v0.6c0,0-0.1,0-0.3,0c-0.4,0-0.5-0.1-0.6-0.4
			c-0.2,0.3-0.6,0.5-1.4,0.5C142.7,295.3,142.4,294.9,142.4,294.2z"/>
		<path fill="#010202" d="M149.8,293.5c0-0.8-0.2-1.3-1.1-1.3s-1.2,0.3-1.2,1.3c0,1,0.3,1.3,1.2,1.3S149.8,294.3,149.8,293.5z
			 M146.9,291.7h0.5l0.1,0.4c0.2-0.3,0.6-0.5,1.4-0.5c1.2,0,1.6,0.8,1.6,1.9c0,1.1-0.3,1.9-1.6,1.9c-0.8,0-1.1-0.1-1.3-0.4v1.5H147
			L146.9,291.7z"/>
		<path fill="#010202" d="M151.4,290.2h0.6v1.8c0.1-0.2,0.5-0.4,1.3-0.4c1.2,0,1.3,0.6,1.3,1.5v2.2H154v-2.1c0-0.6-0.1-1-0.9-1
			c-0.9,0-1.1,0.5-1.1,1.1v2h-0.6V290.2z"/>
		<path fill="#010202" d="M155.8,291.6h0.6v3.7h-0.6V291.6z M155.8,290.4h0.6v0.8h-0.6V290.4z"/>
		<path fill="#010202" d="M158,293.1h2.1c0-0.6-0.1-1-1-1C158.3,292.1,158.1,292.5,158,293.1z M157.4,293.4c0-1.1,0.3-1.9,1.8-1.9
			c1.5,0,1.6,1,1.5,2.2H158c0,0.7,0.3,1.1,1.2,1.1c0.6,0,0.9-0.2,1.2-0.4l0.3,0.4c-0.4,0.3-0.8,0.5-1.5,0.5
			C157.7,295.3,157.4,294.5,157.4,293.4z"/>
		<polyline fill="#3C6FB5" points="199.3,47 205.6,47 213,33.3 206.7,33.3 199.3,47 205.6,47 		"/>
		<path fill="#88898A" d="M206.2,52.4h-7.4c-0.9,0-1.7-0.8-1.7-1.7v-3.1c0-0.9,0.8-1.7,1.7-1.7h7.4c0.9,0,1.7,0.8,1.7,1.7v3.1
			C207.9,51.7,207.1,52.4,206.2,52.4z M198.7,47c-0.3,0-0.6,0.3-0.6,0.6v3.1c0,0.3,0.3,0.6,0.6,0.6h7.4c0.3,0,0.6-0.3,0.6-0.6v-3.1
			c0-0.3-0.3-0.6-0.6-0.6H198.7z"/>
		<path fill="#BEBDBD" d="M213.2,58c-0.1-0.7-0.2-1.4-0.4-2c-0.2-0.7-0.5-1.3-0.8-1.9c-0.3-0.6-0.7-1.2-1.1-1.7
			c-0.4-0.5-0.9-1-1.4-1.5c-0.5-0.5-1.1-0.9-1.7-1.2c-0.6-0.3-1.2-0.6-1.9-0.9c-0.7-0.3-1.3-0.4-2-0.5c-0.7-0.1-1.4-0.1-2.1-0.1
			c-0.7,0-1.4,0.1-2,0.3c-0.7,0.2-1.3,0.4-2,0.7c-0.6,0.3-1.2,0.6-1.8,1c-0.6,0.4-1.1,0.9-1.6,1.4c-0.5,0.5-0.9,1-1.3,1.6
			c-0.4,0.6-0.7,1.2-0.9,1.8c-0.3,0.6-0.4,1.3-0.6,2c-0.1,0.7-0.2,1.4-0.2,2.1c0,0.7,0.1,1.4,0.2,2.1c0.1,0.7,0.3,1.3,0.6,2
			c0.3,0.6,0.6,1.3,1,1.8c0.4,0.6,0.8,1.1,1.3,1.6c0.5,0.5,1,1,1.6,1.4c0.6,0.4,1.2,0.7,1.8,1c0.6,0.3,1.3,0.5,2,0.7
			c0.7,0.2,1.4,0.3,2.1,0.3c0.7,0,1.4,0,2.1-0.1s1.4-0.3,2-0.5c0.7-0.2,1.3-0.5,1.9-0.9c0.6-0.3,1.2-0.8,1.7-1.2
			c0.5-0.5,1-1,1.4-1.5c0.4-0.5,0.8-1.1,1.1-1.7c0.3-0.6,0.6-1.3,0.8-1.9c0.2-0.6,0.3-1.3,0.4-2C213.3,59.3,213.3,58.6,213.2,58"/>
		<path fill="#88898A" d="M202.4,68.2c-5.1,0-9.2-4.1-9.2-9.2s4.1-9.2,9.2-9.2s9.2,4.1,9.2,9.2S207.5,68.2,202.4,68.2z M202.4,50.5
			c-4.7,0-8.6,3.9-8.6,8.6s3.9,8.6,8.6,8.6c4.7,0,8.6-3.9,8.6-8.6S207.2,50.5,202.4,50.5z"/>
		<polyline fill="#4694CE" points="205.6,47 199.3,47 191.8,33.3 198.1,33.3 205.6,47 199.3,47 		"/>
		<path fill="#88898A" d="M197.1,57c0.3-0.2,0.5-0.4,0.6-0.5c0.1-0.2,0.2-0.3,0.2-0.3s-0.1-0.1-0.2-0.1s-0.4-0.1-0.7,0.1
			c-0.3,0.1-0.5,0.4-0.6,0.6c0.2-0.4,0.4-0.8,0.6-1.2c0,0,0.1,0.1,0.3,0.1c0.1,0,0.3,0,0.6,0c0.3-0.1,0.5-0.2,0.7-0.3
			c0.2-0.1,0.3-0.2,0.3-0.2s0-0.1-0.2-0.2c-0.1-0.1-0.3-0.2-0.6-0.1c-0.3,0.1-0.6,0.2-0.8,0.4c0.2-0.2,0.4-0.5,0.6-0.7
			c0,0,0.5,0,1.1-0.4c0.6-0.3,0.9-0.9,0.9-0.9s-0.5-0.2-1.3,0.3c-0.6,0.4-0.8,0.8-0.8,0.9c-0.2,0.2-0.4,0.4-0.6,0.7
			c0.1-0.2,0.3-0.5,0.3-0.9c0.1-0.3,0.1-0.6,0-0.7c-0.1-0.1-0.1-0.2-0.1-0.2s-0.2,0.1-0.3,0.4c-0.2,0.2-0.4,0.6-0.4,0.9
			c0,0.3,0,0.5,0.1,0.6c0.1,0.1,0.1,0.2,0.2,0.2c-0.3,0.4-0.5,0.8-0.6,1.2c0.1-0.3,0.1-0.6,0.1-0.9c0-0.4-0.1-0.6-0.2-0.7
			c-0.1-0.1-0.2-0.2-0.2-0.2s-0.1,0.2-0.2,0.5s-0.2,0.7-0.1,1c0,0.3,0.1,0.5,0.2,0.6c0.1,0.1,0.2,0.1,0.3,0.2
			c-0.1,0.4-0.2,0.9-0.3,1.3c0-0.3-0.1-0.6-0.2-0.9s-0.2-0.5-0.4-0.6c-0.1-0.1-0.2-0.1-0.2-0.1s-0.1,0.2-0.1,0.5c0,0.3,0,0.7,0.1,1
			c0.1,0.3,0.3,0.4,0.4,0.5c0.1,0.1,0.2,0.1,0.3,0.1c0,0.5,0,0.9,0.1,1.4c-0.1-0.2-0.2-0.5-0.4-0.8s-0.4-0.4-0.5-0.5s-0.2,0-0.2,0
			s0,0.2,0.1,0.5s0.2,0.7,0.4,0.9s0.4,0.3,0.5,0.4c0.1,0,0.2,0,0.3,0c0.1,0.4,0.3,0.9,0.5,1.3c-0.2-0.2-0.4-0.5-0.6-0.7
			c-0.3-0.2-0.5-0.3-0.6-0.3c-0.2,0-0.2,0-0.2,0s0.1,0.2,0.2,0.5c0.1,0.3,0.4,0.6,0.7,0.8c0.2,0.2,0.4,0.2,0.6,0.2
			c0.1,0,0.2-0.1,0.3-0.1c0.2,0.4,0.5,0.8,0.8,1.1c-0.2-0.2-0.5-0.3-0.8-0.5c-0.3-0.1-0.6-0.2-0.7-0.1c-0.2,0-0.2,0.1-0.2,0.1
			s0.1,0.2,0.3,0.4c0.2,0.2,0.5,0.5,0.9,0.6c0.3,0.1,0.5,0.1,0.6,0c0.1,0,0.2-0.1,0.3-0.2c0.3,0.3,0.7,0.6,1.1,0.8
			c-0.2-0.1-0.6-0.2-0.9-0.2s-0.6,0-0.7,0.1c-0.1,0.1-0.2,0.2-0.2,0.2s0.2,0.1,0.4,0.3c0.3,0.2,0.6,0.3,1,0.3c0.3,0,0.5-0.1,0.6-0.1
			c0.1-0.1,0.2-0.2,0.2-0.2c0.4,0.2,0.8,0.4,1.3,0.5c-0.3,0-0.6,0-0.9,0c-0.3,0.1-0.6,0.2-0.7,0.3c-0.1,0.1-0.1,0.2-0.1,0.2
			s0.2,0.1,0.5,0.2c0.3,0.1,0.7,0.1,1,0c0.3-0.1,0.4-0.2,0.5-0.3c0.1-0.1,0.1-0.2,0.1-0.3c0.4,0.1,0.7,0.1,1.1,0.1
			c0.1,0,0.1,0,0.1-0.1l-0.1-0.1c-0.4,0-0.7,0-1-0.1c0-0.1,0-0.2,0-0.3c0-0.1-0.1-0.3-0.3-0.5c-0.2-0.2-0.4-0.4-0.6-0.5
			c-0.2-0.1-0.3-0.2-0.3-0.2s-0.1,0.1-0.1,0.2c0,0.1,0,0.4,0.1,0.6c0.2,0.3,0.4,0.5,0.7,0.6c-0.4-0.1-0.8-0.3-1.2-0.5
			c0-0.1,0.1-0.2,0.1-0.3c0-0.1,0-0.3-0.1-0.5c-0.1-0.3-0.3-0.5-0.4-0.7c-0.1-0.2-0.2-0.3-0.2-0.3s-0.1,0.1-0.2,0.2s-0.1,0.3,0,0.7
			c0.1,0.3,0.3,0.6,0.5,0.7c-0.4-0.2-0.7-0.5-1-0.8c0,0,0.1-0.1,0.2-0.3c0-0.1,0.1-0.3,0-0.6c0-0.3-0.1-0.6-0.2-0.8
			c-0.1-0.2-0.1-0.3-0.1-0.3s-0.1,0-0.2,0.1s-0.2,0.3-0.2,0.6s0.1,0.6,0.3,0.8c-0.3-0.3-0.6-0.7-0.8-1.1c0.1,0,0.1-0.1,0.2-0.2
			c0.1-0.1,0.2-0.3,0.2-0.5c0.1-0.3,0-0.6,0-0.8c0-0.2-0.1-0.3-0.1-0.3s-0.1,0-0.2,0.1c-0.1,0.1-0.3,0.2-0.4,0.5s-0.1,0.6,0,0.9
			c-0.2-0.4-0.3-0.8-0.5-1.2c0.1,0,0.2,0,0.3-0.1c0.1-0.1,0.2-0.2,0.3-0.4c0.1-0.3,0.2-0.5,0.2-0.8c0-0.2,0-0.4,0-0.4s-0.1,0-0.2,0
			c-0.1,0-0.3,0.1-0.5,0.4c-0.2,0.3-0.2,0.6-0.2,0.8c-0.1-0.4-0.1-0.9-0.1-1.3c0.1,0,0.2,0,0.3-0.1s0.3-0.2,0.4-0.3
			c0.2-0.2,0.3-0.5,0.4-0.7c0.1-0.2,0.1-0.3,0.1-0.3s-0.1,0-0.2-0.1c-0.2,0-0.4,0-0.6,0.2c-0.2,0.2-0.4,0.5-0.4,0.7
			c0-0.4,0.1-0.9,0.3-1.3c0.1,0,0.2,0,0.3,0C196.7,57.2,196.9,57.1,197.1,57z"/>
		<path fill="#88898A" d="M207.8,57c-0.3-0.2-0.5-0.4-0.6-0.5c-0.1-0.2-0.2-0.3-0.2-0.3s0.1-0.1,0.2-0.1s0.4-0.1,0.7,0.1
			c0.3,0.1,0.5,0.4,0.6,0.6c-0.2-0.4-0.4-0.8-0.6-1.2c0,0-0.1,0.1-0.3,0.1c-0.1,0-0.3,0-0.6,0c-0.3-0.1-0.5-0.2-0.7-0.3
			c-0.2-0.1-0.3-0.2-0.3-0.2s0-0.1,0.2-0.2c0.1-0.1,0.3-0.2,0.6-0.1c0.3,0.1,0.6,0.2,0.8,0.4c-0.2-0.2-0.4-0.5-0.6-0.7
			c0,0-0.5,0-1.1-0.4c-0.6-0.3-0.9-0.9-0.9-0.9s0.5-0.2,1.3,0.3c0.6,0.4,0.8,0.8,0.8,0.9c0.2,0.2,0.4,0.4,0.6,0.7
			c-0.1-0.2-0.3-0.5-0.4-0.9c-0.1-0.3-0.1-0.6,0-0.7c0.1-0.1,0.1-0.2,0.1-0.2s0.2,0.1,0.3,0.4c0.2,0.2,0.4,0.6,0.4,0.9
			c0,0.3,0,0.5-0.1,0.6c-0.1,0.1-0.1,0.2-0.2,0.2c0.3,0.4,0.5,0.8,0.6,1.2c-0.1-0.3-0.1-0.6-0.1-0.9c0-0.4,0.1-0.6,0.2-0.7
			c0.1-0.1,0.2-0.2,0.2-0.2s0.1,0.2,0.2,0.5c0.1,0.3,0.2,0.7,0.1,1c0,0.3-0.1,0.5-0.2,0.6c-0.1,0.1-0.2,0.1-0.3,0.2
			c0.1,0.4,0.2,0.9,0.3,1.3c0-0.3,0.1-0.6,0.2-0.9s0.2-0.5,0.4-0.6c0.1-0.1,0.2-0.1,0.2-0.1s0.1,0.2,0.1,0.5c0,0.3,0,0.7-0.1,1
			c-0.1,0.3-0.3,0.4-0.4,0.5c-0.1,0.1-0.2,0.1-0.3,0.1c0,0.5,0,0.9-0.1,1.4c0.1-0.2,0.2-0.5,0.4-0.8s0.4-0.4,0.5-0.5s0.2,0,0.2,0
			s0,0.2-0.1,0.5c-0.1,0.3-0.2,0.7-0.4,0.9c-0.2,0.2-0.4,0.3-0.5,0.4c-0.1,0-0.2,0-0.3,0c-0.1,0.4-0.3,0.9-0.5,1.3
			c0.2-0.2,0.4-0.5,0.6-0.7c0.3-0.2,0.5-0.3,0.6-0.3c0.2,0,0.2,0,0.2,0s-0.1,0.2-0.2,0.5c-0.1,0.3-0.4,0.6-0.7,0.8
			c-0.2,0.2-0.4,0.2-0.6,0.2c-0.1,0-0.2-0.1-0.3-0.1c-0.2,0.4-0.5,0.8-0.8,1.1c0.2-0.2,0.5-0.3,0.8-0.5c0.3-0.1,0.6-0.2,0.7-0.1
			c0.2,0,0.2,0.1,0.2,0.1s-0.1,0.2-0.3,0.4c-0.2,0.2-0.5,0.5-0.9,0.6c-0.3,0.1-0.5,0.1-0.6,0c-0.1,0-0.2-0.1-0.3-0.2
			c-0.3,0.3-0.7,0.6-1.1,0.8c0.2-0.1,0.6-0.2,0.9-0.2c0.4,0,0.6,0,0.7,0.1c0.1,0.1,0.2,0.2,0.2,0.2s-0.2,0.1-0.4,0.3
			c-0.3,0.2-0.6,0.3-1,0.3c-0.3,0-0.5-0.1-0.6-0.1c-0.1-0.1-0.2-0.2-0.2-0.2c-0.4,0.2-0.8,0.4-1.3,0.5c0.3,0,0.6,0,0.9,0
			c0.3,0.1,0.6,0.2,0.7,0.3c0.1,0.1,0.1,0.2,0.1,0.2s-0.2,0.1-0.5,0.2c-0.3,0.1-0.7,0.1-1,0c-0.3-0.1-0.4-0.2-0.5-0.3
			c-0.1-0.1-0.1-0.2-0.1-0.3c-0.4,0.1-0.7,0.1-1.1,0.1c-0.1,0-0.1,0-0.1-0.1l0.1-0.1c0.4,0,0.7,0,1-0.1c0-0.1,0-0.2,0-0.3
			c0-0.1,0.1-0.3,0.3-0.5c0.2-0.2,0.4-0.4,0.6-0.5c0.2-0.1,0.3-0.2,0.3-0.2s0.1,0.1,0.1,0.2c0,0.1,0,0.4-0.1,0.6
			c-0.2,0.3-0.4,0.5-0.7,0.6c0.4-0.1,0.8-0.3,1.2-0.5c0-0.1-0.1-0.2-0.1-0.3c0-0.1,0-0.3,0.1-0.5c0.1-0.3,0.3-0.5,0.4-0.7
			c0.1-0.2,0.2-0.3,0.2-0.3s0.1,0.1,0.2,0.2c0.1,0.1,0.1,0.3,0,0.7c-0.1,0.3-0.3,0.6-0.5,0.7c0.4-0.2,0.7-0.5,1-0.8
			c0,0-0.1-0.1-0.2-0.3c0-0.1-0.1-0.3,0-0.6c0-0.3,0.1-0.6,0.2-0.8c0.1-0.2,0.1-0.3,0.1-0.3s0.1,0,0.2,0.1s0.2,0.3,0.2,0.6
			s-0.1,0.6-0.3,0.8c0.3-0.3,0.6-0.7,0.8-1.1c-0.1,0-0.1-0.1-0.2-0.2c-0.1-0.1-0.2-0.3-0.2-0.5c-0.1-0.3,0-0.6,0-0.8
			c0-0.2,0.1-0.3,0.1-0.3s0.1,0,0.2,0.1c0.1,0.1,0.3,0.2,0.4,0.5c0.1,0.3,0.1,0.6,0,0.9c0.2-0.4,0.3-0.8,0.5-1.2
			c-0.1,0-0.2,0-0.3-0.1s-0.2-0.2-0.3-0.4c-0.1-0.3-0.2-0.5-0.2-0.8c0-0.2,0-0.4,0-0.4s0.1,0,0.2,0s0.3,0.1,0.5,0.4
			c0.2,0.3,0.2,0.6,0.2,0.8c0.1-0.4,0.1-0.9,0.1-1.3c-0.1,0-0.2,0-0.3-0.1c-0.1-0.1-0.3-0.2-0.4-0.3c-0.2-0.2-0.3-0.5-0.4-0.7
			c-0.1-0.2-0.1-0.3-0.1-0.3s0.1,0,0.2-0.1c0.1,0,0.4,0,0.6,0.2c0.2,0.2,0.4,0.5,0.5,0.7c0-0.4-0.1-0.9-0.3-1.3c-0.1,0-0.2,0-0.3,0
			C208.2,57.2,208,57.1,207.8,57z"/>
		<polyline fill="#3C6FB5" points="175.6,47 181.9,47 189.3,33.3 183,33.3 175.6,47 181.9,47 		"/>
		<path fill="#F0800B" d="M182.5,52.4H175c-0.9,0-1.7-0.8-1.7-1.7v-3.1c0-0.9,0.8-1.7,1.7-1.7h7.4c0.9,0,1.7,0.8,1.7,1.7v3.1
			C184.2,51.7,183.4,52.4,182.5,52.4z M175,47c-0.3,0-0.6,0.3-0.6,0.6v3.1c0,0.3,0.3,0.6,0.6,0.6h7.4c0.3,0,0.6-0.3,0.6-0.6v-3.1
			c0-0.3-0.3-0.6-0.6-0.6H175z"/>
		<path fill="#FAB612" d="M189.6,59c0-0.7-0.1-1.4-0.2-2.1s-0.3-1.3-0.6-2c-0.3-0.6-0.6-1.3-0.9-1.8c-0.4-0.6-0.8-1.1-1.3-1.6
			s-1-1-1.6-1.4c-0.6-0.4-1.2-0.7-1.8-1c-0.6-0.3-1.3-0.5-2-0.7s-1.4-0.3-2.1-0.3c-0.7,0-1.4,0-2.1,0.1c-0.7,0.1-1.4,0.3-2,0.5
			c-0.7,0.2-1.3,0.5-1.9,0.9c-0.6,0.4-1.2,0.7-1.7,1.2c-0.5,0.5-1,1-1.4,1.5c-0.4,0.5-0.8,1.1-1.1,1.7c-0.3,0.6-0.6,1.3-0.8,1.9
			c-0.2,0.7-0.3,1.3-0.4,2s-0.1,1.4,0,2.1c0.1,0.7,0.2,1.4,0.4,2c0.2,0.7,0.5,1.3,0.8,1.9c0.3,0.6,0.7,1.2,1.1,1.7
			c0.4,0.5,0.9,1,1.4,1.5c0.5,0.5,1.1,0.9,1.7,1.2c0.6,0.3,1.2,0.6,1.9,0.9c0.7,0.2,1.3,0.4,2,0.5c0.7,0.1,1.4,0.1,2.1,0.1
			c0.7,0,1.4-0.1,2.1-0.3c0.7-0.2,1.3-0.4,2-0.7c0.6-0.3,1.2-0.6,1.8-1c0.6-0.4,1.1-0.9,1.6-1.4s0.9-1,1.3-1.6
			c0.4-0.6,0.7-1.2,0.9-1.8c0.3-0.6,0.5-1.3,0.6-2C189.5,60.4,189.6,59.7,189.6,59"/>
		<path fill="#F0800B" d="M178.7,68.2c-5.1,0-9.2-4.1-9.2-9.2s4.1-9.2,9.2-9.2c5.1,0,9.2,4.1,9.2,9.2S183.8,68.2,178.7,68.2z
			 M178.7,50.5c-4.7,0-8.6,3.9-8.6,8.6s3.9,8.6,8.6,8.6c4.7,0,8.6-3.9,8.6-8.6S183.5,50.5,178.7,50.5z"/>
		<polyline fill="#4694CE" points="181.9,47 175.6,47 168.1,33.3 174.4,33.3 181.9,47 175.6,47 		"/>
		<path fill="#F0800B" d="M173.4,57c0.3-0.2,0.5-0.4,0.6-0.5c0.1-0.2,0.2-0.3,0.2-0.3s-0.1-0.1-0.2-0.1s-0.4-0.1-0.7,0.1
			c-0.3,0.1-0.5,0.4-0.6,0.6c0.2-0.4,0.4-0.8,0.6-1.2c0,0,0.1,0.1,0.3,0.1c0.1,0,0.3,0,0.6,0c0.3-0.1,0.5-0.2,0.7-0.3
			c0.2-0.1,0.3-0.2,0.3-0.2s0-0.1-0.2-0.2c-0.1-0.1-0.3-0.2-0.6-0.1c-0.3,0.1-0.6,0.2-0.8,0.4c0.2-0.2,0.4-0.5,0.6-0.7
			c0,0,0.5,0,1.1-0.4c0.6-0.3,0.9-0.9,0.9-0.9s-0.5-0.2-1.3,0.3c-0.6,0.4-0.8,0.8-0.8,0.9c-0.2,0.2-0.4,0.4-0.6,0.7
			c0.1-0.2,0.3-0.5,0.3-0.9c0.1-0.3,0.1-0.6,0-0.7c-0.1-0.1-0.1-0.2-0.1-0.2s-0.2,0.1-0.3,0.4c-0.2,0.2-0.4,0.6-0.4,0.9
			c0,0.3,0,0.5,0.1,0.6c0.1,0.1,0.1,0.2,0.2,0.2c-0.3,0.4-0.5,0.8-0.6,1.2c0.1-0.3,0.1-0.6,0.1-0.9c0-0.4-0.1-0.6-0.2-0.7
			c-0.1-0.1-0.2-0.2-0.2-0.2s-0.1,0.2-0.2,0.5s-0.2,0.7-0.1,1c0,0.3,0.1,0.5,0.2,0.6c0.1,0.1,0.2,0.1,0.3,0.2
			c-0.1,0.4-0.2,0.9-0.3,1.3c0-0.3-0.1-0.6-0.2-0.9c-0.1-0.3-0.2-0.5-0.4-0.6c-0.1-0.1-0.2-0.1-0.2-0.1s-0.1,0.2-0.1,0.5
			c0,0.3,0,0.7,0.1,1s0.3,0.4,0.4,0.5c0.1,0.1,0.2,0.1,0.3,0.1c0,0.5,0,0.9,0.1,1.4c-0.1-0.2-0.2-0.5-0.4-0.8
			c-0.2-0.3-0.4-0.4-0.5-0.5c-0.1-0.1-0.2,0-0.2,0s0,0.2,0.1,0.5s0.2,0.7,0.4,0.9s0.4,0.3,0.5,0.4c0.1,0,0.2,0,0.3,0
			c0.1,0.4,0.3,0.9,0.5,1.3c-0.2-0.2-0.4-0.5-0.6-0.7c-0.3-0.2-0.5-0.3-0.6-0.3c-0.2,0-0.2,0-0.2,0s0.1,0.2,0.2,0.5
			c0.1,0.3,0.4,0.6,0.7,0.8c0.2,0.2,0.4,0.2,0.6,0.2c0.1,0,0.2-0.1,0.3-0.1c0.2,0.4,0.5,0.8,0.8,1.1c-0.2-0.2-0.5-0.3-0.8-0.5
			c-0.3-0.1-0.6-0.2-0.7-0.1c-0.2,0-0.2,0.1-0.2,0.1s0.1,0.2,0.3,0.4c0.2,0.2,0.5,0.5,0.9,0.6c0.3,0.1,0.5,0.1,0.6,0
			c0.1,0,0.2-0.1,0.3-0.2c0.3,0.3,0.7,0.6,1.1,0.8c-0.2-0.1-0.6-0.2-0.9-0.2c-0.3,0-0.6,0-0.7,0.1c-0.1,0.1-0.2,0.2-0.2,0.2
			s0.2,0.1,0.4,0.3c0.3,0.2,0.6,0.3,1,0.3c0.3,0,0.5-0.1,0.6-0.1c0.1-0.1,0.2-0.2,0.2-0.2c0.4,0.2,0.8,0.4,1.3,0.5
			c-0.3,0-0.6,0-0.9,0c-0.3,0.1-0.6,0.2-0.7,0.3c-0.1,0.1-0.1,0.2-0.1,0.2s0.2,0.1,0.5,0.2c0.3,0.1,0.7,0.1,1,0
			c0.3-0.1,0.4-0.2,0.5-0.3c0.1-0.1,0.1-0.2,0.1-0.3c0.4,0.1,0.7,0.1,1.1,0.1c0.1,0,0.1,0,0.1-0.1l-0.1-0.1c-0.4,0-0.7,0-1-0.1
			c0-0.1,0-0.2,0-0.3c0-0.1-0.1-0.3-0.3-0.5c-0.2-0.2-0.4-0.4-0.6-0.5c-0.2-0.1-0.3-0.2-0.3-0.2s-0.1,0.1-0.1,0.2
			c0,0.1,0,0.4,0.1,0.6c0.2,0.3,0.4,0.5,0.7,0.6c-0.4-0.1-0.8-0.3-1.2-0.5c0-0.1,0.1-0.2,0.1-0.3c0-0.1,0-0.3-0.1-0.5
			c-0.1-0.3-0.3-0.5-0.4-0.7c-0.1-0.2-0.2-0.3-0.2-0.3s-0.1,0.1-0.2,0.2c-0.1,0.1-0.1,0.3,0,0.7c0.1,0.3,0.3,0.6,0.5,0.7
			c-0.4-0.2-0.7-0.5-1-0.8c0,0,0.1-0.1,0.2-0.3c0-0.1,0.1-0.3,0-0.6c0-0.3-0.1-0.6-0.2-0.8c-0.1-0.2-0.1-0.3-0.1-0.3s-0.1,0-0.2,0.1
			c-0.1,0.1-0.2,0.3-0.2,0.6s0.1,0.6,0.3,0.8c-0.3-0.3-0.6-0.7-0.8-1.1c0.1,0,0.1-0.1,0.2-0.2c0.1-0.1,0.2-0.3,0.2-0.5
			c0.1-0.3,0-0.6,0-0.8c0-0.2-0.1-0.3-0.1-0.3s-0.1,0-0.2,0.1c-0.1,0.1-0.3,0.2-0.4,0.5s-0.1,0.6,0,0.9c-0.2-0.4-0.3-0.8-0.5-1.2
			c0.1,0,0.2,0,0.3-0.1s0.2-0.2,0.3-0.4c0.1-0.3,0.2-0.5,0.2-0.8c0-0.2,0-0.4,0-0.4s-0.1,0-0.2,0c-0.1,0-0.3,0.1-0.5,0.4
			c-0.2,0.3-0.2,0.6-0.2,0.8c-0.1-0.4-0.1-0.9-0.1-1.3c0.1,0,0.2,0,0.3-0.1c0.1-0.1,0.3-0.2,0.4-0.3c0.2-0.2,0.3-0.5,0.4-0.7
			c0.1-0.2,0.1-0.3,0.1-0.3s-0.1,0-0.2-0.1c-0.2,0-0.4,0-0.6,0.2c-0.2,0.2-0.4,0.5-0.4,0.7c0-0.4,0.1-0.9,0.3-1.3c0.1,0,0.2,0,0.3,0
			C173,57.2,173.2,57.1,173.4,57z"/>
		<path fill="#F0800B" d="M184.1,57c-0.3-0.2-0.5-0.4-0.6-0.5c-0.1-0.2-0.2-0.3-0.2-0.3s0.1-0.1,0.2-0.1s0.4-0.1,0.7,0.1
			c0.3,0.1,0.5,0.4,0.6,0.6c-0.2-0.4-0.4-0.8-0.6-1.2c0,0-0.1,0.1-0.3,0.1c-0.1,0-0.3,0-0.6,0c-0.3-0.1-0.5-0.2-0.7-0.3
			c-0.2-0.1-0.3-0.2-0.3-0.2s0-0.1,0.2-0.2c0.1-0.1,0.3-0.2,0.6-0.1c0.3,0.1,0.6,0.2,0.8,0.4c-0.2-0.2-0.4-0.5-0.6-0.7
			c0,0-0.5,0-1.1-0.4c-0.6-0.3-0.9-0.9-0.9-0.9s0.5-0.2,1.3,0.3c0.6,0.4,0.8,0.8,0.8,0.9c0.2,0.2,0.4,0.4,0.6,0.7
			c-0.1-0.2-0.3-0.5-0.4-0.9c-0.1-0.3-0.1-0.6,0-0.7c0.1-0.1,0.1-0.2,0.1-0.2s0.2,0.1,0.3,0.4c0.2,0.2,0.4,0.6,0.4,0.9
			c0,0.3,0,0.5-0.1,0.6c-0.1,0.1-0.1,0.2-0.2,0.2c0.3,0.4,0.5,0.8,0.6,1.2c-0.1-0.3-0.1-0.6-0.1-0.9c0-0.4,0.1-0.6,0.2-0.7
			c0.1-0.1,0.2-0.2,0.2-0.2s0.1,0.2,0.2,0.5c0.1,0.3,0.2,0.7,0.1,1c0,0.3-0.1,0.5-0.2,0.6c-0.1,0.1-0.2,0.1-0.3,0.2
			c0.1,0.4,0.2,0.9,0.3,1.3c0-0.3,0.1-0.6,0.2-0.9s0.2-0.5,0.4-0.6c0.1-0.1,0.2-0.1,0.2-0.1s0.1,0.2,0.1,0.5c0,0.3,0,0.7-0.1,1
			s-0.3,0.4-0.4,0.5c-0.1,0.1-0.2,0.1-0.3,0.1c0,0.5,0,0.9-0.1,1.4c0.1-0.2,0.2-0.5,0.4-0.8s0.4-0.4,0.5-0.5c0.1-0.1,0.2,0,0.2,0
			s0,0.2-0.1,0.5c-0.1,0.3-0.2,0.7-0.4,0.9c-0.2,0.2-0.4,0.3-0.5,0.4c-0.1,0-0.2,0-0.3,0c-0.1,0.4-0.3,0.9-0.5,1.3
			c0.2-0.2,0.4-0.5,0.6-0.7c0.3-0.2,0.5-0.3,0.6-0.3c0.2,0,0.2,0,0.2,0s-0.1,0.2-0.2,0.5c-0.1,0.3-0.4,0.6-0.7,0.8
			c-0.2,0.2-0.4,0.2-0.6,0.2c-0.1,0-0.2-0.1-0.3-0.1c-0.2,0.4-0.5,0.8-0.8,1.1c0.2-0.2,0.5-0.3,0.8-0.5c0.3-0.1,0.6-0.2,0.7-0.1
			c0.2,0,0.2,0.1,0.2,0.1s-0.1,0.2-0.3,0.4s-0.5,0.5-0.9,0.6c-0.3,0.1-0.5,0.1-0.6,0c-0.1,0-0.2-0.1-0.3-0.2
			c-0.3,0.3-0.7,0.6-1.1,0.8c0.2-0.1,0.6-0.2,0.9-0.2c0.4,0,0.6,0,0.7,0.1c0.1,0.1,0.2,0.2,0.2,0.2s-0.2,0.1-0.4,0.3
			c-0.3,0.2-0.6,0.3-1,0.3c-0.3,0-0.5-0.1-0.6-0.1c-0.1-0.1-0.2-0.2-0.2-0.2c-0.4,0.2-0.8,0.4-1.3,0.5c0.3,0,0.6,0,0.9,0
			c0.3,0.1,0.6,0.2,0.7,0.3c0.1,0.1,0.1,0.2,0.1,0.2s-0.2,0.1-0.5,0.2c-0.3,0.1-0.7,0.1-1,0c-0.3-0.1-0.4-0.2-0.5-0.3
			c-0.1-0.1-0.1-0.2-0.1-0.3c-0.4,0.1-0.7,0.1-1.1,0.1c-0.1,0-0.1,0-0.1-0.1l0.1-0.1c0.4,0,0.7,0,1-0.1c0-0.1,0-0.2,0-0.3
			c0-0.1,0.1-0.3,0.3-0.5c0.2-0.2,0.4-0.4,0.6-0.5c0.2-0.1,0.3-0.2,0.3-0.2s0.1,0.1,0.1,0.2c0,0.1,0,0.4-0.1,0.6
			c-0.2,0.3-0.4,0.5-0.7,0.6c0.4-0.1,0.8-0.3,1.2-0.5c0-0.1-0.1-0.2-0.1-0.3c0-0.1,0-0.3,0.1-0.5c0.1-0.3,0.3-0.5,0.4-0.7
			c0.1-0.2,0.2-0.3,0.2-0.3s0.1,0.1,0.2,0.2s0.1,0.3,0,0.7c-0.1,0.3-0.3,0.6-0.5,0.7c0.4-0.2,0.7-0.5,1-0.8c0,0-0.1-0.1-0.2-0.3
			c0-0.1-0.1-0.3,0-0.6c0-0.3,0.1-0.6,0.2-0.8c0.1-0.2,0.1-0.3,0.1-0.3s0.1,0,0.2,0.1s0.2,0.3,0.2,0.6s-0.1,0.6-0.3,0.8
			c0.3-0.3,0.6-0.7,0.8-1.1c-0.1,0-0.1-0.1-0.2-0.2c-0.1-0.1-0.2-0.3-0.2-0.5c-0.1-0.3,0-0.6,0-0.8c0-0.2,0.1-0.3,0.1-0.3
			s0.1,0,0.2,0.1c0.1,0.1,0.3,0.2,0.4,0.5c0.1,0.3,0.1,0.6,0,0.9c0.2-0.4,0.3-0.8,0.5-1.2c-0.1,0-0.2,0-0.3-0.1s-0.2-0.2-0.3-0.4
			c-0.1-0.3-0.2-0.5-0.2-0.8c0-0.2,0-0.4,0-0.4s0.1,0,0.2,0c0.1,0,0.3,0.1,0.5,0.4c0.2,0.3,0.2,0.6,0.2,0.8c0.1-0.4,0.1-0.9,0.1-1.3
			c-0.1,0-0.2,0-0.3-0.1c-0.1-0.1-0.3-0.2-0.4-0.3c-0.2-0.2-0.3-0.5-0.4-0.7c-0.1-0.2-0.1-0.3-0.1-0.3s0.1,0,0.2-0.1
			c0.1,0,0.4,0,0.6,0.2c0.2,0.2,0.4,0.5,0.5,0.7c0-0.4-0.1-0.9-0.3-1.3c-0.1,0-0.2,0-0.3,0C184.5,57.2,184.3,57.1,184.1,57z"/>
		<polyline fill="#3C6FB5" points="223,47 229.3,47 236.7,33.3 230.4,33.3 223,47 229.3,47 		"/>
		<path fill="#D55F2C" d="M229.8,52.4h-7.4c-0.9,0-1.7-0.8-1.7-1.7v-3.1c0-0.9,0.8-1.7,1.7-1.7h7.4c0.9,0,1.7,0.8,1.7,1.7v3.1
			C231.6,51.7,230.8,52.4,229.8,52.4z M222.4,47c-0.3,0-0.6,0.3-0.6,0.6v3.1c0,0.3,0.3,0.6,0.6,0.6h7.4c0.3,0,0.6-0.3,0.6-0.6v-3.1
			c0-0.3-0.3-0.6-0.6-0.6H222.4z"/>
		<path fill="#F18548" d="M227.5,48.3c-0.7-0.1-1.4-0.1-2.1-0.1c-0.7,0-1.4,0.1-2,0.3c-0.7,0.2-1.3,0.4-2,0.7
			c-0.6,0.3-1.2,0.6-1.8,1.1c-0.6,0.4-1.1,0.9-1.6,1.4c-0.5,0.5-0.9,1.1-1.3,1.6c-0.4,0.6-0.7,1.2-0.9,1.9c-0.3,0.6-0.4,1.3-0.6,2
			c-0.1,0.7-0.2,1.4-0.2,2.1c0,0.7,0.1,1.4,0.2,2.1s0.3,1.3,0.6,2c0.3,0.7,0.6,1.3,1,1.8c0.4,0.6,0.8,1.1,1.3,1.6
			c0.5,0.5,1,0.9,1.6,1.3c0.6,0.4,1.2,0.7,1.8,1s1.3,0.5,2,0.7c0.7,0.2,1.4,0.2,2.1,0.3c0.7,0,1.4,0,2.1-0.1c0.7-0.1,1.4-0.3,2-0.5
			c0.7-0.2,1.3-0.5,1.9-0.9c0.6-0.4,1.2-0.8,1.7-1.2c0.5-0.5,1-1,1.4-1.5c0.4-0.5,0.8-1.1,1.1-1.8c0.3-0.6,0.6-1.3,0.8-1.9
			c0.2-0.7,0.3-1.3,0.4-2c0.1-0.7,0.1-1.4,0-2.1c-0.1-0.7-0.2-1.4-0.4-2c-0.2-0.7-0.5-1.3-0.8-1.9c-0.3-0.6-0.7-1.2-1.1-1.7
			c-0.4-0.5-0.9-1-1.4-1.5c-0.5-0.4-1.1-0.8-1.7-1.2c-0.6-0.3-1.2-0.6-1.9-0.8C229,48.8,228.2,48.4,227.5,48.3"/>
		<path fill="#D55F2C" d="M226.1,68.2c-5.1,0-9.2-4.1-9.2-9.2s4.1-9.2,9.2-9.2s9.2,4.1,9.2,9.2S231.2,68.2,226.1,68.2z M226.1,50.5
			c-4.7,0-8.6,3.9-8.6,8.6s3.9,8.6,8.6,8.6c4.7,0,8.6-3.9,8.6-8.6S230.9,50.5,226.1,50.5z"/>
		<polyline fill="#4694CE" points="229.3,47 223,47 215.5,33.3 221.8,33.3 229.3,47 223,47 		"/>
		<path fill="#D55F2C" d="M220.8,57c0.3-0.2,0.5-0.4,0.6-0.5c0.1-0.2,0.2-0.3,0.2-0.3s-0.1-0.1-0.2-0.1s-0.4-0.1-0.7,0.1
			c-0.3,0.1-0.5,0.4-0.6,0.6c0.2-0.4,0.4-0.8,0.6-1.2c0,0,0.1,0.1,0.3,0.1c0.1,0,0.3,0,0.6,0c0.3-0.1,0.5-0.2,0.7-0.3
			c0.2-0.1,0.3-0.2,0.3-0.2s0-0.1-0.2-0.2c-0.1-0.1-0.3-0.2-0.6-0.1s-0.6,0.2-0.8,0.4c0.2-0.2,0.4-0.5,0.6-0.7c0,0,0.5,0,1.1-0.4
			c0.6-0.3,0.9-0.9,0.9-0.9s-0.5-0.2-1.3,0.3c-0.6,0.4-0.8,0.8-0.8,0.9c-0.2,0.2-0.4,0.4-0.6,0.7c0.1-0.2,0.3-0.5,0.3-0.9
			c0.1-0.3,0.1-0.6,0-0.7c-0.1-0.1-0.1-0.2-0.1-0.2s-0.2,0.1-0.3,0.4c-0.2,0.2-0.4,0.6-0.4,0.9c0,0.3,0,0.5,0.1,0.6
			c0.1,0.1,0.1,0.2,0.2,0.2c-0.3,0.4-0.5,0.8-0.6,1.2c0.1-0.3,0.1-0.6,0.1-0.9c0-0.4-0.1-0.6-0.2-0.7c-0.1-0.1-0.2-0.2-0.2-0.2
			s-0.1,0.2-0.2,0.5c-0.1,0.3-0.2,0.7-0.1,1c0,0.3,0.1,0.5,0.2,0.6c0.1,0.1,0.2,0.1,0.3,0.2c-0.1,0.4-0.2,0.9-0.3,1.3
			c0-0.3-0.1-0.6-0.2-0.9s-0.2-0.5-0.4-0.6c-0.1-0.1-0.2-0.1-0.2-0.1s-0.1,0.2-0.1,0.5c0,0.3,0,0.7,0.1,1c0.1,0.3,0.3,0.4,0.4,0.5
			c0.1,0.1,0.2,0.1,0.3,0.1c0,0.5,0,0.9,0.1,1.4c-0.1-0.2-0.2-0.5-0.4-0.8c-0.2-0.3-0.4-0.4-0.5-0.5c-0.1-0.1-0.2,0-0.2,0
			s0,0.2,0.1,0.5c0.1,0.3,0.2,0.7,0.4,0.9c0.2,0.2,0.4,0.3,0.5,0.4c0.1,0,0.2,0,0.3,0c0.1,0.4,0.3,0.9,0.5,1.3
			c-0.2-0.2-0.4-0.5-0.6-0.7c-0.3-0.2-0.5-0.3-0.6-0.3c-0.2,0-0.2,0-0.2,0s0.1,0.2,0.2,0.5c0.1,0.3,0.4,0.6,0.7,0.8
			c0.2,0.2,0.4,0.2,0.6,0.2c0.1,0,0.2-0.1,0.3-0.1c0.2,0.4,0.5,0.8,0.8,1.1c-0.2-0.2-0.5-0.3-0.8-0.5c-0.3-0.1-0.6-0.2-0.7-0.1
			c-0.2,0-0.2,0.1-0.2,0.1s0.1,0.2,0.3,0.4c0.2,0.2,0.5,0.5,0.9,0.6c0.3,0.1,0.5,0.1,0.6,0c0.1,0,0.2-0.1,0.3-0.2
			c0.3,0.3,0.7,0.6,1.1,0.8c-0.2-0.1-0.6-0.2-0.9-0.2c-0.4,0-0.6,0-0.7,0.1c-0.1,0.1-0.2,0.2-0.2,0.2s0.2,0.1,0.4,0.3
			c0.3,0.2,0.6,0.3,1,0.3c0.3,0,0.5-0.1,0.6-0.1c0.1-0.1,0.2-0.2,0.2-0.2c0.4,0.2,0.8,0.4,1.3,0.5c-0.3,0-0.6,0-0.9,0
			c-0.3,0.1-0.6,0.2-0.7,0.3c-0.1,0.1-0.1,0.2-0.1,0.2s0.2,0.1,0.5,0.2c0.3,0.1,0.7,0.1,1,0c0.3-0.1,0.4-0.2,0.5-0.3
			c0.1-0.1,0.1-0.2,0.1-0.3c0.4,0.1,0.7,0.1,1.1,0.1c0.1,0,0.1,0,0.1-0.1l-0.1-0.1c-0.4,0-0.7,0-1-0.1c0-0.1,0-0.2,0-0.3
			c0-0.1-0.1-0.3-0.3-0.5c-0.2-0.2-0.4-0.4-0.6-0.5c-0.2-0.1-0.3-0.2-0.3-0.2s-0.1,0.1-0.1,0.2c0,0.1,0,0.4,0.1,0.6
			c0.2,0.3,0.4,0.5,0.7,0.6c-0.4-0.1-0.8-0.3-1.2-0.5c0-0.1,0.1-0.2,0.1-0.3c0-0.1,0-0.3-0.1-0.5c-0.1-0.3-0.3-0.5-0.4-0.7
			c-0.1-0.2-0.2-0.3-0.2-0.3s-0.1,0.1-0.2,0.2s-0.1,0.3,0,0.7c0.1,0.3,0.3,0.6,0.5,0.7c-0.4-0.2-0.7-0.5-1-0.8c0,0,0.1-0.1,0.2-0.3
			c0-0.1,0.1-0.3,0-0.6c0-0.3-0.1-0.6-0.2-0.8c-0.1-0.2-0.1-0.3-0.1-0.3s-0.1,0-0.2,0.1c-0.1,0.1-0.2,0.3-0.2,0.6s0.1,0.6,0.3,0.8
			c-0.3-0.3-0.6-0.7-0.8-1.1c0.1,0,0.1-0.1,0.2-0.2c0.1-0.1,0.2-0.3,0.2-0.5c0.1-0.3,0-0.6,0-0.8c0-0.2-0.1-0.3-0.1-0.3
			s-0.1,0-0.2,0.1c-0.1,0.1-0.3,0.2-0.4,0.5s-0.1,0.6,0,0.9c-0.2-0.4-0.3-0.8-0.5-1.2c0.1,0,0.2,0,0.3-0.1c0.1-0.1,0.2-0.2,0.3-0.4
			c0.1-0.3,0.2-0.5,0.2-0.8c0-0.2,0-0.4,0-0.4s-0.1,0-0.2,0s-0.3,0.1-0.5,0.4s-0.2,0.6-0.2,0.8c-0.1-0.4-0.1-0.9-0.1-1.3
			c0.1,0,0.2,0,0.3-0.1s0.3-0.2,0.4-0.3c0.2-0.2,0.3-0.5,0.4-0.7c0.1-0.2,0.1-0.3,0.1-0.3s-0.1,0-0.2-0.1c-0.1,0-0.4,0-0.6,0.2
			c-0.2,0.2-0.4,0.5-0.4,0.7c0-0.4,0.1-0.9,0.3-1.3c0.1,0,0.2,0,0.3,0C220.4,57.2,220.6,57.1,220.8,57z"/>
		<path fill="#D55F2C" d="M231.5,57c-0.3-0.2-0.5-0.4-0.6-0.5c-0.1-0.2-0.2-0.3-0.2-0.3s0.1-0.1,0.2-0.1c0.1,0,0.4-0.1,0.7,0.1
			c0.3,0.1,0.5,0.4,0.6,0.6c-0.2-0.4-0.4-0.8-0.6-1.2c0,0-0.1,0.1-0.3,0.1c-0.1,0-0.3,0-0.6,0c-0.3-0.1-0.5-0.2-0.7-0.3
			c-0.2-0.1-0.3-0.2-0.3-0.2s0-0.1,0.2-0.2c0.1-0.1,0.3-0.2,0.6-0.1c0.3,0.1,0.6,0.2,0.8,0.4c-0.2-0.2-0.4-0.5-0.6-0.7
			c0,0-0.5,0-1.1-0.4c-0.6-0.3-0.9-0.9-0.9-0.9s0.5-0.2,1.3,0.3c0.6,0.4,0.8,0.8,0.8,0.9c0.2,0.2,0.4,0.4,0.6,0.7
			c-0.1-0.2-0.3-0.5-0.4-0.9c-0.1-0.3-0.1-0.6,0-0.7c0.1-0.1,0.1-0.2,0.1-0.2s0.2,0.1,0.3,0.4c0.2,0.2,0.4,0.6,0.4,0.9
			c0,0.3,0,0.5-0.1,0.6c-0.1,0.1-0.1,0.2-0.2,0.2c0.3,0.4,0.5,0.8,0.6,1.2c-0.1-0.3-0.1-0.6-0.1-0.9c0-0.4,0.1-0.6,0.2-0.7
			c0.1-0.1,0.2-0.2,0.2-0.2s0.1,0.2,0.2,0.5s0.2,0.7,0.1,1c0,0.3-0.1,0.5-0.2,0.6c-0.1,0.1-0.2,0.1-0.3,0.2c0.1,0.4,0.2,0.9,0.3,1.3
			c0-0.3,0.1-0.6,0.2-0.9c0.1-0.3,0.2-0.5,0.4-0.6c0.1-0.1,0.2-0.1,0.2-0.1s0.1,0.2,0.1,0.5c0,0.3,0,0.7-0.1,1s-0.3,0.4-0.4,0.5
			c-0.1,0.1-0.2,0.1-0.3,0.1c0,0.5,0,0.9-0.1,1.4c0.1-0.2,0.2-0.5,0.4-0.8s0.4-0.4,0.5-0.5s0.2,0,0.2,0s0,0.2-0.1,0.5
			s-0.2,0.7-0.4,0.9s-0.4,0.3-0.5,0.4c-0.1,0-0.2,0-0.3,0c-0.1,0.4-0.3,0.9-0.5,1.3c0.2-0.2,0.4-0.5,0.6-0.7
			c0.3-0.2,0.5-0.3,0.6-0.3c0.2,0,0.2,0,0.2,0s-0.1,0.2-0.2,0.5c-0.1,0.3-0.4,0.6-0.7,0.8c-0.2,0.2-0.4,0.2-0.6,0.2
			c-0.1,0-0.2-0.1-0.3-0.1c-0.2,0.4-0.5,0.8-0.8,1.1c0.2-0.2,0.5-0.3,0.8-0.5c0.3-0.1,0.6-0.2,0.7-0.1c0.2,0,0.2,0.1,0.2,0.1
			s-0.1,0.2-0.3,0.4c-0.2,0.2-0.5,0.5-0.9,0.6c-0.3,0.1-0.5,0.1-0.6,0c-0.1,0-0.2-0.1-0.3-0.2c-0.3,0.3-0.7,0.6-1.1,0.8
			c0.2-0.1,0.6-0.2,0.9-0.2c0.4,0,0.6,0,0.7,0.1c0.1,0.1,0.2,0.2,0.2,0.2s-0.2,0.1-0.4,0.3c-0.3,0.2-0.6,0.3-1,0.3
			c-0.3,0-0.5-0.1-0.6-0.1c-0.1-0.1-0.2-0.2-0.2-0.2c-0.4,0.2-0.8,0.4-1.3,0.5c0.3,0,0.6,0,0.9,0c0.3,0.1,0.6,0.2,0.7,0.3
			c0.1,0.1,0.1,0.2,0.1,0.2s-0.2,0.1-0.5,0.2c-0.3,0.1-0.7,0.1-1,0c-0.3-0.1-0.4-0.2-0.5-0.3c-0.1-0.1-0.1-0.2-0.1-0.3
			c-0.4,0.1-0.7,0.1-1.1,0.1c-0.1,0-0.1,0-0.1-0.1l0.1-0.1c0.4,0,0.7,0,1-0.1c0-0.1,0-0.2,0-0.3c0-0.1,0.1-0.3,0.3-0.5
			c0.2-0.2,0.4-0.4,0.6-0.5c0.2-0.1,0.3-0.2,0.3-0.2s0.1,0.1,0.1,0.2c0,0.1,0,0.4-0.1,0.6c-0.2,0.3-0.4,0.5-0.7,0.6
			c0.4-0.1,0.8-0.3,1.2-0.5c0-0.1-0.1-0.2-0.1-0.3c0-0.1,0-0.3,0.1-0.5c0.1-0.3,0.3-0.5,0.4-0.7c0.1-0.2,0.2-0.3,0.2-0.3
			s0.1,0.1,0.2,0.2s0.1,0.3,0,0.7c-0.1,0.3-0.3,0.6-0.5,0.7c0.4-0.2,0.7-0.5,1-0.8c0,0-0.1-0.1-0.2-0.3c0-0.1-0.1-0.3,0-0.6
			c0-0.3,0.1-0.6,0.2-0.8C230,62.1,230,62,230,62s0.1,0,0.2,0.1s0.2,0.3,0.2,0.6s-0.1,0.6-0.3,0.8c0.3-0.3,0.6-0.7,0.8-1.1
			c-0.1,0-0.1-0.1-0.2-0.2c-0.1-0.1-0.2-0.3-0.2-0.5c-0.1-0.3,0-0.6,0-0.8c0-0.2,0.1-0.3,0.1-0.3s0.1,0,0.2,0.1
			c0.1,0.1,0.3,0.2,0.4,0.5c0.1,0.3,0.1,0.6,0,0.9c0.2-0.4,0.3-0.8,0.5-1.2c-0.1,0-0.2,0-0.3-0.1s-0.2-0.2-0.3-0.4
			c-0.1-0.3-0.2-0.5-0.2-0.8c0-0.2,0-0.4,0-0.4s0.1,0,0.2,0s0.3,0.1,0.5,0.4c0.2,0.3,0.2,0.6,0.2,0.8c0.1-0.4,0.1-0.9,0.1-1.3
			c-0.1,0-0.2,0-0.3-0.1s-0.3-0.2-0.4-0.3c-0.2-0.2-0.3-0.5-0.4-0.7c-0.1-0.2-0.1-0.3-0.1-0.3s0.1,0,0.2-0.1c0.1,0,0.4,0,0.6,0.2
			s0.4,0.5,0.4,0.7c0-0.4-0.1-0.9-0.3-1.3c-0.1,0-0.2,0-0.3,0C231.9,57.2,231.7,57.1,231.5,57z"/>
	</g>
</g>
</svg>
